%TF.GenerationSoftware,KiCad,Pcbnew,6.0.10-86aedd382b~118~ubuntu22.10.1*%
%TF.CreationDate,2023-02-02T20:30:59+01:00*%
%TF.ProjectId,FPGHat,46504748-6174-42e6-9b69-6361645f7063,rev?*%
%TF.SameCoordinates,Original*%
%TF.FileFunction,Drillmap*%
%TF.FilePolarity,Positive*%
%FSLAX45Y45*%
G04 Gerber Fmt 4.5, Leading zero omitted, Abs format (unit mm)*
G04 Created by KiCad (PCBNEW 6.0.10-86aedd382b~118~ubuntu22.10.1) date 2023-02-02 20:30:59*
%MOMM*%
%LPD*%
G01*
G04 APERTURE LIST*
%ADD10C,0.200000*%
%ADD11C,0.090000*%
G04 APERTURE END LIST*
D10*
X8000000Y-2300000D02*
G75*
G03*
X7700000Y-2000000I-300290J-290D01*
G01*
X7327900Y-4538000D02*
X7327900Y-5461000D01*
X7700000Y-8000002D02*
G75*
G03*
X8001000Y-7700000I0J301002D01*
G01*
X2000000Y-7700000D02*
X2000000Y-2300000D01*
X2300000Y-2000000D02*
X7700000Y-2000000D01*
X8001000Y-5461000D02*
X8001000Y-7700000D01*
X8000000Y-4538000D02*
X7327900Y-4538000D01*
X7700000Y-8000000D02*
X2300000Y-8000000D01*
X8001000Y-5461000D02*
X7327900Y-5461000D01*
X2300000Y-2000000D02*
G75*
G03*
X2000000Y-2300000I295J-300295D01*
G01*
X8000000Y-2300000D02*
X8000000Y-4538000D01*
X2000000Y-7700000D02*
G75*
G03*
X2300000Y-8000000I300000J0D01*
G01*
D11*
X2385000Y-7705000D02*
X2475000Y-7795000D01*
X2475000Y-7705000D02*
X2385000Y-7795000D01*
X3065000Y-7705000D02*
X3155000Y-7795000D01*
X3155000Y-7705000D02*
X3065000Y-7795000D01*
D10*
X2247619Y-8320476D02*
X2247619Y-8120476D01*
X2295238Y-8120476D01*
X2323810Y-8130000D01*
X2342857Y-8149048D01*
X2352381Y-8168095D01*
X2361905Y-8206190D01*
X2361905Y-8234762D01*
X2352381Y-8272857D01*
X2342857Y-8291905D01*
X2323810Y-8310952D01*
X2295238Y-8320476D01*
X2247619Y-8320476D01*
X2447619Y-8320476D02*
X2447619Y-8187143D01*
X2447619Y-8225238D02*
X2457143Y-8206190D01*
X2466667Y-8196667D01*
X2485714Y-8187143D01*
X2504762Y-8187143D01*
X2571429Y-8320476D02*
X2571429Y-8187143D01*
X2571429Y-8120476D02*
X2561905Y-8130000D01*
X2571429Y-8139524D01*
X2580952Y-8130000D01*
X2571429Y-8120476D01*
X2571429Y-8139524D01*
X2695238Y-8320476D02*
X2676190Y-8310952D01*
X2666667Y-8291905D01*
X2666667Y-8120476D01*
X2800000Y-8320476D02*
X2780952Y-8310952D01*
X2771429Y-8291905D01*
X2771429Y-8120476D01*
X3028571Y-8320476D02*
X3028571Y-8120476D01*
X3095238Y-8263333D01*
X3161905Y-8120476D01*
X3161905Y-8320476D01*
X3342857Y-8320476D02*
X3342857Y-8215714D01*
X3333333Y-8196667D01*
X3314286Y-8187143D01*
X3276190Y-8187143D01*
X3257143Y-8196667D01*
X3342857Y-8310952D02*
X3323809Y-8320476D01*
X3276190Y-8320476D01*
X3257143Y-8310952D01*
X3247619Y-8291905D01*
X3247619Y-8272857D01*
X3257143Y-8253809D01*
X3276190Y-8244286D01*
X3323809Y-8244286D01*
X3342857Y-8234762D01*
X3438095Y-8187143D02*
X3438095Y-8387143D01*
X3438095Y-8196667D02*
X3457143Y-8187143D01*
X3495238Y-8187143D01*
X3514286Y-8196667D01*
X3523809Y-8206190D01*
X3533333Y-8225238D01*
X3533333Y-8282381D01*
X3523809Y-8301428D01*
X3514286Y-8310952D01*
X3495238Y-8320476D01*
X3457143Y-8320476D01*
X3438095Y-8310952D01*
X3619048Y-8301428D02*
X3628571Y-8310952D01*
X3619048Y-8320476D01*
X3609524Y-8310952D01*
X3619048Y-8301428D01*
X3619048Y-8320476D01*
X3619048Y-8196667D02*
X3628571Y-8206190D01*
X3619048Y-8215714D01*
X3609524Y-8206190D01*
X3619048Y-8196667D01*
X3619048Y-8215714D01*
D11*
X1900000Y-8605000D02*
X1990000Y-8695000D01*
X1990000Y-8605000D02*
X1900000Y-8695000D01*
D10*
X2285714Y-8540476D02*
X2304762Y-8540476D01*
X2323810Y-8550000D01*
X2333333Y-8559524D01*
X2342857Y-8578571D01*
X2352381Y-8616667D01*
X2352381Y-8664286D01*
X2342857Y-8702381D01*
X2333333Y-8721429D01*
X2323810Y-8730952D01*
X2304762Y-8740476D01*
X2285714Y-8740476D01*
X2266667Y-8730952D01*
X2257143Y-8721429D01*
X2247619Y-8702381D01*
X2238095Y-8664286D01*
X2238095Y-8616667D01*
X2247619Y-8578571D01*
X2257143Y-8559524D01*
X2266667Y-8550000D01*
X2285714Y-8540476D01*
X2438095Y-8721429D02*
X2447619Y-8730952D01*
X2438095Y-8740476D01*
X2428571Y-8730952D01*
X2438095Y-8721429D01*
X2438095Y-8740476D01*
X2542857Y-8740476D02*
X2580952Y-8740476D01*
X2600000Y-8730952D01*
X2609524Y-8721429D01*
X2628571Y-8692857D01*
X2638095Y-8654762D01*
X2638095Y-8578571D01*
X2628571Y-8559524D01*
X2619048Y-8550000D01*
X2600000Y-8540476D01*
X2561905Y-8540476D01*
X2542857Y-8550000D01*
X2533333Y-8559524D01*
X2523810Y-8578571D01*
X2523810Y-8626190D01*
X2533333Y-8645238D01*
X2542857Y-8654762D01*
X2561905Y-8664286D01*
X2600000Y-8664286D01*
X2619048Y-8654762D01*
X2628571Y-8645238D01*
X2638095Y-8626190D01*
X2761905Y-8540476D02*
X2780952Y-8540476D01*
X2800000Y-8550000D01*
X2809524Y-8559524D01*
X2819048Y-8578571D01*
X2828571Y-8616667D01*
X2828571Y-8664286D01*
X2819048Y-8702381D01*
X2809524Y-8721429D01*
X2800000Y-8730952D01*
X2780952Y-8740476D01*
X2761905Y-8740476D01*
X2742857Y-8730952D01*
X2733333Y-8721429D01*
X2723810Y-8702381D01*
X2714286Y-8664286D01*
X2714286Y-8616667D01*
X2723810Y-8578571D01*
X2733333Y-8559524D01*
X2742857Y-8550000D01*
X2761905Y-8540476D01*
X2952381Y-8540476D02*
X2971428Y-8540476D01*
X2990476Y-8550000D01*
X3000000Y-8559524D01*
X3009524Y-8578571D01*
X3019048Y-8616667D01*
X3019048Y-8664286D01*
X3009524Y-8702381D01*
X3000000Y-8721429D01*
X2990476Y-8730952D01*
X2971428Y-8740476D01*
X2952381Y-8740476D01*
X2933333Y-8730952D01*
X2923809Y-8721429D01*
X2914286Y-8702381D01*
X2904762Y-8664286D01*
X2904762Y-8616667D01*
X2914286Y-8578571D01*
X2923809Y-8559524D01*
X2933333Y-8550000D01*
X2952381Y-8540476D01*
X3104762Y-8740476D02*
X3104762Y-8607143D01*
X3104762Y-8626190D02*
X3114286Y-8616667D01*
X3133333Y-8607143D01*
X3161905Y-8607143D01*
X3180952Y-8616667D01*
X3190476Y-8635714D01*
X3190476Y-8740476D01*
X3190476Y-8635714D02*
X3200000Y-8616667D01*
X3219048Y-8607143D01*
X3247619Y-8607143D01*
X3266667Y-8616667D01*
X3276190Y-8635714D01*
X3276190Y-8740476D01*
X3371428Y-8740476D02*
X3371428Y-8607143D01*
X3371428Y-8626190D02*
X3380952Y-8616667D01*
X3400000Y-8607143D01*
X3428571Y-8607143D01*
X3447619Y-8616667D01*
X3457143Y-8635714D01*
X3457143Y-8740476D01*
X3457143Y-8635714D02*
X3466667Y-8616667D01*
X3485714Y-8607143D01*
X3514286Y-8607143D01*
X3533333Y-8616667D01*
X3542857Y-8635714D01*
X3542857Y-8740476D01*
X3933333Y-8530952D02*
X3761905Y-8788095D01*
X4190476Y-8540476D02*
X4209524Y-8540476D01*
X4228571Y-8550000D01*
X4238095Y-8559524D01*
X4247619Y-8578571D01*
X4257143Y-8616667D01*
X4257143Y-8664286D01*
X4247619Y-8702381D01*
X4238095Y-8721429D01*
X4228571Y-8730952D01*
X4209524Y-8740476D01*
X4190476Y-8740476D01*
X4171428Y-8730952D01*
X4161905Y-8721429D01*
X4152381Y-8702381D01*
X4142857Y-8664286D01*
X4142857Y-8616667D01*
X4152381Y-8578571D01*
X4161905Y-8559524D01*
X4171428Y-8550000D01*
X4190476Y-8540476D01*
X4342857Y-8721429D02*
X4352381Y-8730952D01*
X4342857Y-8740476D01*
X4333333Y-8730952D01*
X4342857Y-8721429D01*
X4342857Y-8740476D01*
X4476190Y-8540476D02*
X4495238Y-8540476D01*
X4514286Y-8550000D01*
X4523810Y-8559524D01*
X4533333Y-8578571D01*
X4542857Y-8616667D01*
X4542857Y-8664286D01*
X4533333Y-8702381D01*
X4523810Y-8721429D01*
X4514286Y-8730952D01*
X4495238Y-8740476D01*
X4476190Y-8740476D01*
X4457143Y-8730952D01*
X4447619Y-8721429D01*
X4438095Y-8702381D01*
X4428571Y-8664286D01*
X4428571Y-8616667D01*
X4438095Y-8578571D01*
X4447619Y-8559524D01*
X4457143Y-8550000D01*
X4476190Y-8540476D01*
X4609524Y-8540476D02*
X4733333Y-8540476D01*
X4666667Y-8616667D01*
X4695238Y-8616667D01*
X4714286Y-8626190D01*
X4723810Y-8635714D01*
X4733333Y-8654762D01*
X4733333Y-8702381D01*
X4723810Y-8721429D01*
X4714286Y-8730952D01*
X4695238Y-8740476D01*
X4638095Y-8740476D01*
X4619048Y-8730952D01*
X4609524Y-8721429D01*
X4914286Y-8540476D02*
X4819048Y-8540476D01*
X4809524Y-8635714D01*
X4819048Y-8626190D01*
X4838095Y-8616667D01*
X4885714Y-8616667D01*
X4904762Y-8626190D01*
X4914286Y-8635714D01*
X4923810Y-8654762D01*
X4923810Y-8702381D01*
X4914286Y-8721429D01*
X4904762Y-8730952D01*
X4885714Y-8740476D01*
X4838095Y-8740476D01*
X4819048Y-8730952D01*
X4809524Y-8721429D01*
X5095238Y-8607143D02*
X5095238Y-8740476D01*
X5047619Y-8530952D02*
X5000000Y-8673810D01*
X5123810Y-8673810D01*
X5190476Y-8540476D02*
X5190476Y-8578571D01*
X5266667Y-8540476D02*
X5266667Y-8578571D01*
X5561905Y-8816667D02*
X5552381Y-8807143D01*
X5533333Y-8778571D01*
X5523810Y-8759524D01*
X5514286Y-8730952D01*
X5504762Y-8683333D01*
X5504762Y-8645238D01*
X5514286Y-8597619D01*
X5523810Y-8569048D01*
X5533333Y-8550000D01*
X5552381Y-8521429D01*
X5561905Y-8511905D01*
X5628571Y-8559524D02*
X5638095Y-8550000D01*
X5657143Y-8540476D01*
X5704762Y-8540476D01*
X5723809Y-8550000D01*
X5733333Y-8559524D01*
X5742857Y-8578571D01*
X5742857Y-8597619D01*
X5733333Y-8626190D01*
X5619048Y-8740476D01*
X5742857Y-8740476D01*
X5980952Y-8740476D02*
X5980952Y-8540476D01*
X6066667Y-8740476D02*
X6066667Y-8635714D01*
X6057143Y-8616667D01*
X6038095Y-8607143D01*
X6009524Y-8607143D01*
X5990476Y-8616667D01*
X5980952Y-8626190D01*
X6190476Y-8740476D02*
X6171428Y-8730952D01*
X6161905Y-8721429D01*
X6152381Y-8702381D01*
X6152381Y-8645238D01*
X6161905Y-8626190D01*
X6171428Y-8616667D01*
X6190476Y-8607143D01*
X6219048Y-8607143D01*
X6238095Y-8616667D01*
X6247619Y-8626190D01*
X6257143Y-8645238D01*
X6257143Y-8702381D01*
X6247619Y-8721429D01*
X6238095Y-8730952D01*
X6219048Y-8740476D01*
X6190476Y-8740476D01*
X6371428Y-8740476D02*
X6352381Y-8730952D01*
X6342857Y-8711905D01*
X6342857Y-8540476D01*
X6523809Y-8730952D02*
X6504762Y-8740476D01*
X6466667Y-8740476D01*
X6447619Y-8730952D01*
X6438095Y-8711905D01*
X6438095Y-8635714D01*
X6447619Y-8616667D01*
X6466667Y-8607143D01*
X6504762Y-8607143D01*
X6523809Y-8616667D01*
X6533333Y-8635714D01*
X6533333Y-8654762D01*
X6438095Y-8673810D01*
X6609524Y-8730952D02*
X6628571Y-8740476D01*
X6666667Y-8740476D01*
X6685714Y-8730952D01*
X6695238Y-8711905D01*
X6695238Y-8702381D01*
X6685714Y-8683333D01*
X6666667Y-8673810D01*
X6638095Y-8673810D01*
X6619048Y-8664286D01*
X6609524Y-8645238D01*
X6609524Y-8635714D01*
X6619048Y-8616667D01*
X6638095Y-8607143D01*
X6666667Y-8607143D01*
X6685714Y-8616667D01*
X6761905Y-8816667D02*
X6771428Y-8807143D01*
X6790476Y-8778571D01*
X6800000Y-8759524D01*
X6809524Y-8730952D01*
X6819048Y-8683333D01*
X6819048Y-8645238D01*
X6809524Y-8597619D01*
X6800000Y-8569048D01*
X6790476Y-8550000D01*
X6771428Y-8521429D01*
X6761905Y-8511905D01*
X7123809Y-8816667D02*
X7114286Y-8807143D01*
X7095238Y-8778571D01*
X7085714Y-8759524D01*
X7076190Y-8730952D01*
X7066667Y-8683333D01*
X7066667Y-8645238D01*
X7076190Y-8597619D01*
X7085714Y-8569048D01*
X7095238Y-8550000D01*
X7114286Y-8521429D01*
X7123809Y-8511905D01*
X7200000Y-8607143D02*
X7200000Y-8740476D01*
X7200000Y-8626190D02*
X7209524Y-8616667D01*
X7228571Y-8607143D01*
X7257143Y-8607143D01*
X7276190Y-8616667D01*
X7285714Y-8635714D01*
X7285714Y-8740476D01*
X7409524Y-8740476D02*
X7390476Y-8730952D01*
X7380952Y-8721429D01*
X7371428Y-8702381D01*
X7371428Y-8645238D01*
X7380952Y-8626190D01*
X7390476Y-8616667D01*
X7409524Y-8607143D01*
X7438095Y-8607143D01*
X7457143Y-8616667D01*
X7466667Y-8626190D01*
X7476190Y-8645238D01*
X7476190Y-8702381D01*
X7466667Y-8721429D01*
X7457143Y-8730952D01*
X7438095Y-8740476D01*
X7409524Y-8740476D01*
X7533333Y-8607143D02*
X7609524Y-8607143D01*
X7561905Y-8540476D02*
X7561905Y-8711905D01*
X7571428Y-8730952D01*
X7590476Y-8740476D01*
X7609524Y-8740476D01*
X7828571Y-8607143D02*
X7828571Y-8807143D01*
X7828571Y-8616667D02*
X7847619Y-8607143D01*
X7885714Y-8607143D01*
X7904762Y-8616667D01*
X7914286Y-8626190D01*
X7923809Y-8645238D01*
X7923809Y-8702381D01*
X7914286Y-8721429D01*
X7904762Y-8730952D01*
X7885714Y-8740476D01*
X7847619Y-8740476D01*
X7828571Y-8730952D01*
X8038095Y-8740476D02*
X8019048Y-8730952D01*
X8009524Y-8711905D01*
X8009524Y-8540476D01*
X8200000Y-8740476D02*
X8200000Y-8635714D01*
X8190476Y-8616667D01*
X8171428Y-8607143D01*
X8133333Y-8607143D01*
X8114286Y-8616667D01*
X8200000Y-8730952D02*
X8180952Y-8740476D01*
X8133333Y-8740476D01*
X8114286Y-8730952D01*
X8104762Y-8711905D01*
X8104762Y-8692857D01*
X8114286Y-8673810D01*
X8133333Y-8664286D01*
X8180952Y-8664286D01*
X8200000Y-8654762D01*
X8266667Y-8607143D02*
X8342857Y-8607143D01*
X8295238Y-8540476D02*
X8295238Y-8711905D01*
X8304762Y-8730952D01*
X8323809Y-8740476D01*
X8342857Y-8740476D01*
X8485714Y-8730952D02*
X8466667Y-8740476D01*
X8428571Y-8740476D01*
X8409524Y-8730952D01*
X8400000Y-8711905D01*
X8400000Y-8635714D01*
X8409524Y-8616667D01*
X8428571Y-8607143D01*
X8466667Y-8607143D01*
X8485714Y-8616667D01*
X8495238Y-8635714D01*
X8495238Y-8654762D01*
X8400000Y-8673810D01*
X8666667Y-8740476D02*
X8666667Y-8540476D01*
X8666667Y-8730952D02*
X8647619Y-8740476D01*
X8609524Y-8740476D01*
X8590476Y-8730952D01*
X8580952Y-8721429D01*
X8571429Y-8702381D01*
X8571429Y-8645238D01*
X8580952Y-8626190D01*
X8590476Y-8616667D01*
X8609524Y-8607143D01*
X8647619Y-8607143D01*
X8666667Y-8616667D01*
X8742857Y-8816667D02*
X8752381Y-8807143D01*
X8771429Y-8778571D01*
X8780952Y-8759524D01*
X8790476Y-8730952D01*
X8800000Y-8683333D01*
X8800000Y-8645238D01*
X8790476Y-8597619D01*
X8780952Y-8569048D01*
X8771429Y-8550000D01*
X8752381Y-8521429D01*
X8742857Y-8511905D01*
M02*
