G04 #@! TF.GenerationSoftware,KiCad,Pcbnew,6.0.10-86aedd382b~118~ubuntu22.10.1*
G04 #@! TF.CreationDate,2023-02-02T20:30:57+01:00*
G04 #@! TF.ProjectId,FPGHat,46504748-6174-42e6-9b69-6361645f7063,rev?*
G04 #@! TF.SameCoordinates,Original*
G04 #@! TF.FileFunction,Soldermask,Bot*
G04 #@! TF.FilePolarity,Negative*
%FSLAX46Y46*%
G04 Gerber Fmt 4.6, Leading zero omitted, Abs format (unit mm)*
G04 Created by KiCad (PCBNEW 6.0.10-86aedd382b~118~ubuntu22.10.1) date 2023-02-02 20:30:57*
%MOMM*%
%LPD*%
G01*
G04 APERTURE LIST*
G04 Aperture macros list*
%AMRoundRect*
0 Rectangle with rounded corners*
0 $1 Rounding radius*
0 $2 $3 $4 $5 $6 $7 $8 $9 X,Y pos of 4 corners*
0 Add a 4 corners polygon primitive as box body*
4,1,4,$2,$3,$4,$5,$6,$7,$8,$9,$2,$3,0*
0 Add four circle primitives for the rounded corners*
1,1,$1+$1,$2,$3*
1,1,$1+$1,$4,$5*
1,1,$1+$1,$6,$7*
1,1,$1+$1,$8,$9*
0 Add four rect primitives between the rounded corners*
20,1,$1+$1,$2,$3,$4,$5,0*
20,1,$1+$1,$4,$5,$6,$7,0*
20,1,$1+$1,$6,$7,$8,$9,0*
20,1,$1+$1,$8,$9,$2,$3,0*%
G04 Aperture macros list end*
%ADD10RoundRect,0.375000X-0.375000X-0.375000X0.375000X-0.375000X0.375000X0.375000X-0.375000X0.375000X0*%
%ADD11C,1.500000*%
%ADD12C,0.900000*%
%ADD13RoundRect,0.500000X0.400000X0.000000X0.400000X0.000000X-0.400000X0.000000X-0.400000X0.000000X0*%
%ADD14O,1.727200X1.727200*%
%ADD15R,1.727200X1.727200*%
%ADD16RoundRect,0.249999X0.450001X1.450001X-0.450001X1.450001X-0.450001X-1.450001X0.450001X-1.450001X0*%
%ADD17RoundRect,0.135000X-0.135000X-0.185000X0.135000X-0.185000X0.135000X0.185000X-0.135000X0.185000X0*%
%ADD18RoundRect,0.225000X-0.250000X0.225000X-0.250000X-0.225000X0.250000X-0.225000X0.250000X0.225000X0*%
%ADD19RoundRect,0.140000X0.140000X0.170000X-0.140000X0.170000X-0.140000X-0.170000X0.140000X-0.170000X0*%
%ADD20RoundRect,0.135000X-0.185000X0.135000X-0.185000X-0.135000X0.185000X-0.135000X0.185000X0.135000X0*%
%ADD21RoundRect,0.135000X0.185000X-0.135000X0.185000X0.135000X-0.185000X0.135000X-0.185000X-0.135000X0*%
%ADD22RoundRect,0.075000X-0.662500X-0.075000X0.662500X-0.075000X0.662500X0.075000X-0.662500X0.075000X0*%
%ADD23RoundRect,0.075000X-0.075000X-0.662500X0.075000X-0.662500X0.075000X0.662500X-0.075000X0.662500X0*%
%ADD24RoundRect,0.140000X-0.170000X0.140000X-0.170000X-0.140000X0.170000X-0.140000X0.170000X0.140000X0*%
%ADD25RoundRect,0.140000X0.170000X-0.140000X0.170000X0.140000X-0.170000X0.140000X-0.170000X-0.140000X0*%
%ADD26RoundRect,0.249999X-1.450001X0.450001X-1.450001X-0.450001X1.450001X-0.450001X1.450001X0.450001X0*%
%ADD27R,0.600000X1.500000*%
%ADD28RoundRect,0.135000X0.135000X0.185000X-0.135000X0.185000X-0.135000X-0.185000X0.135000X-0.185000X0*%
%ADD29RoundRect,0.140000X-0.140000X-0.170000X0.140000X-0.170000X0.140000X0.170000X-0.140000X0.170000X0*%
%ADD30R,0.300000X0.800000*%
%ADD31RoundRect,0.150000X0.825000X0.150000X-0.825000X0.150000X-0.825000X-0.150000X0.825000X-0.150000X0*%
%ADD32R,1.900000X1.600000*%
%ADD33RoundRect,0.250000X-0.325000X-1.100000X0.325000X-1.100000X0.325000X1.100000X-0.325000X1.100000X0*%
%ADD34RoundRect,0.150000X0.512500X0.150000X-0.512500X0.150000X-0.512500X-0.150000X0.512500X-0.150000X0*%
%ADD35RoundRect,0.218750X-0.218750X-0.256250X0.218750X-0.256250X0.218750X0.256250X-0.218750X0.256250X0*%
%ADD36RoundRect,0.150000X-0.512500X-0.150000X0.512500X-0.150000X0.512500X0.150000X-0.512500X0.150000X0*%
%ADD37R,1.500000X3.560000*%
%ADD38R,1.500000X3.600000*%
%ADD39RoundRect,0.250000X-0.850000X0.375000X-0.850000X-0.375000X0.850000X-0.375000X0.850000X0.375000X0*%
%ADD40R,0.800000X0.300000*%
%ADD41RoundRect,0.250000X0.325000X1.100000X-0.325000X1.100000X-0.325000X-1.100000X0.325000X-1.100000X0*%
G04 APERTURE END LIST*
D10*
X23000000Y-40894000D03*
D11*
X23000000Y-43434000D03*
X23000000Y-45974000D03*
X23000000Y-48514000D03*
X23000000Y-51054000D03*
X23000000Y-53594000D03*
X23000000Y-56134000D03*
X23000000Y-58674000D03*
X33160000Y-58674000D03*
X33160000Y-53594000D03*
X33160000Y-48514000D03*
X33160000Y-45974000D03*
X33160000Y-43434000D03*
X33160000Y-40894000D03*
D12*
X24300000Y-77500000D03*
X31100000Y-77500000D03*
D13*
X73800000Y-44380000D03*
X77800000Y-44380000D03*
X77800000Y-55620000D03*
X73800000Y-55620000D03*
D14*
X35649000Y-74130000D03*
X43269000Y-74130000D03*
X45809000Y-74130000D03*
X58509000Y-74130000D03*
X61049000Y-74130000D03*
X63589000Y-74130000D03*
X66129000Y-74130000D03*
X68669000Y-74130000D03*
X71209000Y-74130000D03*
X31585000Y-25870000D03*
X71209000Y-25870000D03*
X68669000Y-25870000D03*
X66129000Y-25870000D03*
X63589000Y-25870000D03*
X61049000Y-25870000D03*
X58509000Y-25870000D03*
X55969000Y-25870000D03*
X53429000Y-25870000D03*
X49365000Y-25870000D03*
X46825000Y-25870000D03*
X44285000Y-25870000D03*
X41745000Y-25870000D03*
X39205000Y-25870000D03*
X36665000Y-25870000D03*
D15*
X34125000Y-25870000D03*
X48349000Y-74130000D03*
X50889000Y-74130000D03*
D14*
X38189000Y-74130000D03*
X40729000Y-74130000D03*
X26505000Y-25870000D03*
X29045000Y-25870000D03*
X53429000Y-74130000D03*
D16*
X76550000Y-67100000D03*
X72450000Y-67100000D03*
D17*
X24990000Y-43400000D03*
X26010000Y-43400000D03*
D18*
X36550000Y-45900000D03*
X36550000Y-47450000D03*
D19*
X67200000Y-59700000D03*
X66240000Y-59700000D03*
D20*
X62050000Y-28040000D03*
X62050000Y-29060000D03*
D21*
X25300000Y-34310000D03*
X25300000Y-33290000D03*
D22*
X39337500Y-58750000D03*
X39337500Y-58250000D03*
X39337500Y-57750000D03*
X39337500Y-57250000D03*
X39337500Y-56750000D03*
X39337500Y-56250000D03*
X39337500Y-55750000D03*
X39337500Y-55250000D03*
X39337500Y-54750000D03*
X39337500Y-54250000D03*
X39337500Y-53750000D03*
X39337500Y-53250000D03*
X39337500Y-52750000D03*
X39337500Y-52250000D03*
X39337500Y-51750000D03*
X39337500Y-51250000D03*
X39337500Y-50750000D03*
X39337500Y-50250000D03*
X39337500Y-49750000D03*
X39337500Y-49250000D03*
X39337500Y-48750000D03*
X39337500Y-48250000D03*
X39337500Y-47750000D03*
X39337500Y-47250000D03*
X39337500Y-46750000D03*
X39337500Y-46250000D03*
X39337500Y-45750000D03*
X39337500Y-45250000D03*
X39337500Y-44750000D03*
X39337500Y-44250000D03*
X39337500Y-43750000D03*
X39337500Y-43250000D03*
X39337500Y-42750000D03*
X39337500Y-42250000D03*
X39337500Y-41750000D03*
X39337500Y-41250000D03*
D23*
X41250000Y-39337500D03*
X41750000Y-39337500D03*
X42250000Y-39337500D03*
X42750000Y-39337500D03*
X43250000Y-39337500D03*
X43750000Y-39337500D03*
X44250000Y-39337500D03*
X44750000Y-39337500D03*
X45250000Y-39337500D03*
X45750000Y-39337500D03*
X46250000Y-39337500D03*
X46750000Y-39337500D03*
X47250000Y-39337500D03*
X47750000Y-39337500D03*
X48250000Y-39337500D03*
X48750000Y-39337500D03*
X49250000Y-39337500D03*
X49750000Y-39337500D03*
X50250000Y-39337500D03*
X50750000Y-39337500D03*
X51250000Y-39337500D03*
X51750000Y-39337500D03*
X52250000Y-39337500D03*
X52750000Y-39337500D03*
X53250000Y-39337500D03*
X53750000Y-39337500D03*
X54250000Y-39337500D03*
X54750000Y-39337500D03*
X55250000Y-39337500D03*
X55750000Y-39337500D03*
X56250000Y-39337500D03*
X56750000Y-39337500D03*
X57250000Y-39337500D03*
X57750000Y-39337500D03*
X58250000Y-39337500D03*
X58750000Y-39337500D03*
D22*
X60662500Y-41250000D03*
X60662500Y-41750000D03*
X60662500Y-42250000D03*
X60662500Y-42750000D03*
X60662500Y-43250000D03*
X60662500Y-43750000D03*
X60662500Y-44250000D03*
X60662500Y-44750000D03*
X60662500Y-45250000D03*
X60662500Y-45750000D03*
X60662500Y-46250000D03*
X60662500Y-46750000D03*
X60662500Y-47250000D03*
X60662500Y-47750000D03*
X60662500Y-48250000D03*
X60662500Y-48750000D03*
X60662500Y-49250000D03*
X60662500Y-49750000D03*
X60662500Y-50250000D03*
X60662500Y-50750000D03*
X60662500Y-51250000D03*
X60662500Y-51750000D03*
X60662500Y-52250000D03*
X60662500Y-52750000D03*
X60662500Y-53250000D03*
X60662500Y-53750000D03*
X60662500Y-54250000D03*
X60662500Y-54750000D03*
X60662500Y-55250000D03*
X60662500Y-55750000D03*
X60662500Y-56250000D03*
X60662500Y-56750000D03*
X60662500Y-57250000D03*
X60662500Y-57750000D03*
X60662500Y-58250000D03*
X60662500Y-58750000D03*
D23*
X58750000Y-60662500D03*
X58250000Y-60662500D03*
X57750000Y-60662500D03*
X57250000Y-60662500D03*
X56750000Y-60662500D03*
X56250000Y-60662500D03*
X55750000Y-60662500D03*
X55250000Y-60662500D03*
X54750000Y-60662500D03*
X54250000Y-60662500D03*
X53750000Y-60662500D03*
X53250000Y-60662500D03*
X52750000Y-60662500D03*
X52250000Y-60662500D03*
X51750000Y-60662500D03*
X51250000Y-60662500D03*
X50750000Y-60662500D03*
X50250000Y-60662500D03*
X49750000Y-60662500D03*
X49250000Y-60662500D03*
X48750000Y-60662500D03*
X48250000Y-60662500D03*
X47750000Y-60662500D03*
X47250000Y-60662500D03*
X46750000Y-60662500D03*
X46250000Y-60662500D03*
X45750000Y-60662500D03*
X45250000Y-60662500D03*
X44750000Y-60662500D03*
X44250000Y-60662500D03*
X43750000Y-60662500D03*
X43250000Y-60662500D03*
X42750000Y-60662500D03*
X42250000Y-60662500D03*
X41750000Y-60662500D03*
X41250000Y-60662500D03*
D20*
X27114284Y-67590000D03*
X27114284Y-68610000D03*
D24*
X37800000Y-45695000D03*
X37800000Y-46655000D03*
D20*
X35450000Y-40740000D03*
X35450000Y-41760000D03*
D19*
X31500000Y-40100000D03*
X30540000Y-40100000D03*
D20*
X59850000Y-71040000D03*
X59850000Y-72060000D03*
D25*
X62150000Y-49180000D03*
X62150000Y-48220000D03*
D21*
X69750000Y-65360000D03*
X69750000Y-64340000D03*
D17*
X24990000Y-58600000D03*
X26010000Y-58600000D03*
D24*
X67450000Y-31120000D03*
X67450000Y-32080000D03*
D20*
X37700000Y-28040000D03*
X37700000Y-29060000D03*
D24*
X22600000Y-35470000D03*
X22600000Y-36430000D03*
D20*
X57000000Y-28040000D03*
X57000000Y-29060000D03*
D26*
X69950000Y-31100000D03*
X69950000Y-35200000D03*
D20*
X62370000Y-71040000D03*
X62370000Y-72060000D03*
D17*
X24990000Y-53550000D03*
X26010000Y-53550000D03*
D20*
X67410000Y-71040000D03*
X67410000Y-72060000D03*
D17*
X24990000Y-41000000D03*
X26010000Y-41000000D03*
D19*
X57580000Y-62300000D03*
X56620000Y-62300000D03*
D27*
X64900000Y-39175000D03*
X63630000Y-39175000D03*
X62360000Y-39175000D03*
X61090000Y-39175000D03*
X61090000Y-33575000D03*
X62360000Y-33575000D03*
X63630000Y-33575000D03*
X64900000Y-33575000D03*
D20*
X50350000Y-28040000D03*
X50350000Y-29060000D03*
X45350000Y-28040000D03*
X45350000Y-29060000D03*
D24*
X29600000Y-37370000D03*
X29600000Y-38330000D03*
D20*
X40300000Y-28040000D03*
X40300000Y-29060000D03*
D17*
X73540000Y-39750000D03*
X74560000Y-39750000D03*
D28*
X69720000Y-63300000D03*
X68700000Y-63300000D03*
D20*
X42700000Y-28040000D03*
X42700000Y-29060000D03*
D29*
X51370000Y-62300000D03*
X52330000Y-62300000D03*
D25*
X26300000Y-31710000D03*
X26300000Y-30750000D03*
X74859528Y-70580000D03*
X74859528Y-69620000D03*
D20*
X30657140Y-67590000D03*
X30657140Y-68610000D03*
D24*
X37800000Y-56000000D03*
X37800000Y-56960000D03*
D25*
X66200000Y-34010000D03*
X66200000Y-33050000D03*
D19*
X72130000Y-38690000D03*
X71170000Y-38690000D03*
D20*
X21800000Y-67590000D03*
X21800000Y-68610000D03*
D21*
X69700000Y-29060000D03*
X69700000Y-28040000D03*
D29*
X50870000Y-37750000D03*
X51830000Y-37750000D03*
D30*
X26250000Y-38650000D03*
X25750000Y-38650000D03*
X25250000Y-38650000D03*
X24750000Y-38650000D03*
X24750000Y-35550000D03*
X25250000Y-35550000D03*
X25750000Y-35550000D03*
X26250000Y-35550000D03*
D31*
X33025000Y-31745000D03*
X33025000Y-33015000D03*
X33025000Y-34285000D03*
X33025000Y-35555000D03*
X28075000Y-35555000D03*
X28075000Y-34285000D03*
X28075000Y-33015000D03*
X28075000Y-31745000D03*
D17*
X24990000Y-48500000D03*
X26010000Y-48500000D03*
D20*
X59600000Y-28040000D03*
X59600000Y-29060000D03*
D32*
X73500000Y-59350000D03*
X73500000Y-63650000D03*
D20*
X67150000Y-28040000D03*
X67150000Y-29060000D03*
D33*
X67575000Y-57550000D03*
X70525000Y-57550000D03*
D20*
X28550000Y-37290000D03*
X28550000Y-38310000D03*
X28885712Y-67590000D03*
X28885712Y-68610000D03*
D24*
X37850000Y-40950000D03*
X37850000Y-41910000D03*
D20*
X34200000Y-67590000D03*
X34200000Y-68610000D03*
X69930000Y-71040000D03*
X69930000Y-72060000D03*
D34*
X70887500Y-60050000D03*
X70887500Y-61000000D03*
X70887500Y-61950000D03*
X68612500Y-61950000D03*
X68612500Y-60050000D03*
D20*
X64600000Y-28040000D03*
X64600000Y-29060000D03*
D21*
X25300000Y-31260000D03*
X25300000Y-30240000D03*
D20*
X23571428Y-67590000D03*
X23571428Y-68610000D03*
D19*
X48180000Y-37800000D03*
X47220000Y-37800000D03*
D17*
X54530000Y-36000000D03*
X55550000Y-36000000D03*
D20*
X32428568Y-67590000D03*
X32428568Y-68610000D03*
X25342856Y-67590000D03*
X25342856Y-68610000D03*
D28*
X66020000Y-40700000D03*
X65000000Y-40700000D03*
D20*
X57330000Y-71040000D03*
X57330000Y-72060000D03*
X47800000Y-28040000D03*
X47800000Y-29060000D03*
D35*
X62550000Y-58200000D03*
X64125000Y-58200000D03*
D36*
X73562500Y-38400000D03*
X73562500Y-37450000D03*
X73562500Y-36500000D03*
X75837500Y-36500000D03*
X75837500Y-38400000D03*
D37*
X78550000Y-33200000D03*
D38*
X73050000Y-33200000D03*
D28*
X31510000Y-41150000D03*
X30490000Y-41150000D03*
D29*
X45320000Y-37800000D03*
X46280000Y-37800000D03*
X62170000Y-50850000D03*
X63130000Y-50850000D03*
D18*
X36650000Y-40550000D03*
X36650000Y-42100000D03*
D21*
X72450000Y-29060000D03*
X72450000Y-28040000D03*
D39*
X76600000Y-61825000D03*
X76600000Y-63975000D03*
D20*
X23650000Y-35440000D03*
X23650000Y-36460000D03*
D40*
X34000000Y-37550000D03*
X34000000Y-38050000D03*
X34000000Y-38550000D03*
X34000000Y-39050000D03*
X30900000Y-39050000D03*
X30900000Y-38550000D03*
X30900000Y-38050000D03*
X30900000Y-37550000D03*
D25*
X26300000Y-34310000D03*
X26300000Y-33350000D03*
D20*
X64890000Y-71040000D03*
X64890000Y-72060000D03*
D41*
X72150000Y-40850000D03*
X69200000Y-40850000D03*
D20*
X54200000Y-28040000D03*
X54200000Y-29060000D03*
M02*
