G04 #@! TF.GenerationSoftware,KiCad,Pcbnew,6.0.10-86aedd382b~118~ubuntu22.10.1*
G04 #@! TF.CreationDate,2023-02-02T20:30:57+01:00*
G04 #@! TF.ProjectId,FPGHat,46504748-6174-42e6-9b69-6361645f7063,rev?*
G04 #@! TF.SameCoordinates,Original*
G04 #@! TF.FileFunction,Legend,Bot*
G04 #@! TF.FilePolarity,Positive*
%FSLAX46Y46*%
G04 Gerber Fmt 4.6, Leading zero omitted, Abs format (unit mm)*
G04 Created by KiCad (PCBNEW 6.0.10-86aedd382b~118~ubuntu22.10.1) date 2023-02-02 20:30:57*
%MOMM*%
%LPD*%
G01*
G04 APERTURE LIST*
G04 Aperture macros list*
%AMRoundRect*
0 Rectangle with rounded corners*
0 $1 Rounding radius*
0 $2 $3 $4 $5 $6 $7 $8 $9 X,Y pos of 4 corners*
0 Add a 4 corners polygon primitive as box body*
4,1,4,$2,$3,$4,$5,$6,$7,$8,$9,$2,$3,0*
0 Add four circle primitives for the rounded corners*
1,1,$1+$1,$2,$3*
1,1,$1+$1,$4,$5*
1,1,$1+$1,$6,$7*
1,1,$1+$1,$8,$9*
0 Add four rect primitives between the rounded corners*
20,1,$1+$1,$2,$3,$4,$5,0*
20,1,$1+$1,$4,$5,$6,$7,0*
20,1,$1+$1,$6,$7,$8,$9,0*
20,1,$1+$1,$8,$9,$2,$3,0*%
G04 Aperture macros list end*
%ADD10C,0.200000*%
%ADD11C,0.150000*%
%ADD12C,0.120000*%
%ADD13RoundRect,0.375000X-0.375000X-0.375000X0.375000X-0.375000X0.375000X0.375000X-0.375000X0.375000X0*%
%ADD14C,1.500000*%
%ADD15C,0.900000*%
%ADD16RoundRect,0.500000X0.400000X0.000000X0.400000X0.000000X-0.400000X0.000000X-0.400000X0.000000X0*%
%ADD17O,1.727200X1.727200*%
%ADD18R,1.727200X1.727200*%
%ADD19RoundRect,0.249999X0.450001X1.450001X-0.450001X1.450001X-0.450001X-1.450001X0.450001X-1.450001X0*%
%ADD20RoundRect,0.135000X-0.135000X-0.185000X0.135000X-0.185000X0.135000X0.185000X-0.135000X0.185000X0*%
%ADD21RoundRect,0.225000X-0.250000X0.225000X-0.250000X-0.225000X0.250000X-0.225000X0.250000X0.225000X0*%
%ADD22RoundRect,0.140000X0.140000X0.170000X-0.140000X0.170000X-0.140000X-0.170000X0.140000X-0.170000X0*%
%ADD23RoundRect,0.135000X-0.185000X0.135000X-0.185000X-0.135000X0.185000X-0.135000X0.185000X0.135000X0*%
%ADD24RoundRect,0.135000X0.185000X-0.135000X0.185000X0.135000X-0.185000X0.135000X-0.185000X-0.135000X0*%
%ADD25RoundRect,0.075000X-0.662500X-0.075000X0.662500X-0.075000X0.662500X0.075000X-0.662500X0.075000X0*%
%ADD26RoundRect,0.075000X-0.075000X-0.662500X0.075000X-0.662500X0.075000X0.662500X-0.075000X0.662500X0*%
%ADD27RoundRect,0.140000X-0.170000X0.140000X-0.170000X-0.140000X0.170000X-0.140000X0.170000X0.140000X0*%
%ADD28RoundRect,0.140000X0.170000X-0.140000X0.170000X0.140000X-0.170000X0.140000X-0.170000X-0.140000X0*%
%ADD29RoundRect,0.249999X-1.450001X0.450001X-1.450001X-0.450001X1.450001X-0.450001X1.450001X0.450001X0*%
%ADD30R,0.600000X1.500000*%
%ADD31RoundRect,0.135000X0.135000X0.185000X-0.135000X0.185000X-0.135000X-0.185000X0.135000X-0.185000X0*%
%ADD32RoundRect,0.140000X-0.140000X-0.170000X0.140000X-0.170000X0.140000X0.170000X-0.140000X0.170000X0*%
%ADD33R,0.300000X0.800000*%
%ADD34RoundRect,0.150000X0.825000X0.150000X-0.825000X0.150000X-0.825000X-0.150000X0.825000X-0.150000X0*%
%ADD35R,1.900000X1.600000*%
%ADD36RoundRect,0.250000X-0.325000X-1.100000X0.325000X-1.100000X0.325000X1.100000X-0.325000X1.100000X0*%
%ADD37RoundRect,0.150000X0.512500X0.150000X-0.512500X0.150000X-0.512500X-0.150000X0.512500X-0.150000X0*%
%ADD38RoundRect,0.218750X-0.218750X-0.256250X0.218750X-0.256250X0.218750X0.256250X-0.218750X0.256250X0*%
%ADD39RoundRect,0.150000X-0.512500X-0.150000X0.512500X-0.150000X0.512500X0.150000X-0.512500X0.150000X0*%
%ADD40R,1.500000X3.560000*%
%ADD41R,1.500000X3.600000*%
%ADD42RoundRect,0.250000X-0.850000X0.375000X-0.850000X-0.375000X0.850000X-0.375000X0.850000X0.375000X0*%
%ADD43R,0.800000X0.300000*%
%ADD44RoundRect,0.250000X0.325000X1.100000X-0.325000X1.100000X-0.325000X-1.100000X0.325000X-1.100000X0*%
G04 APERTURE END LIST*
D10*
X45638095Y-54395238D02*
X45066666Y-54395238D01*
X44952380Y-54433333D01*
X44876190Y-54509523D01*
X44838095Y-54623809D01*
X44838095Y-54700000D01*
X44838095Y-53633333D02*
X44838095Y-54014285D01*
X45638095Y-54014285D01*
X44914285Y-52909523D02*
X44876190Y-52947619D01*
X44838095Y-53061904D01*
X44838095Y-53138095D01*
X44876190Y-53252380D01*
X44952380Y-53328571D01*
X45028571Y-53366666D01*
X45180952Y-53404761D01*
X45295238Y-53404761D01*
X45447619Y-53366666D01*
X45523809Y-53328571D01*
X45600000Y-53252380D01*
X45638095Y-53138095D01*
X45638095Y-53061904D01*
X45600000Y-52947619D01*
X45561904Y-52909523D01*
X45638095Y-52338095D02*
X45066666Y-52338095D01*
X44952380Y-52376190D01*
X44876190Y-52452380D01*
X44838095Y-52566666D01*
X44838095Y-52642857D01*
X44838095Y-51576190D02*
X44838095Y-51957142D01*
X45638095Y-51957142D01*
X44914285Y-50852380D02*
X44876190Y-50890476D01*
X44838095Y-51004761D01*
X44838095Y-51080952D01*
X44876190Y-51195238D01*
X44952380Y-51271428D01*
X45028571Y-51309523D01*
X45180952Y-51347619D01*
X45295238Y-51347619D01*
X45447619Y-51309523D01*
X45523809Y-51271428D01*
X45600000Y-51195238D01*
X45638095Y-51080952D01*
X45638095Y-51004761D01*
X45600000Y-50890476D01*
X45561904Y-50852380D01*
X45638095Y-50280952D02*
X45066666Y-50280952D01*
X44952380Y-50319047D01*
X44876190Y-50395238D01*
X44838095Y-50509523D01*
X44838095Y-50585714D01*
X44838095Y-49519047D02*
X44838095Y-49900000D01*
X45638095Y-49900000D01*
X44914285Y-48795238D02*
X44876190Y-48833333D01*
X44838095Y-48947619D01*
X44838095Y-49023809D01*
X44876190Y-49138095D01*
X44952380Y-49214285D01*
X45028571Y-49252380D01*
X45180952Y-49290476D01*
X45295238Y-49290476D01*
X45447619Y-49252380D01*
X45523809Y-49214285D01*
X45600000Y-49138095D01*
X45638095Y-49023809D01*
X45638095Y-48947619D01*
X45600000Y-48833333D01*
X45561904Y-48795238D01*
X45638095Y-48223809D02*
X45066666Y-48223809D01*
X44952380Y-48261904D01*
X44876190Y-48338095D01*
X44838095Y-48452380D01*
X44838095Y-48528571D01*
X44838095Y-47461904D02*
X44838095Y-47842857D01*
X45638095Y-47842857D01*
X44914285Y-46738095D02*
X44876190Y-46776190D01*
X44838095Y-46890476D01*
X44838095Y-46966666D01*
X44876190Y-47080952D01*
X44952380Y-47157142D01*
X45028571Y-47195238D01*
X45180952Y-47233333D01*
X45295238Y-47233333D01*
X45447619Y-47195238D01*
X45523809Y-47157142D01*
X45600000Y-47080952D01*
X45638095Y-46966666D01*
X45638095Y-46890476D01*
X45600000Y-46776190D01*
X45561904Y-46738095D01*
D11*
X29449761Y-21941142D02*
X29497380Y-22083999D01*
X29497380Y-22322094D01*
X29449761Y-22417332D01*
X29402142Y-22464951D01*
X29306904Y-22512570D01*
X29211666Y-22512570D01*
X29116428Y-22464951D01*
X29068809Y-22417332D01*
X29021190Y-22322094D01*
X28973571Y-22131618D01*
X28925952Y-22036380D01*
X28878333Y-21988761D01*
X28783095Y-21941142D01*
X28687857Y-21941142D01*
X28592619Y-21988761D01*
X28545000Y-22036380D01*
X28497380Y-22131618D01*
X28497380Y-22369713D01*
X28545000Y-22512570D01*
X29497380Y-22941142D02*
X28497380Y-22941142D01*
X28497380Y-23179237D01*
X28545000Y-23322094D01*
X28640238Y-23417332D01*
X28735476Y-23464951D01*
X28925952Y-23512570D01*
X29068809Y-23512570D01*
X29259285Y-23464951D01*
X29354523Y-23417332D01*
X29449761Y-23322094D01*
X29497380Y-23179237D01*
X29497380Y-22941142D01*
X29211666Y-23893523D02*
X29211666Y-24369713D01*
X29497380Y-23798285D02*
X28497380Y-24131618D01*
X29497380Y-24464951D01*
X58802666Y-75860619D02*
X58802666Y-76336809D01*
X59088380Y-75765381D02*
X58088380Y-76098714D01*
X59088380Y-76432047D01*
X58088380Y-76955857D02*
X58088380Y-77051095D01*
X58136000Y-77146333D01*
X58183619Y-77193952D01*
X58278857Y-77241571D01*
X58469333Y-77289190D01*
X58707428Y-77289190D01*
X58897904Y-77241571D01*
X58993142Y-77193952D01*
X59040761Y-77146333D01*
X59088380Y-77051095D01*
X59088380Y-76955857D01*
X59040761Y-76860619D01*
X58993142Y-76813000D01*
X58897904Y-76765381D01*
X58707428Y-76717762D01*
X58469333Y-76717762D01*
X58278857Y-76765381D01*
X58183619Y-76813000D01*
X58136000Y-76860619D01*
X58088380Y-76955857D01*
X71375666Y-75860619D02*
X71375666Y-76336809D01*
X71661380Y-75765381D02*
X70661380Y-76098714D01*
X71661380Y-76432047D01*
X70661380Y-77241571D02*
X70661380Y-76765381D01*
X71137571Y-76717762D01*
X71089952Y-76765381D01*
X71042333Y-76860619D01*
X71042333Y-77098714D01*
X71089952Y-77193952D01*
X71137571Y-77241571D01*
X71232809Y-77289190D01*
X71470904Y-77289190D01*
X71566142Y-77241571D01*
X71613761Y-77193952D01*
X71661380Y-77098714D01*
X71661380Y-76860619D01*
X71613761Y-76765381D01*
X71566142Y-76717762D01*
X61342666Y-75860619D02*
X61342666Y-76336809D01*
X61628380Y-75765381D02*
X60628380Y-76098714D01*
X61628380Y-76432047D01*
X61628380Y-77289190D02*
X61628380Y-76717762D01*
X61628380Y-77003476D02*
X60628380Y-77003476D01*
X60771238Y-76908238D01*
X60866476Y-76813000D01*
X60914095Y-76717762D01*
X37117380Y-21893523D02*
X36117380Y-21893523D01*
X36117380Y-22131618D01*
X36165000Y-22274475D01*
X36260238Y-22369713D01*
X36355476Y-22417332D01*
X36545952Y-22464951D01*
X36688809Y-22464951D01*
X36879285Y-22417332D01*
X36974523Y-22369713D01*
X37069761Y-22274475D01*
X37117380Y-22131618D01*
X37117380Y-21893523D01*
X37117380Y-23417332D02*
X37117380Y-22845904D01*
X37117380Y-23131618D02*
X36117380Y-23131618D01*
X36260238Y-23036380D01*
X36355476Y-22941142D01*
X36403095Y-22845904D01*
X36117380Y-23750666D02*
X36117380Y-24369713D01*
X36498333Y-24036380D01*
X36498333Y-24179237D01*
X36545952Y-24274475D01*
X36593571Y-24322094D01*
X36688809Y-24369713D01*
X36926904Y-24369713D01*
X37022142Y-24322094D01*
X37069761Y-24274475D01*
X37117380Y-24179237D01*
X37117380Y-23893523D01*
X37069761Y-23798285D01*
X37022142Y-23750666D01*
X66422666Y-75860619D02*
X66422666Y-76336809D01*
X66708380Y-75765381D02*
X65708380Y-76098714D01*
X66708380Y-76432047D01*
X65708380Y-76670143D02*
X65708380Y-77289190D01*
X66089333Y-76955857D01*
X66089333Y-77098714D01*
X66136952Y-77193952D01*
X66184571Y-77241571D01*
X66279809Y-77289190D01*
X66517904Y-77289190D01*
X66613142Y-77241571D01*
X66660761Y-77193952D01*
X66708380Y-77098714D01*
X66708380Y-76813000D01*
X66660761Y-76717762D01*
X66613142Y-76670143D01*
X50516000Y-76432048D02*
X50468380Y-76336810D01*
X50468380Y-76193953D01*
X50516000Y-76051095D01*
X50611238Y-75955857D01*
X50706476Y-75908238D01*
X50896952Y-75860619D01*
X51039809Y-75860619D01*
X51230285Y-75908238D01*
X51325523Y-75955857D01*
X51420761Y-76051095D01*
X51468380Y-76193953D01*
X51468380Y-76289191D01*
X51420761Y-76432048D01*
X51373142Y-76479667D01*
X51039809Y-76479667D01*
X51039809Y-76289191D01*
X51468380Y-76908238D02*
X50468380Y-76908238D01*
X51468380Y-77479667D01*
X50468380Y-77479667D01*
X51468380Y-77955857D02*
X50468380Y-77955857D01*
X50468380Y-78193953D01*
X50516000Y-78336810D01*
X50611238Y-78432048D01*
X50706476Y-78479667D01*
X50896952Y-78527286D01*
X51039809Y-78527286D01*
X51230285Y-78479667D01*
X51325523Y-78432048D01*
X51420761Y-78336810D01*
X51468380Y-78193953D01*
X51468380Y-77955857D01*
X33625000Y-22274476D02*
X33577380Y-22179238D01*
X33577380Y-22036381D01*
X33625000Y-21893523D01*
X33720238Y-21798285D01*
X33815476Y-21750666D01*
X34005952Y-21703047D01*
X34148809Y-21703047D01*
X34339285Y-21750666D01*
X34434523Y-21798285D01*
X34529761Y-21893523D01*
X34577380Y-22036381D01*
X34577380Y-22131619D01*
X34529761Y-22274476D01*
X34482142Y-22322095D01*
X34148809Y-22322095D01*
X34148809Y-22131619D01*
X34577380Y-22750666D02*
X33577380Y-22750666D01*
X34577380Y-23322095D01*
X33577380Y-23322095D01*
X34577380Y-23798285D02*
X33577380Y-23798285D01*
X33577380Y-24036381D01*
X33625000Y-24179238D01*
X33720238Y-24274476D01*
X33815476Y-24322095D01*
X34005952Y-24369714D01*
X34148809Y-24369714D01*
X34339285Y-24322095D01*
X34434523Y-24274476D01*
X34529761Y-24179238D01*
X34577380Y-24036381D01*
X34577380Y-23798285D01*
X61501380Y-22845904D02*
X60501380Y-22845904D01*
X60501380Y-23084000D01*
X60549000Y-23226857D01*
X60644238Y-23322095D01*
X60739476Y-23369714D01*
X60929952Y-23417333D01*
X61072809Y-23417333D01*
X61263285Y-23369714D01*
X61358523Y-23322095D01*
X61453761Y-23226857D01*
X61501380Y-23084000D01*
X61501380Y-22845904D01*
X60834714Y-24274476D02*
X61501380Y-24274476D01*
X60453761Y-24036380D02*
X61168047Y-23798285D01*
X61168047Y-24417333D01*
X44737380Y-21893523D02*
X43737380Y-21893523D01*
X43737380Y-22131618D01*
X43785000Y-22274475D01*
X43880238Y-22369713D01*
X43975476Y-22417332D01*
X44165952Y-22464951D01*
X44308809Y-22464951D01*
X44499285Y-22417332D01*
X44594523Y-22369713D01*
X44689761Y-22274475D01*
X44737380Y-22131618D01*
X44737380Y-21893523D01*
X44737380Y-23417332D02*
X44737380Y-22845904D01*
X44737380Y-23131618D02*
X43737380Y-23131618D01*
X43880238Y-23036380D01*
X43975476Y-22941142D01*
X44023095Y-22845904D01*
X43737380Y-24036380D02*
X43737380Y-24131618D01*
X43785000Y-24226856D01*
X43832619Y-24274475D01*
X43927857Y-24322094D01*
X44118333Y-24369713D01*
X44356428Y-24369713D01*
X44546904Y-24322094D01*
X44642142Y-24274475D01*
X44689761Y-24226856D01*
X44737380Y-24131618D01*
X44737380Y-24036380D01*
X44689761Y-23941142D01*
X44642142Y-23893523D01*
X44546904Y-23845904D01*
X44356428Y-23798285D01*
X44118333Y-23798285D01*
X43927857Y-23845904D01*
X43832619Y-23893523D01*
X43785000Y-23941142D01*
X43737380Y-24036380D01*
X42197380Y-21893523D02*
X41197380Y-21893523D01*
X41197380Y-22131618D01*
X41245000Y-22274475D01*
X41340238Y-22369713D01*
X41435476Y-22417332D01*
X41625952Y-22464951D01*
X41768809Y-22464951D01*
X41959285Y-22417332D01*
X42054523Y-22369713D01*
X42149761Y-22274475D01*
X42197380Y-22131618D01*
X42197380Y-21893523D01*
X42197380Y-23417332D02*
X42197380Y-22845904D01*
X42197380Y-23131618D02*
X41197380Y-23131618D01*
X41340238Y-23036380D01*
X41435476Y-22941142D01*
X41483095Y-22845904D01*
X42197380Y-24369713D02*
X42197380Y-23798285D01*
X42197380Y-24083999D02*
X41197380Y-24083999D01*
X41340238Y-23988761D01*
X41435476Y-23893523D01*
X41483095Y-23798285D01*
X31751666Y-21234761D02*
X31751666Y-21710951D01*
X32037380Y-21139523D02*
X31037380Y-21472856D01*
X32037380Y-21806189D01*
X32037380Y-22710951D02*
X31561190Y-22377618D01*
X32037380Y-22139523D02*
X31037380Y-22139523D01*
X31037380Y-22520475D01*
X31085000Y-22615713D01*
X31132619Y-22663332D01*
X31227857Y-22710951D01*
X31370714Y-22710951D01*
X31465952Y-22663332D01*
X31513571Y-22615713D01*
X31561190Y-22520475D01*
X31561190Y-22139523D01*
X31513571Y-23139523D02*
X31513571Y-23472856D01*
X32037380Y-23615713D02*
X32037380Y-23139523D01*
X31037380Y-23139523D01*
X31037380Y-23615713D01*
X31513571Y-24377618D02*
X31513571Y-24044285D01*
X32037380Y-24044285D02*
X31037380Y-24044285D01*
X31037380Y-24520475D01*
X39657380Y-21893523D02*
X38657380Y-21893523D01*
X38657380Y-22131618D01*
X38705000Y-22274475D01*
X38800238Y-22369713D01*
X38895476Y-22417332D01*
X39085952Y-22464951D01*
X39228809Y-22464951D01*
X39419285Y-22417332D01*
X39514523Y-22369713D01*
X39609761Y-22274475D01*
X39657380Y-22131618D01*
X39657380Y-21893523D01*
X39657380Y-23417332D02*
X39657380Y-22845904D01*
X39657380Y-23131618D02*
X38657380Y-23131618D01*
X38800238Y-23036380D01*
X38895476Y-22941142D01*
X38943095Y-22845904D01*
X38752619Y-23798285D02*
X38705000Y-23845904D01*
X38657380Y-23941142D01*
X38657380Y-24179237D01*
X38705000Y-24274475D01*
X38752619Y-24322094D01*
X38847857Y-24369713D01*
X38943095Y-24369713D01*
X39085952Y-24322094D01*
X39657380Y-23750666D01*
X39657380Y-24369713D01*
X26909761Y-21988761D02*
X26957380Y-22131618D01*
X26957380Y-22369714D01*
X26909761Y-22464952D01*
X26862142Y-22512571D01*
X26766904Y-22560190D01*
X26671666Y-22560190D01*
X26576428Y-22512571D01*
X26528809Y-22464952D01*
X26481190Y-22369714D01*
X26433571Y-22179238D01*
X26385952Y-22083999D01*
X26338333Y-22036380D01*
X26243095Y-21988761D01*
X26147857Y-21988761D01*
X26052619Y-22036380D01*
X26005000Y-22083999D01*
X25957380Y-22179238D01*
X25957380Y-22417333D01*
X26005000Y-22560190D01*
X26862142Y-23560190D02*
X26909761Y-23512571D01*
X26957380Y-23369714D01*
X26957380Y-23274476D01*
X26909761Y-23131618D01*
X26814523Y-23036380D01*
X26719285Y-22988761D01*
X26528809Y-22941142D01*
X26385952Y-22941142D01*
X26195476Y-22988761D01*
X26100238Y-23036380D01*
X26005000Y-23131618D01*
X25957380Y-23274476D01*
X25957380Y-23369714D01*
X26005000Y-23512571D01*
X26052619Y-23560190D01*
X26957380Y-24464952D02*
X26957380Y-23988761D01*
X25957380Y-23988761D01*
X42848380Y-75813000D02*
X42848380Y-76432048D01*
X43229333Y-76098715D01*
X43229333Y-76241572D01*
X43276952Y-76336810D01*
X43324571Y-76384429D01*
X43419809Y-76432048D01*
X43657904Y-76432048D01*
X43753142Y-76384429D01*
X43800761Y-76336810D01*
X43848380Y-76241572D01*
X43848380Y-75955857D01*
X43800761Y-75860619D01*
X43753142Y-75813000D01*
X42848380Y-76717762D02*
X43848380Y-77051096D01*
X42848380Y-77384429D01*
X42848380Y-77622524D02*
X42848380Y-78241572D01*
X43229333Y-77908238D01*
X43229333Y-78051096D01*
X43276952Y-78146334D01*
X43324571Y-78193953D01*
X43419809Y-78241572D01*
X43657904Y-78241572D01*
X43753142Y-78193953D01*
X43800761Y-78146334D01*
X43848380Y-78051096D01*
X43848380Y-77765381D01*
X43800761Y-77670143D01*
X43753142Y-77622524D01*
X69121380Y-22845904D02*
X68121380Y-22845904D01*
X68121380Y-23084000D01*
X68169000Y-23226857D01*
X68264238Y-23322095D01*
X68359476Y-23369714D01*
X68549952Y-23417333D01*
X68692809Y-23417333D01*
X68883285Y-23369714D01*
X68978523Y-23322095D01*
X69073761Y-23226857D01*
X69121380Y-23084000D01*
X69121380Y-22845904D01*
X69121380Y-24369714D02*
X69121380Y-23798285D01*
X69121380Y-24084000D02*
X68121380Y-24084000D01*
X68264238Y-23988761D01*
X68359476Y-23893523D01*
X68407095Y-23798285D01*
X38768380Y-75908238D02*
X37768380Y-75908238D01*
X37768380Y-76574904D02*
X37768380Y-76765380D01*
X37816000Y-76860619D01*
X37911238Y-76955857D01*
X38101714Y-77003476D01*
X38435047Y-77003476D01*
X38625523Y-76955857D01*
X38720761Y-76860619D01*
X38768380Y-76765380D01*
X38768380Y-76574904D01*
X38720761Y-76479666D01*
X38625523Y-76384428D01*
X38435047Y-76336809D01*
X38101714Y-76336809D01*
X37911238Y-76384428D01*
X37816000Y-76479666D01*
X37768380Y-76574904D01*
X38768380Y-78003476D02*
X38292190Y-77670142D01*
X38768380Y-77432047D02*
X37768380Y-77432047D01*
X37768380Y-77813000D01*
X37816000Y-77908238D01*
X37863619Y-77955857D01*
X37958857Y-78003476D01*
X38101714Y-78003476D01*
X38196952Y-77955857D01*
X38244571Y-77908238D01*
X38292190Y-77813000D01*
X38292190Y-77432047D01*
X38244571Y-78432047D02*
X38244571Y-78765380D01*
X38768380Y-78908238D02*
X38768380Y-78432047D01*
X37768380Y-78432047D01*
X37768380Y-78908238D01*
X38244571Y-79670142D02*
X38244571Y-79336809D01*
X38768380Y-79336809D02*
X37768380Y-79336809D01*
X37768380Y-79813000D01*
X66581380Y-22845904D02*
X65581380Y-22845904D01*
X65581380Y-23084000D01*
X65629000Y-23226857D01*
X65724238Y-23322095D01*
X65819476Y-23369714D01*
X66009952Y-23417333D01*
X66152809Y-23417333D01*
X66343285Y-23369714D01*
X66438523Y-23322095D01*
X66533761Y-23226857D01*
X66581380Y-23084000D01*
X66581380Y-22845904D01*
X65676619Y-23798285D02*
X65629000Y-23845904D01*
X65581380Y-23941142D01*
X65581380Y-24179238D01*
X65629000Y-24274476D01*
X65676619Y-24322095D01*
X65771857Y-24369714D01*
X65867095Y-24369714D01*
X66009952Y-24322095D01*
X66581380Y-23750666D01*
X66581380Y-24369714D01*
X47976000Y-76432048D02*
X47928380Y-76336810D01*
X47928380Y-76193953D01*
X47976000Y-76051095D01*
X48071238Y-75955857D01*
X48166476Y-75908238D01*
X48356952Y-75860619D01*
X48499809Y-75860619D01*
X48690285Y-75908238D01*
X48785523Y-75955857D01*
X48880761Y-76051095D01*
X48928380Y-76193953D01*
X48928380Y-76289191D01*
X48880761Y-76432048D01*
X48833142Y-76479667D01*
X48499809Y-76479667D01*
X48499809Y-76289191D01*
X48928380Y-76908238D02*
X47928380Y-76908238D01*
X48928380Y-77479667D01*
X47928380Y-77479667D01*
X48928380Y-77955857D02*
X47928380Y-77955857D01*
X47928380Y-78193953D01*
X47976000Y-78336810D01*
X48071238Y-78432048D01*
X48166476Y-78479667D01*
X48356952Y-78527286D01*
X48499809Y-78527286D01*
X48690285Y-78479667D01*
X48785523Y-78432048D01*
X48880761Y-78336810D01*
X48928380Y-78193953D01*
X48928380Y-77955857D01*
X56421380Y-22845904D02*
X55421380Y-22845904D01*
X55421380Y-23084000D01*
X55469000Y-23226857D01*
X55564238Y-23322095D01*
X55659476Y-23369714D01*
X55849952Y-23417333D01*
X55992809Y-23417333D01*
X56183285Y-23369714D01*
X56278523Y-23322095D01*
X56373761Y-23226857D01*
X56421380Y-23084000D01*
X56421380Y-22845904D01*
X55421380Y-24274476D02*
X55421380Y-24084000D01*
X55469000Y-23988761D01*
X55516619Y-23941142D01*
X55659476Y-23845904D01*
X55849952Y-23798285D01*
X56230904Y-23798285D01*
X56326142Y-23845904D01*
X56373761Y-23893523D01*
X56421380Y-23988761D01*
X56421380Y-24179238D01*
X56373761Y-24274476D01*
X56326142Y-24322095D01*
X56230904Y-24369714D01*
X55992809Y-24369714D01*
X55897571Y-24322095D01*
X55849952Y-24274476D01*
X55802333Y-24179238D01*
X55802333Y-23988761D01*
X55849952Y-23893523D01*
X55897571Y-23845904D01*
X55992809Y-23798285D01*
X58961380Y-22845904D02*
X57961380Y-22845904D01*
X57961380Y-23084000D01*
X58009000Y-23226857D01*
X58104238Y-23322095D01*
X58199476Y-23369714D01*
X58389952Y-23417333D01*
X58532809Y-23417333D01*
X58723285Y-23369714D01*
X58818523Y-23322095D01*
X58913761Y-23226857D01*
X58961380Y-23084000D01*
X58961380Y-22845904D01*
X57961380Y-24322095D02*
X57961380Y-23845904D01*
X58437571Y-23798285D01*
X58389952Y-23845904D01*
X58342333Y-23941142D01*
X58342333Y-24179238D01*
X58389952Y-24274476D01*
X58437571Y-24322095D01*
X58532809Y-24369714D01*
X58770904Y-24369714D01*
X58866142Y-24322095D01*
X58913761Y-24274476D01*
X58961380Y-24179238D01*
X58961380Y-23941142D01*
X58913761Y-23845904D01*
X58866142Y-23798285D01*
X45388380Y-76384428D02*
X45388380Y-75908238D01*
X45864571Y-75860619D01*
X45816952Y-75908238D01*
X45769333Y-76003476D01*
X45769333Y-76241571D01*
X45816952Y-76336809D01*
X45864571Y-76384428D01*
X45959809Y-76432047D01*
X46197904Y-76432047D01*
X46293142Y-76384428D01*
X46340761Y-76336809D01*
X46388380Y-76241571D01*
X46388380Y-76003476D01*
X46340761Y-75908238D01*
X46293142Y-75860619D01*
X45388380Y-76717762D02*
X46388380Y-77051095D01*
X45388380Y-77384428D01*
X53881380Y-22845904D02*
X52881380Y-22845904D01*
X52881380Y-23084000D01*
X52929000Y-23226857D01*
X53024238Y-23322095D01*
X53119476Y-23369714D01*
X53309952Y-23417333D01*
X53452809Y-23417333D01*
X53643285Y-23369714D01*
X53738523Y-23322095D01*
X53833761Y-23226857D01*
X53881380Y-23084000D01*
X53881380Y-22845904D01*
X52881380Y-23750666D02*
X52881380Y-24417333D01*
X53881380Y-23988761D01*
X71661380Y-22845904D02*
X70661380Y-22845904D01*
X70661380Y-23084000D01*
X70709000Y-23226857D01*
X70804238Y-23322095D01*
X70899476Y-23369714D01*
X71089952Y-23417333D01*
X71232809Y-23417333D01*
X71423285Y-23369714D01*
X71518523Y-23322095D01*
X71613761Y-23226857D01*
X71661380Y-23084000D01*
X71661380Y-22845904D01*
X70661380Y-24036380D02*
X70661380Y-24131619D01*
X70709000Y-24226857D01*
X70756619Y-24274476D01*
X70851857Y-24322095D01*
X71042333Y-24369714D01*
X71280428Y-24369714D01*
X71470904Y-24322095D01*
X71566142Y-24274476D01*
X71613761Y-24226857D01*
X71661380Y-24131619D01*
X71661380Y-24036380D01*
X71613761Y-23941142D01*
X71566142Y-23893523D01*
X71470904Y-23845904D01*
X71280428Y-23798285D01*
X71042333Y-23798285D01*
X70851857Y-23845904D01*
X70756619Y-23893523D01*
X70709000Y-23941142D01*
X70661380Y-24036380D01*
X68962666Y-75860619D02*
X68962666Y-76336809D01*
X69248380Y-75765381D02*
X68248380Y-76098714D01*
X69248380Y-76432047D01*
X68581714Y-77193952D02*
X69248380Y-77193952D01*
X68200761Y-76955857D02*
X68915047Y-76717762D01*
X68915047Y-77336809D01*
X49817380Y-22845904D02*
X48817380Y-22845904D01*
X48817380Y-23084000D01*
X48865000Y-23226857D01*
X48960238Y-23322095D01*
X49055476Y-23369714D01*
X49245952Y-23417333D01*
X49388809Y-23417333D01*
X49579285Y-23369714D01*
X49674523Y-23322095D01*
X49769761Y-23226857D01*
X49817380Y-23084000D01*
X49817380Y-22845904D01*
X49245952Y-23988761D02*
X49198333Y-23893523D01*
X49150714Y-23845904D01*
X49055476Y-23798285D01*
X49007857Y-23798285D01*
X48912619Y-23845904D01*
X48865000Y-23893523D01*
X48817380Y-23988761D01*
X48817380Y-24179238D01*
X48865000Y-24274476D01*
X48912619Y-24322095D01*
X49007857Y-24369714D01*
X49055476Y-24369714D01*
X49150714Y-24322095D01*
X49198333Y-24274476D01*
X49245952Y-24179238D01*
X49245952Y-23988761D01*
X49293571Y-23893523D01*
X49341190Y-23845904D01*
X49436428Y-23798285D01*
X49626904Y-23798285D01*
X49722142Y-23845904D01*
X49769761Y-23893523D01*
X49817380Y-23988761D01*
X49817380Y-24179238D01*
X49769761Y-24274476D01*
X49722142Y-24322095D01*
X49626904Y-24369714D01*
X49436428Y-24369714D01*
X49341190Y-24322095D01*
X49293571Y-24274476D01*
X49245952Y-24179238D01*
X47404380Y-22845904D02*
X46404380Y-22845904D01*
X46404380Y-23084000D01*
X46452000Y-23226857D01*
X46547238Y-23322095D01*
X46642476Y-23369714D01*
X46832952Y-23417333D01*
X46975809Y-23417333D01*
X47166285Y-23369714D01*
X47261523Y-23322095D01*
X47356761Y-23226857D01*
X47404380Y-23084000D01*
X47404380Y-22845904D01*
X47404380Y-23893523D02*
X47404380Y-24084000D01*
X47356761Y-24179238D01*
X47309142Y-24226857D01*
X47166285Y-24322095D01*
X46975809Y-24369714D01*
X46594857Y-24369714D01*
X46499619Y-24322095D01*
X46452000Y-24274476D01*
X46404380Y-24179238D01*
X46404380Y-23988761D01*
X46452000Y-23893523D01*
X46499619Y-23845904D01*
X46594857Y-23798285D01*
X46832952Y-23798285D01*
X46928190Y-23845904D01*
X46975809Y-23893523D01*
X47023428Y-23988761D01*
X47023428Y-24179238D01*
X46975809Y-24274476D01*
X46928190Y-24322095D01*
X46832952Y-24369714D01*
X53008380Y-75765380D02*
X54008380Y-76098714D01*
X53008380Y-76432047D01*
X54008380Y-76765380D02*
X53008380Y-76765380D01*
X54008380Y-77241571D02*
X53008380Y-77241571D01*
X54008380Y-77812999D01*
X53008380Y-77812999D01*
X64041380Y-22845904D02*
X63041380Y-22845904D01*
X63041380Y-23084000D01*
X63089000Y-23226857D01*
X63184238Y-23322095D01*
X63279476Y-23369714D01*
X63469952Y-23417333D01*
X63612809Y-23417333D01*
X63803285Y-23369714D01*
X63898523Y-23322095D01*
X63993761Y-23226857D01*
X64041380Y-23084000D01*
X64041380Y-22845904D01*
X63041380Y-23750666D02*
X63041380Y-24369714D01*
X63422333Y-24036380D01*
X63422333Y-24179238D01*
X63469952Y-24274476D01*
X63517571Y-24322095D01*
X63612809Y-24369714D01*
X63850904Y-24369714D01*
X63946142Y-24322095D01*
X63993761Y-24274476D01*
X64041380Y-24179238D01*
X64041380Y-23893523D01*
X63993761Y-23798285D01*
X63946142Y-23750666D01*
X63882666Y-75860619D02*
X63882666Y-76336809D01*
X64168380Y-75765381D02*
X63168380Y-76098714D01*
X64168380Y-76432047D01*
X63263619Y-76717762D02*
X63216000Y-76765381D01*
X63168380Y-76860619D01*
X63168380Y-77098714D01*
X63216000Y-77193952D01*
X63263619Y-77241571D01*
X63358857Y-77289190D01*
X63454095Y-77289190D01*
X63596952Y-77241571D01*
X64168380Y-76670143D01*
X64168380Y-77289190D01*
X41308380Y-76479666D02*
X40832190Y-76146333D01*
X41308380Y-75908238D02*
X40308380Y-75908238D01*
X40308380Y-76289190D01*
X40356000Y-76384428D01*
X40403619Y-76432047D01*
X40498857Y-76479666D01*
X40641714Y-76479666D01*
X40736952Y-76432047D01*
X40784571Y-76384428D01*
X40832190Y-76289190D01*
X40832190Y-75908238D01*
X41260761Y-76860619D02*
X41308380Y-77003476D01*
X41308380Y-77241571D01*
X41260761Y-77336809D01*
X41213142Y-77384428D01*
X41117904Y-77432047D01*
X41022666Y-77432047D01*
X40927428Y-77384428D01*
X40879809Y-77336809D01*
X40832190Y-77241571D01*
X40784571Y-77051095D01*
X40736952Y-76955857D01*
X40689333Y-76908238D01*
X40594095Y-76860619D01*
X40498857Y-76860619D01*
X40403619Y-76908238D01*
X40356000Y-76955857D01*
X40308380Y-77051095D01*
X40308380Y-77289190D01*
X40356000Y-77432047D01*
X40308380Y-77717762D02*
X40308380Y-78289190D01*
X41308380Y-78003476D02*
X40308380Y-78003476D01*
D12*
X75661252Y-68810000D02*
X73338748Y-68810000D01*
X75661252Y-65390000D02*
X73338748Y-65390000D01*
X25346359Y-43780000D02*
X25653641Y-43780000D01*
X25346359Y-43020000D02*
X25653641Y-43020000D01*
X36040000Y-46534420D02*
X36040000Y-46815580D01*
X37060000Y-46534420D02*
X37060000Y-46815580D01*
X66827836Y-60060000D02*
X66612164Y-60060000D01*
X66827836Y-59340000D02*
X66612164Y-59340000D01*
X61670000Y-28396359D02*
X61670000Y-28703641D01*
X62430000Y-28396359D02*
X62430000Y-28703641D01*
X25680000Y-33953641D02*
X25680000Y-33646359D01*
X24920000Y-33953641D02*
X24920000Y-33646359D01*
X39890000Y-39890000D02*
X39890000Y-40840000D01*
X39890000Y-59160000D02*
X38600000Y-59160000D01*
X60110000Y-39890000D02*
X60110000Y-40840000D01*
X59160000Y-60110000D02*
X60110000Y-60110000D01*
X40840000Y-39890000D02*
X39890000Y-39890000D01*
X40840000Y-60110000D02*
X39890000Y-60110000D01*
X60110000Y-60110000D02*
X60110000Y-59160000D01*
X39890000Y-60110000D02*
X39890000Y-59160000D01*
X59160000Y-39890000D02*
X60110000Y-39890000D01*
X27494284Y-67946359D02*
X27494284Y-68253641D01*
X26734284Y-67946359D02*
X26734284Y-68253641D01*
X38160000Y-46067164D02*
X38160000Y-46282836D01*
X37440000Y-46067164D02*
X37440000Y-46282836D01*
X35830000Y-41096359D02*
X35830000Y-41403641D01*
X35070000Y-41096359D02*
X35070000Y-41403641D01*
X31127836Y-40460000D02*
X30912164Y-40460000D01*
X31127836Y-39740000D02*
X30912164Y-39740000D01*
X60230000Y-71396359D02*
X60230000Y-71703641D01*
X59470000Y-71396359D02*
X59470000Y-71703641D01*
X61790000Y-48807836D02*
X61790000Y-48592164D01*
X62510000Y-48807836D02*
X62510000Y-48592164D01*
X69370000Y-65003641D02*
X69370000Y-64696359D01*
X70130000Y-65003641D02*
X70130000Y-64696359D01*
X25346359Y-58980000D02*
X25653641Y-58980000D01*
X25346359Y-58220000D02*
X25653641Y-58220000D01*
X67090000Y-31492164D02*
X67090000Y-31707836D01*
X67810000Y-31492164D02*
X67810000Y-31707836D01*
X38080000Y-28396359D02*
X38080000Y-28703641D01*
X37320000Y-28396359D02*
X37320000Y-28703641D01*
X22960000Y-35842164D02*
X22960000Y-36057836D01*
X22240000Y-35842164D02*
X22240000Y-36057836D01*
X57380000Y-28396359D02*
X57380000Y-28703641D01*
X56620000Y-28396359D02*
X56620000Y-28703641D01*
X68240000Y-31988748D02*
X68240000Y-34311252D01*
X71660000Y-31988748D02*
X71660000Y-34311252D01*
X61990000Y-71396359D02*
X61990000Y-71703641D01*
X62750000Y-71396359D02*
X62750000Y-71703641D01*
X25346359Y-53170000D02*
X25653641Y-53170000D01*
X25346359Y-53930000D02*
X25653641Y-53930000D01*
X67790000Y-71396359D02*
X67790000Y-71703641D01*
X67030000Y-71396359D02*
X67030000Y-71703641D01*
X25346359Y-41380000D02*
X25653641Y-41380000D01*
X25346359Y-40620000D02*
X25653641Y-40620000D01*
X57207836Y-62660000D02*
X56992164Y-62660000D01*
X57207836Y-61940000D02*
X56992164Y-61940000D01*
X64650000Y-38325000D02*
X65450000Y-37525000D01*
X60540000Y-38325000D02*
X64650000Y-38325000D01*
X65450000Y-37525000D02*
X65450000Y-34425000D01*
X65450000Y-34425000D02*
X60540000Y-34425000D01*
X60540000Y-34425000D02*
X60540000Y-38325000D01*
X49970000Y-28396359D02*
X49970000Y-28703641D01*
X50730000Y-28396359D02*
X50730000Y-28703641D01*
X45730000Y-28396359D02*
X45730000Y-28703641D01*
X44970000Y-28396359D02*
X44970000Y-28703641D01*
X29240000Y-37742164D02*
X29240000Y-37957836D01*
X29960000Y-37742164D02*
X29960000Y-37957836D01*
X39920000Y-28396359D02*
X39920000Y-28703641D01*
X40680000Y-28396359D02*
X40680000Y-28703641D01*
X73896359Y-39370000D02*
X74203641Y-39370000D01*
X73896359Y-40130000D02*
X74203641Y-40130000D01*
X69363641Y-62920000D02*
X69056359Y-62920000D01*
X69363641Y-63680000D02*
X69056359Y-63680000D01*
X43080000Y-28396359D02*
X43080000Y-28703641D01*
X42320000Y-28396359D02*
X42320000Y-28703641D01*
X51742164Y-62660000D02*
X51957836Y-62660000D01*
X51742164Y-61940000D02*
X51957836Y-61940000D01*
X26660000Y-31337836D02*
X26660000Y-31122164D01*
X25940000Y-31337836D02*
X25940000Y-31122164D01*
X75219528Y-70207836D02*
X75219528Y-69992164D01*
X74499528Y-70207836D02*
X74499528Y-69992164D01*
X30277140Y-67946359D02*
X30277140Y-68253641D01*
X31037140Y-67946359D02*
X31037140Y-68253641D01*
X37440000Y-56372164D02*
X37440000Y-56587836D01*
X38160000Y-56372164D02*
X38160000Y-56587836D01*
X65840000Y-33637836D02*
X65840000Y-33422164D01*
X66560000Y-33637836D02*
X66560000Y-33422164D01*
X71757836Y-38330000D02*
X71542164Y-38330000D01*
X71757836Y-39050000D02*
X71542164Y-39050000D01*
X22180000Y-67946359D02*
X22180000Y-68253641D01*
X21420000Y-67946359D02*
X21420000Y-68253641D01*
X69320000Y-28703641D02*
X69320000Y-28396359D01*
X70080000Y-28703641D02*
X70080000Y-28396359D01*
X51242164Y-38110000D02*
X51457836Y-38110000D01*
X51242164Y-37390000D02*
X51457836Y-37390000D01*
X24400000Y-36000000D02*
X24400000Y-38200000D01*
X26600000Y-36000000D02*
X26600000Y-39000000D01*
X30550000Y-36210000D02*
X28600000Y-36210000D01*
X30550000Y-31090000D02*
X34000000Y-31090000D01*
X30550000Y-36210000D02*
X32500000Y-36210000D01*
X30550000Y-31090000D02*
X28600000Y-31090000D01*
X25346359Y-48120000D02*
X25653641Y-48120000D01*
X25346359Y-48880000D02*
X25653641Y-48880000D01*
X59220000Y-28396359D02*
X59220000Y-28703641D01*
X59980000Y-28396359D02*
X59980000Y-28703641D01*
X72000000Y-64294000D02*
X72000000Y-58200000D01*
X72000000Y-58200000D02*
X75000000Y-58200000D01*
X75000000Y-58200000D02*
X75000000Y-64294000D01*
X66770000Y-28396359D02*
X66770000Y-28703641D01*
X67530000Y-28396359D02*
X67530000Y-28703641D01*
X68338748Y-56190000D02*
X69761252Y-56190000D01*
X68338748Y-58910000D02*
X69761252Y-58910000D01*
X28930000Y-37646359D02*
X28930000Y-37953641D01*
X28170000Y-37646359D02*
X28170000Y-37953641D01*
X29265712Y-67946359D02*
X29265712Y-68253641D01*
X28505712Y-67946359D02*
X28505712Y-68253641D01*
X37490000Y-41322164D02*
X37490000Y-41537836D01*
X38210000Y-41322164D02*
X38210000Y-41537836D01*
X33820000Y-67946359D02*
X33820000Y-68253641D01*
X34580000Y-67946359D02*
X34580000Y-68253641D01*
X70310000Y-71396359D02*
X70310000Y-71703641D01*
X69550000Y-71396359D02*
X69550000Y-71703641D01*
X69750000Y-59440000D02*
X71550000Y-59440000D01*
X69750000Y-62560000D02*
X68950000Y-62560000D01*
X69750000Y-62560000D02*
X70550000Y-62560000D01*
X69750000Y-59440000D02*
X68950000Y-59440000D01*
X64220000Y-28396359D02*
X64220000Y-28703641D01*
X64980000Y-28396359D02*
X64980000Y-28703641D01*
X25680000Y-30903641D02*
X25680000Y-30596359D01*
X24920000Y-30903641D02*
X24920000Y-30596359D01*
X23951428Y-67946359D02*
X23951428Y-68253641D01*
X23191428Y-67946359D02*
X23191428Y-68253641D01*
X47807836Y-37440000D02*
X47592164Y-37440000D01*
X47807836Y-38160000D02*
X47592164Y-38160000D01*
X54886359Y-36380000D02*
X55193641Y-36380000D01*
X54886359Y-35620000D02*
X55193641Y-35620000D01*
X32808568Y-67946359D02*
X32808568Y-68253641D01*
X32048568Y-67946359D02*
X32048568Y-68253641D01*
X25722856Y-67946359D02*
X25722856Y-68253641D01*
X24962856Y-67946359D02*
X24962856Y-68253641D01*
X65663641Y-40320000D02*
X65356359Y-40320000D01*
X65663641Y-41080000D02*
X65356359Y-41080000D01*
X57710000Y-71396359D02*
X57710000Y-71703641D01*
X56950000Y-71396359D02*
X56950000Y-71703641D01*
X48180000Y-28396359D02*
X48180000Y-28703641D01*
X47420000Y-28396359D02*
X47420000Y-28703641D01*
X64137500Y-58935000D02*
X61852500Y-58935000D01*
X61852500Y-58935000D02*
X61852500Y-57465000D01*
X61852500Y-57465000D02*
X64137500Y-57465000D01*
X74700000Y-35890000D02*
X73900000Y-35890000D01*
X74700000Y-35890000D02*
X75500000Y-35890000D01*
X74700000Y-39010000D02*
X72900000Y-39010000D01*
X74700000Y-39010000D02*
X75500000Y-39010000D01*
X72500000Y-30875000D02*
X72498000Y-31295000D01*
X79100000Y-30875000D02*
X72500000Y-30875000D01*
X79100000Y-31295000D02*
X79100000Y-30875000D01*
X72500000Y-35525000D02*
X79100000Y-35525000D01*
X72498000Y-35105000D02*
X72500000Y-35525000D01*
X79100000Y-35525000D02*
X79100000Y-35105000D01*
X31153641Y-40770000D02*
X30846359Y-40770000D01*
X31153641Y-41530000D02*
X30846359Y-41530000D01*
X45692164Y-38160000D02*
X45907836Y-38160000D01*
X45692164Y-37440000D02*
X45907836Y-37440000D01*
X62542164Y-51210000D02*
X62757836Y-51210000D01*
X62542164Y-50490000D02*
X62757836Y-50490000D01*
X36140000Y-41184420D02*
X36140000Y-41465580D01*
X37160000Y-41184420D02*
X37160000Y-41465580D01*
X72830000Y-28703641D02*
X72830000Y-28396359D01*
X72070000Y-28703641D02*
X72070000Y-28396359D01*
X75490000Y-62638748D02*
X75490000Y-63161252D01*
X77710000Y-62638748D02*
X77710000Y-63161252D01*
X23270000Y-35796359D02*
X23270000Y-36103641D01*
X24030000Y-35796359D02*
X24030000Y-36103641D01*
X31350000Y-37200000D02*
X34350000Y-37200000D01*
X31350000Y-39400000D02*
X33550000Y-39400000D01*
X25940000Y-33937836D02*
X25940000Y-33722164D01*
X26660000Y-33937836D02*
X26660000Y-33722164D01*
X65270000Y-71396359D02*
X65270000Y-71703641D01*
X64510000Y-71396359D02*
X64510000Y-71703641D01*
X71386252Y-39490000D02*
X69963748Y-39490000D01*
X71386252Y-42210000D02*
X69963748Y-42210000D01*
X54580000Y-28396359D02*
X54580000Y-28703641D01*
X53820000Y-28396359D02*
X53820000Y-28703641D01*
%LPC*%
D13*
X23000000Y-40894000D03*
D14*
X23000000Y-43434000D03*
X23000000Y-45974000D03*
X23000000Y-48514000D03*
X23000000Y-51054000D03*
X23000000Y-53594000D03*
X23000000Y-56134000D03*
X23000000Y-58674000D03*
X33160000Y-58674000D03*
X33160000Y-53594000D03*
X33160000Y-48514000D03*
X33160000Y-45974000D03*
X33160000Y-43434000D03*
X33160000Y-40894000D03*
D15*
X24300000Y-77500000D03*
X31100000Y-77500000D03*
D16*
X73800000Y-44380000D03*
X77800000Y-44380000D03*
X77800000Y-55620000D03*
X73800000Y-55620000D03*
D17*
X35649000Y-74130000D03*
X43269000Y-74130000D03*
X45809000Y-74130000D03*
X58509000Y-74130000D03*
X61049000Y-74130000D03*
X63589000Y-74130000D03*
X66129000Y-74130000D03*
X68669000Y-74130000D03*
X71209000Y-74130000D03*
X31585000Y-25870000D03*
X71209000Y-25870000D03*
X68669000Y-25870000D03*
X66129000Y-25870000D03*
X63589000Y-25870000D03*
X61049000Y-25870000D03*
X58509000Y-25870000D03*
X55969000Y-25870000D03*
X53429000Y-25870000D03*
X49365000Y-25870000D03*
X46825000Y-25870000D03*
X44285000Y-25870000D03*
X41745000Y-25870000D03*
X39205000Y-25870000D03*
X36665000Y-25870000D03*
D18*
X34125000Y-25870000D03*
X48349000Y-74130000D03*
X50889000Y-74130000D03*
D17*
X38189000Y-74130000D03*
X40729000Y-74130000D03*
X26505000Y-25870000D03*
X29045000Y-25870000D03*
X53429000Y-74130000D03*
D19*
X76550000Y-67100000D03*
X72450000Y-67100000D03*
D20*
X24990000Y-43400000D03*
X26010000Y-43400000D03*
D21*
X36550000Y-45900000D03*
X36550000Y-47450000D03*
D22*
X67200000Y-59700000D03*
X66240000Y-59700000D03*
D23*
X62050000Y-28040000D03*
X62050000Y-29060000D03*
D24*
X25300000Y-34310000D03*
X25300000Y-33290000D03*
D25*
X39337500Y-58750000D03*
X39337500Y-58250000D03*
X39337500Y-57750000D03*
X39337500Y-57250000D03*
X39337500Y-56750000D03*
X39337500Y-56250000D03*
X39337500Y-55750000D03*
X39337500Y-55250000D03*
X39337500Y-54750000D03*
X39337500Y-54250000D03*
X39337500Y-53750000D03*
X39337500Y-53250000D03*
X39337500Y-52750000D03*
X39337500Y-52250000D03*
X39337500Y-51750000D03*
X39337500Y-51250000D03*
X39337500Y-50750000D03*
X39337500Y-50250000D03*
X39337500Y-49750000D03*
X39337500Y-49250000D03*
X39337500Y-48750000D03*
X39337500Y-48250000D03*
X39337500Y-47750000D03*
X39337500Y-47250000D03*
X39337500Y-46750000D03*
X39337500Y-46250000D03*
X39337500Y-45750000D03*
X39337500Y-45250000D03*
X39337500Y-44750000D03*
X39337500Y-44250000D03*
X39337500Y-43750000D03*
X39337500Y-43250000D03*
X39337500Y-42750000D03*
X39337500Y-42250000D03*
X39337500Y-41750000D03*
X39337500Y-41250000D03*
D26*
X41250000Y-39337500D03*
X41750000Y-39337500D03*
X42250000Y-39337500D03*
X42750000Y-39337500D03*
X43250000Y-39337500D03*
X43750000Y-39337500D03*
X44250000Y-39337500D03*
X44750000Y-39337500D03*
X45250000Y-39337500D03*
X45750000Y-39337500D03*
X46250000Y-39337500D03*
X46750000Y-39337500D03*
X47250000Y-39337500D03*
X47750000Y-39337500D03*
X48250000Y-39337500D03*
X48750000Y-39337500D03*
X49250000Y-39337500D03*
X49750000Y-39337500D03*
X50250000Y-39337500D03*
X50750000Y-39337500D03*
X51250000Y-39337500D03*
X51750000Y-39337500D03*
X52250000Y-39337500D03*
X52750000Y-39337500D03*
X53250000Y-39337500D03*
X53750000Y-39337500D03*
X54250000Y-39337500D03*
X54750000Y-39337500D03*
X55250000Y-39337500D03*
X55750000Y-39337500D03*
X56250000Y-39337500D03*
X56750000Y-39337500D03*
X57250000Y-39337500D03*
X57750000Y-39337500D03*
X58250000Y-39337500D03*
X58750000Y-39337500D03*
D25*
X60662500Y-41250000D03*
X60662500Y-41750000D03*
X60662500Y-42250000D03*
X60662500Y-42750000D03*
X60662500Y-43250000D03*
X60662500Y-43750000D03*
X60662500Y-44250000D03*
X60662500Y-44750000D03*
X60662500Y-45250000D03*
X60662500Y-45750000D03*
X60662500Y-46250000D03*
X60662500Y-46750000D03*
X60662500Y-47250000D03*
X60662500Y-47750000D03*
X60662500Y-48250000D03*
X60662500Y-48750000D03*
X60662500Y-49250000D03*
X60662500Y-49750000D03*
X60662500Y-50250000D03*
X60662500Y-50750000D03*
X60662500Y-51250000D03*
X60662500Y-51750000D03*
X60662500Y-52250000D03*
X60662500Y-52750000D03*
X60662500Y-53250000D03*
X60662500Y-53750000D03*
X60662500Y-54250000D03*
X60662500Y-54750000D03*
X60662500Y-55250000D03*
X60662500Y-55750000D03*
X60662500Y-56250000D03*
X60662500Y-56750000D03*
X60662500Y-57250000D03*
X60662500Y-57750000D03*
X60662500Y-58250000D03*
X60662500Y-58750000D03*
D26*
X58750000Y-60662500D03*
X58250000Y-60662500D03*
X57750000Y-60662500D03*
X57250000Y-60662500D03*
X56750000Y-60662500D03*
X56250000Y-60662500D03*
X55750000Y-60662500D03*
X55250000Y-60662500D03*
X54750000Y-60662500D03*
X54250000Y-60662500D03*
X53750000Y-60662500D03*
X53250000Y-60662500D03*
X52750000Y-60662500D03*
X52250000Y-60662500D03*
X51750000Y-60662500D03*
X51250000Y-60662500D03*
X50750000Y-60662500D03*
X50250000Y-60662500D03*
X49750000Y-60662500D03*
X49250000Y-60662500D03*
X48750000Y-60662500D03*
X48250000Y-60662500D03*
X47750000Y-60662500D03*
X47250000Y-60662500D03*
X46750000Y-60662500D03*
X46250000Y-60662500D03*
X45750000Y-60662500D03*
X45250000Y-60662500D03*
X44750000Y-60662500D03*
X44250000Y-60662500D03*
X43750000Y-60662500D03*
X43250000Y-60662500D03*
X42750000Y-60662500D03*
X42250000Y-60662500D03*
X41750000Y-60662500D03*
X41250000Y-60662500D03*
D23*
X27114284Y-67590000D03*
X27114284Y-68610000D03*
D27*
X37800000Y-45695000D03*
X37800000Y-46655000D03*
D23*
X35450000Y-40740000D03*
X35450000Y-41760000D03*
D22*
X31500000Y-40100000D03*
X30540000Y-40100000D03*
D23*
X59850000Y-71040000D03*
X59850000Y-72060000D03*
D28*
X62150000Y-49180000D03*
X62150000Y-48220000D03*
D24*
X69750000Y-65360000D03*
X69750000Y-64340000D03*
D20*
X24990000Y-58600000D03*
X26010000Y-58600000D03*
D27*
X67450000Y-31120000D03*
X67450000Y-32080000D03*
D23*
X37700000Y-28040000D03*
X37700000Y-29060000D03*
D27*
X22600000Y-35470000D03*
X22600000Y-36430000D03*
D23*
X57000000Y-28040000D03*
X57000000Y-29060000D03*
D29*
X69950000Y-31100000D03*
X69950000Y-35200000D03*
D23*
X62370000Y-71040000D03*
X62370000Y-72060000D03*
D20*
X24990000Y-53550000D03*
X26010000Y-53550000D03*
D23*
X67410000Y-71040000D03*
X67410000Y-72060000D03*
D20*
X24990000Y-41000000D03*
X26010000Y-41000000D03*
D22*
X57580000Y-62300000D03*
X56620000Y-62300000D03*
D30*
X64900000Y-39175000D03*
X63630000Y-39175000D03*
X62360000Y-39175000D03*
X61090000Y-39175000D03*
X61090000Y-33575000D03*
X62360000Y-33575000D03*
X63630000Y-33575000D03*
X64900000Y-33575000D03*
D23*
X50350000Y-28040000D03*
X50350000Y-29060000D03*
X45350000Y-28040000D03*
X45350000Y-29060000D03*
D27*
X29600000Y-37370000D03*
X29600000Y-38330000D03*
D23*
X40300000Y-28040000D03*
X40300000Y-29060000D03*
D20*
X73540000Y-39750000D03*
X74560000Y-39750000D03*
D31*
X69720000Y-63300000D03*
X68700000Y-63300000D03*
D23*
X42700000Y-28040000D03*
X42700000Y-29060000D03*
D32*
X51370000Y-62300000D03*
X52330000Y-62300000D03*
D28*
X26300000Y-31710000D03*
X26300000Y-30750000D03*
X74859528Y-70580000D03*
X74859528Y-69620000D03*
D23*
X30657140Y-67590000D03*
X30657140Y-68610000D03*
D27*
X37800000Y-56000000D03*
X37800000Y-56960000D03*
D28*
X66200000Y-34010000D03*
X66200000Y-33050000D03*
D22*
X72130000Y-38690000D03*
X71170000Y-38690000D03*
D23*
X21800000Y-67590000D03*
X21800000Y-68610000D03*
D24*
X69700000Y-29060000D03*
X69700000Y-28040000D03*
D32*
X50870000Y-37750000D03*
X51830000Y-37750000D03*
D33*
X26250000Y-38650000D03*
X25750000Y-38650000D03*
X25250000Y-38650000D03*
X24750000Y-38650000D03*
X24750000Y-35550000D03*
X25250000Y-35550000D03*
X25750000Y-35550000D03*
X26250000Y-35550000D03*
D34*
X33025000Y-31745000D03*
X33025000Y-33015000D03*
X33025000Y-34285000D03*
X33025000Y-35555000D03*
X28075000Y-35555000D03*
X28075000Y-34285000D03*
X28075000Y-33015000D03*
X28075000Y-31745000D03*
D20*
X24990000Y-48500000D03*
X26010000Y-48500000D03*
D23*
X59600000Y-28040000D03*
X59600000Y-29060000D03*
D35*
X73500000Y-59350000D03*
X73500000Y-63650000D03*
D23*
X67150000Y-28040000D03*
X67150000Y-29060000D03*
D36*
X67575000Y-57550000D03*
X70525000Y-57550000D03*
D23*
X28550000Y-37290000D03*
X28550000Y-38310000D03*
X28885712Y-67590000D03*
X28885712Y-68610000D03*
D27*
X37850000Y-40950000D03*
X37850000Y-41910000D03*
D23*
X34200000Y-67590000D03*
X34200000Y-68610000D03*
X69930000Y-71040000D03*
X69930000Y-72060000D03*
D37*
X70887500Y-60050000D03*
X70887500Y-61000000D03*
X70887500Y-61950000D03*
X68612500Y-61950000D03*
X68612500Y-60050000D03*
D23*
X64600000Y-28040000D03*
X64600000Y-29060000D03*
D24*
X25300000Y-31260000D03*
X25300000Y-30240000D03*
D23*
X23571428Y-67590000D03*
X23571428Y-68610000D03*
D22*
X48180000Y-37800000D03*
X47220000Y-37800000D03*
D20*
X54530000Y-36000000D03*
X55550000Y-36000000D03*
D23*
X32428568Y-67590000D03*
X32428568Y-68610000D03*
X25342856Y-67590000D03*
X25342856Y-68610000D03*
D31*
X66020000Y-40700000D03*
X65000000Y-40700000D03*
D23*
X57330000Y-71040000D03*
X57330000Y-72060000D03*
X47800000Y-28040000D03*
X47800000Y-29060000D03*
D38*
X62550000Y-58200000D03*
X64125000Y-58200000D03*
D39*
X73562500Y-38400000D03*
X73562500Y-37450000D03*
X73562500Y-36500000D03*
X75837500Y-36500000D03*
X75837500Y-38400000D03*
D40*
X78550000Y-33200000D03*
D41*
X73050000Y-33200000D03*
D31*
X31510000Y-41150000D03*
X30490000Y-41150000D03*
D32*
X45320000Y-37800000D03*
X46280000Y-37800000D03*
X62170000Y-50850000D03*
X63130000Y-50850000D03*
D21*
X36650000Y-40550000D03*
X36650000Y-42100000D03*
D24*
X72450000Y-29060000D03*
X72450000Y-28040000D03*
D42*
X76600000Y-61825000D03*
X76600000Y-63975000D03*
D23*
X23650000Y-35440000D03*
X23650000Y-36460000D03*
D43*
X34000000Y-37550000D03*
X34000000Y-38050000D03*
X34000000Y-38550000D03*
X34000000Y-39050000D03*
X30900000Y-39050000D03*
X30900000Y-38550000D03*
X30900000Y-38050000D03*
X30900000Y-37550000D03*
D28*
X26300000Y-34310000D03*
X26300000Y-33350000D03*
D23*
X64890000Y-71040000D03*
X64890000Y-72060000D03*
D44*
X72150000Y-40850000D03*
X69200000Y-40850000D03*
D23*
X54200000Y-28040000D03*
X54200000Y-29060000D03*
M02*
