%TF.GenerationSoftware,KiCad,Pcbnew,6.0.10-86aedd382b~118~ubuntu22.10.1*%
%TF.CreationDate,2023-02-02T20:30:59+01:00*%
%TF.ProjectId,FPGHat,46504748-6174-42e6-9b69-6361645f7063,rev?*%
%TF.SameCoordinates,Original*%
%TF.FileFunction,Drillmap*%
%TF.FilePolarity,Positive*%
%FSLAX45Y45*%
G04 Gerber Fmt 4.5, Leading zero omitted, Abs format (unit mm)*
G04 Created by KiCad (PCBNEW 6.0.10-86aedd382b~118~ubuntu22.10.1) date 2023-02-02 20:30:59*
%MOMM*%
%LPD*%
G01*
G04 APERTURE LIST*
%ADD10C,0.200000*%
%ADD11C,0.040000*%
%ADD12C,0.060000*%
%ADD13C,0.070000*%
%ADD14C,0.101600*%
G04 APERTURE END LIST*
D10*
X8000000Y-2300000D02*
G75*
G03*
X7700000Y-2000000I-300290J-290D01*
G01*
X7327900Y-4538000D02*
X7327900Y-5461000D01*
X7700000Y-8000002D02*
G75*
G03*
X8001000Y-7700000I0J301002D01*
G01*
X2000000Y-7700000D02*
X2000000Y-2300000D01*
X2300000Y-2000000D02*
X7700000Y-2000000D01*
X8001000Y-5461000D02*
X8001000Y-7700000D01*
X8000000Y-4538000D02*
X7327900Y-4538000D01*
X7700000Y-8000000D02*
X2300000Y-8000000D01*
X8001000Y-5461000D02*
X7327900Y-5461000D01*
X2300000Y-2000000D02*
G75*
G03*
X2000000Y-2300000I295J-300295D01*
G01*
X8000000Y-2300000D02*
X8000000Y-4538000D01*
X2000000Y-7700000D02*
G75*
G03*
X2300000Y-8000000I300000J0D01*
G01*
D11*
X2102500Y-7477500D02*
X2142500Y-7517500D01*
X2142500Y-7477500D02*
X2102500Y-7517500D01*
X2155000Y-6940000D02*
X2195000Y-6980000D01*
X2195000Y-6940000D02*
X2155000Y-6980000D01*
X2192500Y-7375000D02*
X2232500Y-7415000D01*
X2232500Y-7375000D02*
X2192500Y-7415000D01*
X2195000Y-3315000D02*
X2235000Y-3355000D01*
X2235000Y-3315000D02*
X2195000Y-3355000D01*
X2247500Y-6125000D02*
X2287500Y-6165000D01*
X2287500Y-6125000D02*
X2247500Y-6165000D01*
X2280000Y-2540000D02*
X2320000Y-2580000D01*
X2320000Y-2540000D02*
X2280000Y-2580000D01*
X2290000Y-3211900D02*
X2330000Y-3251900D01*
X2330000Y-3211900D02*
X2290000Y-3251900D01*
X2300000Y-3420000D02*
X2340000Y-3460000D01*
X2340000Y-3420000D02*
X2300000Y-3460000D01*
X2307500Y-2230000D02*
X2347500Y-2270000D01*
X2347500Y-2230000D02*
X2307500Y-2270000D01*
X2325000Y-3745000D02*
X2365000Y-3785000D01*
X2365000Y-3745000D02*
X2325000Y-3785000D01*
X2327143Y-6940000D02*
X2367143Y-6980000D01*
X2367143Y-6940000D02*
X2327143Y-6980000D01*
X2370000Y-3330000D02*
X2410000Y-3370000D01*
X2410000Y-3330000D02*
X2370000Y-3370000D01*
X2390000Y-2995000D02*
X2430000Y-3035000D01*
X2430000Y-2995000D02*
X2390000Y-3035000D01*
X2415000Y-3450000D02*
X2455000Y-3490000D01*
X2455000Y-3450000D02*
X2415000Y-3490000D01*
X2430000Y-3700000D02*
X2470000Y-3740000D01*
X2470000Y-3700000D02*
X2430000Y-3740000D01*
X2482500Y-5665000D02*
X2522500Y-5705000D01*
X2522500Y-5665000D02*
X2482500Y-5705000D01*
X2485000Y-3965000D02*
X2525000Y-4005000D01*
X2525000Y-3965000D02*
X2485000Y-4005000D01*
X2487500Y-5110000D02*
X2527500Y-5150000D01*
X2527500Y-5110000D02*
X2487500Y-5150000D01*
X2495000Y-4585000D02*
X2535000Y-4625000D01*
X2535000Y-4585000D02*
X2495000Y-4625000D01*
X2499286Y-6940000D02*
X2539286Y-6980000D01*
X2539286Y-6940000D02*
X2499286Y-6980000D01*
X2530000Y-3710000D02*
X2570000Y-3750000D01*
X2570000Y-3710000D02*
X2530000Y-3750000D01*
X2605000Y-3240000D02*
X2645000Y-3280000D01*
X2645000Y-3240000D02*
X2605000Y-3280000D01*
X2645000Y-2960000D02*
X2685000Y-3000000D01*
X2685000Y-2960000D02*
X2645000Y-3000000D01*
X2671428Y-6940000D02*
X2711428Y-6980000D01*
X2711428Y-6940000D02*
X2671428Y-6980000D01*
X2675000Y-3640000D02*
X2715000Y-3680000D01*
X2715000Y-3640000D02*
X2675000Y-3680000D01*
X2690000Y-4200000D02*
X2730000Y-4240000D01*
X2730000Y-4200000D02*
X2690000Y-4240000D01*
X2710000Y-3985000D02*
X2750000Y-4025000D01*
X2750000Y-3985000D02*
X2710000Y-4025000D01*
X2720000Y-3735000D02*
X2760000Y-3775000D01*
X2760000Y-3735000D02*
X2720000Y-3775000D01*
X2760000Y-2375000D02*
X2800000Y-2415000D01*
X2800000Y-2375000D02*
X2760000Y-2415000D01*
X2843571Y-6940000D02*
X2883571Y-6980000D01*
X2883571Y-6940000D02*
X2843571Y-6980000D01*
X2870000Y-7450000D02*
X2910000Y-7490000D01*
X2910000Y-7450000D02*
X2870000Y-7490000D01*
X2915000Y-2935000D02*
X2955000Y-2975000D01*
X2955000Y-2935000D02*
X2915000Y-2975000D01*
X2930000Y-4075000D02*
X2970000Y-4115000D01*
X2970000Y-4075000D02*
X2930000Y-4115000D01*
X2932500Y-7700000D02*
X2972500Y-7740000D01*
X2972500Y-7700000D02*
X2932500Y-7740000D01*
X2935000Y-3225000D02*
X2975000Y-3265000D01*
X2975000Y-3225000D02*
X2935000Y-3265000D01*
X2935000Y-3350000D02*
X2975000Y-3390000D01*
X2975000Y-3350000D02*
X2935000Y-3390000D01*
X2950000Y-3915000D02*
X2990000Y-3955000D01*
X2990000Y-3915000D02*
X2950000Y-3955000D01*
X2950000Y-5857500D02*
X2990000Y-5897500D01*
X2990000Y-5857500D02*
X2950000Y-5897500D01*
X3015714Y-6940000D02*
X3055714Y-6980000D01*
X3055714Y-6940000D02*
X3015714Y-6980000D01*
X3030000Y-3635000D02*
X3070000Y-3675000D01*
X3070000Y-3635000D02*
X3030000Y-3675000D01*
X3065000Y-3130000D02*
X3105000Y-3170000D01*
X3105000Y-3130000D02*
X3065000Y-3170000D01*
X3065000Y-3245000D02*
X3105000Y-3285000D01*
X3105000Y-3245000D02*
X3065000Y-3285000D01*
X3080000Y-4225000D02*
X3120000Y-4265000D01*
X3120000Y-4225000D02*
X3080000Y-4265000D01*
X3090000Y-3510000D02*
X3130000Y-3550000D01*
X3130000Y-3510000D02*
X3090000Y-3550000D01*
X3100000Y-5335000D02*
X3140000Y-5375000D01*
X3140000Y-5335000D02*
X3100000Y-5375000D01*
X3115000Y-3380000D02*
X3155000Y-3420000D01*
X3155000Y-3380000D02*
X3115000Y-3420000D01*
X3132500Y-4697500D02*
X3172500Y-4737500D01*
X3172500Y-4697500D02*
X3132500Y-4737500D01*
X3187857Y-6940000D02*
X3227857Y-6980000D01*
X3227857Y-6940000D02*
X3187857Y-6980000D01*
X3195000Y-3015000D02*
X3235000Y-3055000D01*
X3235000Y-3015000D02*
X3195000Y-3055000D01*
X3267500Y-7380000D02*
X3307500Y-7420000D01*
X3307500Y-7380000D02*
X3267500Y-7420000D01*
X3280000Y-3825000D02*
X3320000Y-3865000D01*
X3320000Y-3825000D02*
X3280000Y-3865000D01*
X3345000Y-3610000D02*
X3385000Y-3650000D01*
X3385000Y-3610000D02*
X3345000Y-3650000D01*
X3360000Y-6940000D02*
X3400000Y-6980000D01*
X3400000Y-6940000D02*
X3360000Y-6980000D01*
X3370000Y-7502500D02*
X3410000Y-7542500D01*
X3410000Y-7502500D02*
X3370000Y-7542500D01*
X3380800Y-2815200D02*
X3420800Y-2855200D01*
X3420800Y-2815200D02*
X3380800Y-2855200D01*
X3410000Y-3975000D02*
X3450000Y-4015000D01*
X3450000Y-3975000D02*
X3410000Y-4015000D01*
X3425000Y-4137500D02*
X3465000Y-4177500D01*
X3465000Y-4137500D02*
X3425000Y-4177500D01*
X3447500Y-5312500D02*
X3487500Y-5352500D01*
X3487500Y-5312500D02*
X3447500Y-5352500D01*
X3490000Y-3285000D02*
X3530000Y-3325000D01*
X3530000Y-3285000D02*
X3490000Y-3325000D01*
X3495000Y-3700000D02*
X3535000Y-3740000D01*
X3535000Y-3700000D02*
X3495000Y-3740000D01*
X3502500Y-7180000D02*
X3542500Y-7220000D01*
X3542500Y-7180000D02*
X3502500Y-7220000D01*
X3505000Y-5765000D02*
X3545000Y-5805000D01*
X3545000Y-5765000D02*
X3505000Y-5805000D01*
X3510000Y-3960000D02*
X3550000Y-4000000D01*
X3550000Y-3960000D02*
X3510000Y-4000000D01*
X3520000Y-2215000D02*
X3560000Y-2255000D01*
X3560000Y-2215000D02*
X3520000Y-2255000D01*
X3520000Y-4515000D02*
X3560000Y-4555000D01*
X3560000Y-4515000D02*
X3520000Y-4555000D01*
X3540000Y-6725000D02*
X3580000Y-6765000D01*
X3580000Y-6725000D02*
X3540000Y-6765000D01*
X3560000Y-5605000D02*
X3600000Y-5645000D01*
X3600000Y-5605000D02*
X3560000Y-5645000D01*
X3569100Y-7777800D02*
X3609100Y-7817800D01*
X3609100Y-7777800D02*
X3569100Y-7817800D01*
X3640000Y-5560000D02*
X3680000Y-5600000D01*
X3680000Y-5560000D02*
X3640000Y-5600000D01*
X3645000Y-3225000D02*
X3685000Y-3265000D01*
X3685000Y-3225000D02*
X3645000Y-3265000D01*
X3712500Y-5190000D02*
X3752500Y-5230000D01*
X3752500Y-5190000D02*
X3712500Y-5230000D01*
X3747500Y-4727500D02*
X3787500Y-4767500D01*
X3787500Y-4727500D02*
X3747500Y-4767500D01*
X3777500Y-6515000D02*
X3817500Y-6555000D01*
X3817500Y-6515000D02*
X3777500Y-6555000D01*
X3777500Y-6910000D02*
X3817500Y-6950000D01*
X3817500Y-6910000D02*
X3777500Y-6950000D01*
X3780000Y-6670000D02*
X3820000Y-6710000D01*
X3820000Y-6670000D02*
X3780000Y-6710000D01*
X3782500Y-6380000D02*
X3822500Y-6420000D01*
X3822500Y-6380000D02*
X3782500Y-6420000D01*
X3795000Y-2990000D02*
X3835000Y-3030000D01*
X3835000Y-2990000D02*
X3795000Y-3030000D01*
X3840000Y-3790000D02*
X3880000Y-3830000D01*
X3880000Y-3790000D02*
X3840000Y-3830000D01*
X3905000Y-3880000D02*
X3945000Y-3920000D01*
X3945000Y-3880000D02*
X3905000Y-3920000D01*
X4034900Y-7166800D02*
X4074900Y-7206800D01*
X4074900Y-7166800D02*
X4034900Y-7206800D01*
X4045000Y-3475000D02*
X4085000Y-3515000D01*
X4085000Y-3475000D02*
X4045000Y-3515000D01*
X4047500Y-3322500D02*
X4087500Y-3362500D01*
X4087500Y-3322500D02*
X4047500Y-3362500D01*
X4052500Y-6907500D02*
X4092500Y-6947500D01*
X4092500Y-6907500D02*
X4052500Y-6947500D01*
X4057500Y-4057500D02*
X4097500Y-4097500D01*
X4097500Y-4057500D02*
X4057500Y-4097500D01*
X4060000Y-4165000D02*
X4100000Y-4205000D01*
X4100000Y-4165000D02*
X4060000Y-4205000D01*
X4075000Y-4390000D02*
X4115000Y-4430000D01*
X4115000Y-4390000D02*
X4075000Y-4430000D01*
X4082500Y-4282500D02*
X4122500Y-4322500D01*
X4122500Y-4282500D02*
X4082500Y-4322500D01*
X4090000Y-2730000D02*
X4130000Y-2770000D01*
X4130000Y-2730000D02*
X4090000Y-2770000D01*
X4125000Y-4487500D02*
X4165000Y-4527500D01*
X4165000Y-4487500D02*
X4125000Y-4527500D01*
X4125000Y-4842500D02*
X4165000Y-4882500D01*
X4165000Y-4842500D02*
X4125000Y-4882500D01*
X4135000Y-5822500D02*
X4175000Y-5862500D01*
X4175000Y-5822500D02*
X4135000Y-5862500D01*
X4140000Y-5240000D02*
X4180000Y-5280000D01*
X4180000Y-5240000D02*
X4140000Y-5280000D01*
X4185000Y-3205000D02*
X4225000Y-3245000D01*
X4225000Y-3205000D02*
X4185000Y-3245000D01*
X4192500Y-4570000D02*
X4232500Y-4610000D01*
X4232500Y-4570000D02*
X4192500Y-4610000D01*
X4272500Y-5850000D02*
X4312500Y-5890000D01*
X4312500Y-5850000D02*
X4272500Y-5890000D01*
X4280000Y-3460000D02*
X4320000Y-3500000D01*
X4320000Y-3460000D02*
X4280000Y-3500000D01*
X4280000Y-6317500D02*
X4320000Y-6357500D01*
X4320000Y-6317500D02*
X4280000Y-6357500D01*
X4290000Y-3130000D02*
X4330000Y-3170000D01*
X4330000Y-3130000D02*
X4290000Y-3170000D01*
X4293700Y-6849000D02*
X4333700Y-6889000D01*
X4333700Y-6849000D02*
X4293700Y-6889000D01*
X4405000Y-5890000D02*
X4445000Y-5930000D01*
X4445000Y-5890000D02*
X4405000Y-5930000D01*
X4445000Y-3215000D02*
X4485000Y-3255000D01*
X4485000Y-3215000D02*
X4445000Y-3255000D01*
X4447000Y-3695000D02*
X4487000Y-3735000D01*
X4487000Y-3695000D02*
X4447000Y-3735000D01*
X4455000Y-4200000D02*
X4495000Y-4240000D01*
X4495000Y-4200000D02*
X4455000Y-4240000D01*
X4510000Y-4310000D02*
X4550000Y-4350000D01*
X4550000Y-4310000D02*
X4510000Y-4350000D01*
X4520000Y-5900000D02*
X4560000Y-5940000D01*
X4560000Y-5900000D02*
X4520000Y-5940000D01*
X4545500Y-6919400D02*
X4585500Y-6959400D01*
X4585500Y-6919400D02*
X4545500Y-6959400D01*
X4550000Y-3127500D02*
X4590000Y-3167500D01*
X4590000Y-3127500D02*
X4550000Y-3167500D01*
X4555700Y-6483800D02*
X4595700Y-6523800D01*
X4595700Y-6483800D02*
X4555700Y-6523800D01*
X4557500Y-6727500D02*
X4597500Y-6767500D01*
X4597500Y-6727500D02*
X4557500Y-6767500D01*
X4560000Y-3650000D02*
X4600000Y-3690000D01*
X4600000Y-3650000D02*
X4560000Y-3690000D01*
X4562800Y-2132900D02*
X4602800Y-2172900D01*
X4602800Y-2132900D02*
X4562800Y-2172900D01*
X4565000Y-7837500D02*
X4605000Y-7877500D01*
X4605000Y-7837500D02*
X4565000Y-7877500D01*
X4577500Y-4172500D02*
X4617500Y-4212500D01*
X4617500Y-4172500D02*
X4577500Y-4212500D01*
X4580000Y-4065000D02*
X4620000Y-4105000D01*
X4620000Y-4065000D02*
X4580000Y-4105000D01*
X4581000Y-6215400D02*
X4621000Y-6255400D01*
X4621000Y-6215400D02*
X4581000Y-6255400D01*
X4660000Y-5250000D02*
X4700000Y-5290000D01*
X4700000Y-5250000D02*
X4660000Y-5290000D01*
X4675000Y-4850000D02*
X4715000Y-4890000D01*
X4715000Y-4850000D02*
X4675000Y-4890000D01*
X4695000Y-5730000D02*
X4735000Y-5770000D01*
X4735000Y-5730000D02*
X4695000Y-5770000D01*
X4705000Y-3210000D02*
X4745000Y-3250000D01*
X4745000Y-3210000D02*
X4705000Y-3250000D01*
X4712500Y-4185000D02*
X4752500Y-4225000D01*
X4752500Y-4185000D02*
X4712500Y-4225000D01*
X4725000Y-4465000D02*
X4765000Y-4505000D01*
X4765000Y-4465000D02*
X4725000Y-4505000D01*
X4750000Y-4695000D02*
X4790000Y-4735000D01*
X4790000Y-4695000D02*
X4750000Y-4735000D01*
X4777500Y-4107500D02*
X4817500Y-4147500D01*
X4817500Y-4107500D02*
X4777500Y-4147500D01*
X4780000Y-5345000D02*
X4820000Y-5385000D01*
X4820000Y-5345000D02*
X4780000Y-5385000D01*
X4790000Y-2400000D02*
X4830000Y-2440000D01*
X4830000Y-2400000D02*
X4790000Y-2440000D01*
X4794500Y-7057100D02*
X4834500Y-7097100D01*
X4834500Y-7057100D02*
X4794500Y-7097100D01*
X4800000Y-3645000D02*
X4840000Y-3685000D01*
X4840000Y-3645000D02*
X4800000Y-3685000D01*
X4815000Y-5610000D02*
X4855000Y-5650000D01*
X4855000Y-5610000D02*
X4815000Y-5650000D01*
X4825000Y-4255000D02*
X4865000Y-4295000D01*
X4865000Y-4255000D02*
X4825000Y-4295000D01*
X4837700Y-6799000D02*
X4877700Y-6839000D01*
X4877700Y-6799000D02*
X4837700Y-6839000D01*
X4855000Y-2725000D02*
X4895000Y-2765000D01*
X4895000Y-2725000D02*
X4855000Y-2765000D01*
X4910000Y-3185000D02*
X4950000Y-3225000D01*
X4950000Y-3185000D02*
X4910000Y-3225000D01*
X4920000Y-4350000D02*
X4960000Y-4390000D01*
X4960000Y-4350000D02*
X4920000Y-4390000D01*
X4939000Y-6738200D02*
X4979000Y-6778200D01*
X4979000Y-6738200D02*
X4939000Y-6778200D01*
X4960000Y-3715000D02*
X5000000Y-3755000D01*
X5000000Y-3715000D02*
X4960000Y-3755000D01*
X4985000Y-3255000D02*
X5025000Y-3295000D01*
X5025000Y-3255000D02*
X4985000Y-3295000D01*
X5010000Y-6260000D02*
X5050000Y-6300000D01*
X5050000Y-6260000D02*
X5010000Y-6300000D01*
X5047500Y-3072500D02*
X5087500Y-3112500D01*
X5087500Y-3072500D02*
X5047500Y-3112500D01*
X5060000Y-3640000D02*
X5100000Y-3680000D01*
X5100000Y-3640000D02*
X5060000Y-3680000D01*
X5064500Y-7206200D02*
X5104500Y-7246200D01*
X5104500Y-7206200D02*
X5064500Y-7246200D01*
X5080000Y-5555000D02*
X5120000Y-5595000D01*
X5120000Y-5555000D02*
X5080000Y-5595000D01*
X5108400Y-6746800D02*
X5148400Y-6786800D01*
X5148400Y-6746800D02*
X5108400Y-6786800D01*
X5140000Y-4055000D02*
X5180000Y-4095000D01*
X5180000Y-4055000D02*
X5140000Y-4095000D01*
X5145000Y-3185000D02*
X5185000Y-3225000D01*
X5185000Y-3185000D02*
X5145000Y-3225000D01*
X5150000Y-2662500D02*
X5190000Y-2702500D01*
X5190000Y-2662500D02*
X5150000Y-2702500D01*
X5165000Y-4765000D02*
X5205000Y-4805000D01*
X5205000Y-4765000D02*
X5165000Y-4805000D01*
X5170000Y-2195000D02*
X5210000Y-2235000D01*
X5210000Y-2195000D02*
X5170000Y-2235000D01*
X5200000Y-4610000D02*
X5240000Y-4650000D01*
X5240000Y-4610000D02*
X5200000Y-4650000D01*
X5245000Y-5885000D02*
X5285000Y-5925000D01*
X5285000Y-5885000D02*
X5245000Y-5925000D01*
X5255000Y-4080000D02*
X5295000Y-4120000D01*
X5295000Y-4080000D02*
X5255000Y-4120000D01*
X5257900Y-6794000D02*
X5297900Y-6834000D01*
X5297900Y-6794000D02*
X5257900Y-6834000D01*
X5264400Y-6280100D02*
X5304400Y-6320100D01*
X5304400Y-6280100D02*
X5264400Y-6320100D01*
X5295200Y-6397100D02*
X5335200Y-6437100D01*
X5335200Y-6397100D02*
X5295200Y-6437100D01*
X5297500Y-3095000D02*
X5337500Y-3135000D01*
X5337500Y-3095000D02*
X5297500Y-3135000D01*
X5300000Y-5385000D02*
X5340000Y-5425000D01*
X5340000Y-5385000D02*
X5300000Y-5425000D01*
X5307500Y-3290000D02*
X5347500Y-3330000D01*
X5347500Y-3290000D02*
X5307500Y-3330000D01*
X5310000Y-3530000D02*
X5350000Y-3570000D01*
X5350000Y-3530000D02*
X5310000Y-3570000D01*
X5350000Y-5895000D02*
X5390000Y-5935000D01*
X5390000Y-5895000D02*
X5350000Y-5935000D01*
X5365000Y-4070000D02*
X5405000Y-4110000D01*
X5405000Y-4070000D02*
X5365000Y-4110000D01*
X5368000Y-4173000D02*
X5408000Y-4213000D01*
X5408000Y-4173000D02*
X5368000Y-4213000D01*
X5407500Y-3692500D02*
X5447500Y-3732500D01*
X5447500Y-3692500D02*
X5407500Y-3732500D01*
X5442100Y-6758200D02*
X5482100Y-6798200D01*
X5482100Y-6758200D02*
X5442100Y-6798200D01*
X5480000Y-3770000D02*
X5520000Y-3810000D01*
X5520000Y-3770000D02*
X5480000Y-3810000D01*
X5515000Y-7822500D02*
X5555000Y-7862500D01*
X5555000Y-7822500D02*
X5515000Y-7862500D01*
X5522650Y-4565000D02*
X5562650Y-4605000D01*
X5562650Y-4565000D02*
X5522650Y-4605000D01*
X5537600Y-6406600D02*
X5577600Y-6446600D01*
X5577600Y-6406600D02*
X5537600Y-6446600D01*
X5540000Y-5880000D02*
X5580000Y-5920000D01*
X5580000Y-5880000D02*
X5540000Y-5920000D01*
X5550000Y-3075000D02*
X5590000Y-3115000D01*
X5590000Y-3075000D02*
X5550000Y-3115000D01*
X5557500Y-7422500D02*
X5597500Y-7462500D01*
X5597500Y-7422500D02*
X5557500Y-7462500D01*
X5585000Y-3425000D02*
X5625000Y-3465000D01*
X5625000Y-3425000D02*
X5585000Y-3465000D01*
X5585000Y-6742500D02*
X5625000Y-6782500D01*
X5625000Y-6742500D02*
X5585000Y-6782500D01*
X5590000Y-4075000D02*
X5630000Y-4115000D01*
X5630000Y-4075000D02*
X5590000Y-4115000D01*
X5610000Y-3250000D02*
X5650000Y-3290000D01*
X5650000Y-3250000D02*
X5610000Y-3290000D01*
X5645000Y-4570000D02*
X5685000Y-4610000D01*
X5685000Y-4570000D02*
X5645000Y-4610000D01*
X5647000Y-6273500D02*
X5687000Y-6313500D01*
X5687000Y-6273500D02*
X5647000Y-6313500D01*
X5680000Y-3740000D02*
X5720000Y-3780000D01*
X5720000Y-3740000D02*
X5680000Y-3780000D01*
X5685000Y-4140000D02*
X5725000Y-4180000D01*
X5725000Y-4140000D02*
X5685000Y-4180000D01*
X5710000Y-4735000D02*
X5750000Y-4775000D01*
X5750000Y-4735000D02*
X5710000Y-4775000D01*
X5712500Y-4840000D02*
X5752500Y-4880000D01*
X5752500Y-4840000D02*
X5712500Y-4880000D01*
X5735000Y-5390000D02*
X5775000Y-5430000D01*
X5775000Y-5390000D02*
X5735000Y-5430000D01*
X5740000Y-5190000D02*
X5780000Y-5230000D01*
X5780000Y-5190000D02*
X5740000Y-5230000D01*
X5755000Y-4595000D02*
X5795000Y-4635000D01*
X5795000Y-4595000D02*
X5755000Y-4635000D01*
X5765800Y-6778200D02*
X5805800Y-6818200D01*
X5805800Y-6778200D02*
X5765800Y-6818200D01*
X5790000Y-4135000D02*
X5830000Y-4175000D01*
X5830000Y-4135000D02*
X5790000Y-4175000D01*
X5805000Y-5740000D02*
X5845000Y-5780000D01*
X5845000Y-5740000D02*
X5805000Y-5780000D01*
X5810000Y-6410000D02*
X5850000Y-6450000D01*
X5850000Y-6410000D02*
X5810000Y-6450000D01*
X5815000Y-3070000D02*
X5855000Y-3110000D01*
X5855000Y-3070000D02*
X5815000Y-3110000D01*
X5815000Y-3400000D02*
X5855000Y-3440000D01*
X5855000Y-3400000D02*
X5815000Y-3440000D01*
X5815000Y-6310000D02*
X5855000Y-6350000D01*
X5855000Y-6310000D02*
X5815000Y-6350000D01*
X5825000Y-3620000D02*
X5865000Y-3660000D01*
X5865000Y-3620000D02*
X5825000Y-3660000D01*
X5830000Y-3725000D02*
X5870000Y-3765000D01*
X5870000Y-3725000D02*
X5830000Y-3765000D01*
X5840000Y-5245000D02*
X5880000Y-5285000D01*
X5880000Y-5245000D02*
X5840000Y-5285000D01*
X5845000Y-4050000D02*
X5885000Y-4090000D01*
X5885000Y-4050000D02*
X5845000Y-4090000D01*
X5875000Y-4865000D02*
X5915000Y-4905000D01*
X5915000Y-4865000D02*
X5875000Y-4905000D01*
X5885000Y-4700000D02*
X5925000Y-4740000D01*
X5925000Y-4700000D02*
X5885000Y-4740000D01*
X5887650Y-4555000D02*
X5927650Y-4595000D01*
X5927650Y-4555000D02*
X5887650Y-4595000D01*
X5895000Y-5055000D02*
X5935000Y-5095000D01*
X5935000Y-5055000D02*
X5895000Y-5095000D01*
X5910000Y-5320000D02*
X5950000Y-5360000D01*
X5950000Y-5320000D02*
X5910000Y-5360000D01*
X5910000Y-5850000D02*
X5950000Y-5890000D01*
X5950000Y-5850000D02*
X5910000Y-5890000D01*
X5925000Y-3195000D02*
X5965000Y-3235000D01*
X5965000Y-3195000D02*
X5925000Y-3235000D01*
X5960000Y-3805000D02*
X6000000Y-3845000D01*
X6000000Y-3805000D02*
X5960000Y-3845000D01*
X5960000Y-3940000D02*
X6000000Y-3980000D01*
X6000000Y-3940000D02*
X5960000Y-3980000D01*
X5965000Y-6000000D02*
X6005000Y-6040000D01*
X6005000Y-6000000D02*
X5965000Y-6040000D01*
X5970800Y-6279000D02*
X6010800Y-6319000D01*
X6010800Y-6279000D02*
X5970800Y-6319000D01*
X5997300Y-6773500D02*
X6037300Y-6813500D01*
X6037300Y-6773500D02*
X5997300Y-6813500D01*
X6060000Y-3185000D02*
X6100000Y-3225000D01*
X6100000Y-3185000D02*
X6060000Y-3225000D01*
X6062500Y-3072500D02*
X6102500Y-3112500D01*
X6102500Y-3072500D02*
X6062500Y-3112500D01*
X6170000Y-4160000D02*
X6210000Y-4200000D01*
X6210000Y-4160000D02*
X6170000Y-4200000D01*
X6180000Y-6185000D02*
X6220000Y-6225000D01*
X6220000Y-6185000D02*
X6180000Y-6225000D01*
X6190000Y-6750000D02*
X6230000Y-6790000D01*
X6230000Y-6750000D02*
X6190000Y-6790000D01*
X6200000Y-5920000D02*
X6240000Y-5960000D01*
X6240000Y-5920000D02*
X6200000Y-5960000D01*
X6204000Y-4330000D02*
X6244000Y-4370000D01*
X6244000Y-4330000D02*
X6204000Y-4370000D01*
X6250000Y-3195000D02*
X6290000Y-3235000D01*
X6290000Y-3195000D02*
X6250000Y-3235000D01*
X6255000Y-4235000D02*
X6295000Y-4275000D01*
X6295000Y-4235000D02*
X6255000Y-4275000D01*
X6270000Y-4135000D02*
X6310000Y-4175000D01*
X6310000Y-4135000D02*
X6270000Y-4175000D01*
X6270000Y-6005000D02*
X6310000Y-6045000D01*
X6310000Y-6005000D02*
X6270000Y-6045000D01*
X6280000Y-5415000D02*
X6320000Y-5455000D01*
X6320000Y-5415000D02*
X6280000Y-5455000D01*
X6280000Y-5640000D02*
X6320000Y-5680000D01*
X6320000Y-5640000D02*
X6280000Y-5680000D01*
X6285000Y-3750000D02*
X6325000Y-3790000D01*
X6325000Y-3750000D02*
X6285000Y-3790000D01*
X6285000Y-6105000D02*
X6325000Y-6145000D01*
X6325000Y-6105000D02*
X6285000Y-6145000D01*
X6290000Y-5540000D02*
X6330000Y-5580000D01*
X6330000Y-5540000D02*
X6290000Y-5580000D01*
X6310000Y-3595000D02*
X6350000Y-3635000D01*
X6350000Y-3595000D02*
X6310000Y-3635000D01*
X6310000Y-4720000D02*
X6350000Y-4760000D01*
X6350000Y-4720000D02*
X6310000Y-4760000D01*
X6335000Y-3127500D02*
X6375000Y-3167500D01*
X6375000Y-3127500D02*
X6335000Y-3167500D01*
X6345000Y-6910000D02*
X6385000Y-6950000D01*
X6385000Y-6910000D02*
X6345000Y-6950000D01*
X6365000Y-3500000D02*
X6405000Y-3540000D01*
X6405000Y-3500000D02*
X6365000Y-3540000D01*
X6371200Y-2142500D02*
X6411200Y-2182500D01*
X6411200Y-2142500D02*
X6371200Y-2182500D01*
X6385000Y-4495000D02*
X6425000Y-4535000D01*
X6425000Y-4495000D02*
X6385000Y-4535000D01*
X6420000Y-4910000D02*
X6460000Y-4950000D01*
X6460000Y-4910000D02*
X6420000Y-4950000D01*
X6490000Y-3045000D02*
X6530000Y-3085000D01*
X6530000Y-3045000D02*
X6490000Y-3085000D01*
X6490000Y-3145000D02*
X6530000Y-3185000D01*
X6530000Y-3145000D02*
X6490000Y-3185000D01*
X6495000Y-5825000D02*
X6535000Y-5865000D01*
X6535000Y-5825000D02*
X6495000Y-5865000D01*
X6496200Y-7814100D02*
X6536200Y-7854100D01*
X6536200Y-7814100D02*
X6496200Y-7854100D01*
X6540000Y-4760000D02*
X6580000Y-4800000D01*
X6580000Y-4760000D02*
X6540000Y-4800000D01*
X6565000Y-4490000D02*
X6605000Y-4530000D01*
X6605000Y-4490000D02*
X6565000Y-4530000D01*
X6570000Y-2810000D02*
X6610000Y-2850000D01*
X6610000Y-2810000D02*
X6570000Y-2850000D01*
X6570000Y-5210000D02*
X6610000Y-5250000D01*
X6610000Y-5210000D02*
X6570000Y-5250000D01*
X6585000Y-3092000D02*
X6625000Y-3132000D01*
X6625000Y-3092000D02*
X6585000Y-3132000D01*
X6600000Y-3930000D02*
X6640000Y-3970000D01*
X6640000Y-3930000D02*
X6600000Y-3970000D01*
X6610000Y-6165000D02*
X6650000Y-6205000D01*
X6650000Y-6165000D02*
X6610000Y-6205000D01*
X6615000Y-5490000D02*
X6655000Y-5530000D01*
X6655000Y-5490000D02*
X6615000Y-5530000D01*
X6615000Y-5615000D02*
X6655000Y-5655000D01*
X6655000Y-5615000D02*
X6615000Y-5655000D01*
X6630000Y-6995000D02*
X6670000Y-7035000D01*
X6670000Y-6995000D02*
X6630000Y-7035000D01*
X6645000Y-3540000D02*
X6685000Y-3580000D01*
X6685000Y-3540000D02*
X6645000Y-3580000D01*
X6660000Y-5020000D02*
X6700000Y-5060000D01*
X6700000Y-5020000D02*
X6660000Y-5060000D01*
X6685000Y-6280000D02*
X6725000Y-6320000D01*
X6725000Y-6280000D02*
X6685000Y-6320000D01*
X6690000Y-3410000D02*
X6730000Y-3450000D01*
X6730000Y-3410000D02*
X6690000Y-3450000D01*
X6690000Y-6080000D02*
X6730000Y-6120000D01*
X6730000Y-6080000D02*
X6690000Y-6120000D01*
X6720000Y-4065000D02*
X6760000Y-4105000D01*
X6760000Y-4065000D02*
X6720000Y-4105000D01*
X6735000Y-3650000D02*
X6775000Y-3690000D01*
X6775000Y-3650000D02*
X6735000Y-3690000D01*
X6760000Y-3310000D02*
X6800000Y-3350000D01*
X6800000Y-3310000D02*
X6760000Y-3350000D01*
X6795000Y-5390000D02*
X6835000Y-5430000D01*
X6835000Y-5390000D02*
X6795000Y-5430000D01*
X6855000Y-6630000D02*
X6895000Y-6670000D01*
X6895000Y-6630000D02*
X6855000Y-6670000D01*
X6860000Y-2922500D02*
X6900000Y-2962500D01*
X6900000Y-2922500D02*
X6860000Y-2962500D01*
X6880000Y-5800000D02*
X6920000Y-5840000D01*
X6920000Y-5800000D02*
X6880000Y-5840000D01*
X6885000Y-5500000D02*
X6925000Y-5540000D01*
X6925000Y-5500000D02*
X6885000Y-5540000D01*
X6925000Y-4550000D02*
X6965000Y-4590000D01*
X6965000Y-4550000D02*
X6925000Y-4590000D01*
X6925000Y-5410000D02*
X6965000Y-5450000D01*
X6965000Y-5410000D02*
X6925000Y-5450000D01*
X6930000Y-3795000D02*
X6970000Y-3835000D01*
X6970000Y-3795000D02*
X6930000Y-3835000D01*
X6935000Y-4875000D02*
X6975000Y-4915000D01*
X6975000Y-4875000D02*
X6935000Y-4915000D01*
X6935000Y-5035000D02*
X6975000Y-5075000D01*
X6975000Y-5035000D02*
X6935000Y-5075000D01*
X6940000Y-6080000D02*
X6980000Y-6120000D01*
X6980000Y-6080000D02*
X6940000Y-6120000D01*
X6975000Y-3670000D02*
X7015000Y-3710000D01*
X7015000Y-3670000D02*
X6975000Y-3710000D01*
X6975000Y-5155000D02*
X7015000Y-5195000D01*
X7015000Y-5155000D02*
X6975000Y-5195000D01*
X7035000Y-4955000D02*
X7075000Y-4995000D01*
X7075000Y-4955000D02*
X7035000Y-4995000D01*
X7035000Y-5495000D02*
X7075000Y-5535000D01*
X7075000Y-5495000D02*
X7035000Y-5535000D01*
X7050000Y-5390000D02*
X7090000Y-5430000D01*
X7090000Y-5390000D02*
X7050000Y-5430000D01*
X7055000Y-6660000D02*
X7095000Y-6700000D01*
X7095000Y-6660000D02*
X7055000Y-6700000D01*
X7055000Y-6840000D02*
X7095000Y-6880000D01*
X7095000Y-6840000D02*
X7055000Y-6880000D01*
X7067500Y-2807500D02*
X7107500Y-2847500D01*
X7107500Y-2807500D02*
X7067500Y-2847500D01*
X7080000Y-6470000D02*
X7120000Y-6510000D01*
X7120000Y-6470000D02*
X7080000Y-6510000D01*
X7100000Y-4600000D02*
X7140000Y-4640000D01*
X7140000Y-4600000D02*
X7100000Y-4640000D01*
X7105000Y-6320000D02*
X7145000Y-6360000D01*
X7145000Y-6320000D02*
X7105000Y-6360000D01*
X7115000Y-4700000D02*
X7155000Y-4740000D01*
X7155000Y-4700000D02*
X7115000Y-4740000D01*
X7135000Y-2920000D02*
X7175000Y-2960000D01*
X7175000Y-2920000D02*
X7135000Y-2960000D01*
X7145000Y-4455000D02*
X7185000Y-4495000D01*
X7185000Y-4455000D02*
X7145000Y-4495000D01*
X7165000Y-5490000D02*
X7205000Y-5530000D01*
X7205000Y-5490000D02*
X7165000Y-5530000D01*
X7170000Y-5395000D02*
X7210000Y-5435000D01*
X7210000Y-5395000D02*
X7170000Y-5435000D01*
X7175000Y-3675000D02*
X7215000Y-3715000D01*
X7215000Y-3675000D02*
X7175000Y-3715000D01*
X7180000Y-5760000D02*
X7220000Y-5800000D01*
X7220000Y-5760000D02*
X7180000Y-5800000D01*
X7210000Y-4560000D02*
X7250000Y-4600000D01*
X7250000Y-4560000D02*
X7210000Y-4600000D01*
X7230000Y-6996807D02*
X7270000Y-7036807D01*
X7270000Y-6996807D02*
X7230000Y-7036807D01*
X7230000Y-7096807D02*
X7270000Y-7136807D01*
X7270000Y-7096807D02*
X7230000Y-7136807D01*
X7235000Y-7802500D02*
X7275000Y-7842500D01*
X7275000Y-7802500D02*
X7235000Y-7842500D01*
X7255500Y-5640000D02*
X7295500Y-5680000D01*
X7295500Y-5640000D02*
X7255500Y-5680000D01*
X7260000Y-6135000D02*
X7300000Y-6175000D01*
X7300000Y-6135000D02*
X7260000Y-6175000D01*
X7312500Y-4278700D02*
X7352500Y-4318700D01*
X7352500Y-4278700D02*
X7312500Y-4318700D01*
X7325000Y-7043807D02*
X7365000Y-7083807D01*
X7365000Y-7043807D02*
X7325000Y-7083807D01*
X7335000Y-4140000D02*
X7375000Y-4180000D01*
X7375000Y-4140000D02*
X7335000Y-4180000D01*
X7340000Y-3000000D02*
X7380000Y-3040000D01*
X7380000Y-3000000D02*
X7340000Y-3040000D01*
X7395000Y-2795000D02*
X7435000Y-2835000D01*
X7435000Y-2795000D02*
X7395000Y-2835000D01*
X7405000Y-6160000D02*
X7445000Y-6200000D01*
X7445000Y-6160000D02*
X7405000Y-6200000D01*
X7417500Y-2205000D02*
X7457500Y-2245000D01*
X7457500Y-2205000D02*
X7417500Y-2245000D01*
X7425000Y-6595000D02*
X7465000Y-6635000D01*
X7465000Y-6595000D02*
X7425000Y-6635000D01*
X7430000Y-6770000D02*
X7470000Y-6810000D01*
X7470000Y-6770000D02*
X7430000Y-6810000D01*
X7435000Y-4080000D02*
X7475000Y-4120000D01*
X7475000Y-4080000D02*
X7435000Y-4120000D01*
X7460000Y-7410000D02*
X7500000Y-7450000D01*
X7500000Y-7410000D02*
X7460000Y-7450000D01*
X7506300Y-5665800D02*
X7546300Y-5705800D01*
X7546300Y-5665800D02*
X7506300Y-5705800D01*
X7673900Y-4247500D02*
X7713900Y-4287500D01*
X7713900Y-4247500D02*
X7673900Y-4287500D01*
X7682500Y-3982500D02*
X7722500Y-4022500D01*
X7722500Y-3982500D02*
X7682500Y-4022500D01*
X7755000Y-7560000D02*
X7795000Y-7600000D01*
X7795000Y-7560000D02*
X7755000Y-7600000D01*
X7835000Y-2995000D02*
X7875000Y-3035000D01*
X7875000Y-2995000D02*
X7835000Y-3035000D01*
X7845000Y-3915000D02*
X7885000Y-3955000D01*
X7885000Y-3915000D02*
X7845000Y-3955000D01*
X7845000Y-5705000D02*
X7885000Y-5745000D01*
X7885000Y-5705000D02*
X7845000Y-5745000D01*
X7875000Y-6215000D02*
X7915000Y-6255000D01*
X7915000Y-6215000D02*
X7875000Y-6255000D01*
X7880000Y-7135000D02*
X7920000Y-7175000D01*
X7920000Y-7135000D02*
X7880000Y-7175000D01*
X7885000Y-6655000D02*
X7925000Y-6695000D01*
X7925000Y-6655000D02*
X7885000Y-6695000D01*
D12*
X7410000Y-4438000D02*
G75*
G03*
X7410000Y-4438000I-30000J0D01*
G01*
D10*
X7340000Y-4468000D02*
X7420000Y-4468000D01*
X7340000Y-4408000D02*
X7420000Y-4408000D01*
X7420000Y-4468000D02*
G75*
G03*
X7420000Y-4408000I0J30000D01*
G01*
X7340000Y-4408000D02*
G75*
G03*
X7340000Y-4468000I0J-30000D01*
G01*
D12*
X7410000Y-5562000D02*
G75*
G03*
X7410000Y-5562000I-30000J0D01*
G01*
D10*
X7340000Y-5592000D02*
X7420000Y-5592000D01*
X7340000Y-5532000D02*
X7420000Y-5532000D01*
X7420000Y-5592000D02*
G75*
G03*
X7420000Y-5532000I0J30000D01*
G01*
X7340000Y-5532000D02*
G75*
G03*
X7340000Y-5592000I0J-30000D01*
G01*
D12*
X7810000Y-4438000D02*
G75*
G03*
X7810000Y-4438000I-30000J0D01*
G01*
D10*
X7740000Y-4468000D02*
X7820000Y-4468000D01*
X7740000Y-4408000D02*
X7820000Y-4408000D01*
X7820000Y-4468000D02*
G75*
G03*
X7820000Y-4408000I0J30000D01*
G01*
X7740000Y-4408000D02*
G75*
G03*
X7740000Y-4468000I0J-30000D01*
G01*
D12*
X7810000Y-5562000D02*
G75*
G03*
X7810000Y-5562000I-30000J0D01*
G01*
D10*
X7740000Y-5592000D02*
X7820000Y-5592000D01*
X7740000Y-5532000D02*
X7820000Y-5532000D01*
X7820000Y-5592000D02*
G75*
G03*
X7820000Y-5532000I0J30000D01*
G01*
X7740000Y-5532000D02*
G75*
G03*
X7740000Y-5592000I0J-30000D01*
G01*
D13*
X2300000Y-4054400D02*
X2300000Y-4124400D01*
X2265000Y-4089400D02*
X2335000Y-4089400D01*
X2300000Y-4308400D02*
X2300000Y-4378400D01*
X2265000Y-4343400D02*
X2335000Y-4343400D01*
X2300000Y-4562400D02*
X2300000Y-4632400D01*
X2265000Y-4597400D02*
X2335000Y-4597400D01*
X2300000Y-4816400D02*
X2300000Y-4886400D01*
X2265000Y-4851400D02*
X2335000Y-4851400D01*
X2300000Y-5070400D02*
X2300000Y-5140400D01*
X2265000Y-5105400D02*
X2335000Y-5105400D01*
X2300000Y-5324400D02*
X2300000Y-5394400D01*
X2265000Y-5359400D02*
X2335000Y-5359400D01*
X2300000Y-5578400D02*
X2300000Y-5648400D01*
X2265000Y-5613400D02*
X2335000Y-5613400D01*
X2300000Y-5832400D02*
X2300000Y-5902400D01*
X2265000Y-5867400D02*
X2335000Y-5867400D01*
X3316000Y-4054400D02*
X3316000Y-4124400D01*
X3281000Y-4089400D02*
X3351000Y-4089400D01*
X3316000Y-4308400D02*
X3316000Y-4378400D01*
X3281000Y-4343400D02*
X3351000Y-4343400D01*
X3316000Y-4562400D02*
X3316000Y-4632400D01*
X3281000Y-4597400D02*
X3351000Y-4597400D01*
X3316000Y-4816400D02*
X3316000Y-4886400D01*
X3281000Y-4851400D02*
X3351000Y-4851400D01*
X3316000Y-5324400D02*
X3316000Y-5394400D01*
X3281000Y-5359400D02*
X3351000Y-5359400D01*
X3316000Y-5832400D02*
X3316000Y-5902400D01*
X3281000Y-5867400D02*
X3351000Y-5867400D01*
D14*
X2686421Y-2622921D02*
X2686421Y-2551079D01*
X2614579Y-2551079D01*
X2614579Y-2622921D01*
X2686421Y-2622921D01*
X2940421Y-2622921D02*
X2940421Y-2551079D01*
X2868579Y-2551079D01*
X2868579Y-2622921D01*
X2940421Y-2622921D01*
X3194421Y-2622921D02*
X3194421Y-2551079D01*
X3122579Y-2551079D01*
X3122579Y-2622921D01*
X3194421Y-2622921D01*
X3448421Y-2622921D02*
X3448421Y-2551079D01*
X3376579Y-2551079D01*
X3376579Y-2622921D01*
X3448421Y-2622921D01*
X3600821Y-7448921D02*
X3600821Y-7377079D01*
X3528979Y-7377079D01*
X3528979Y-7448921D01*
X3600821Y-7448921D01*
X3702421Y-2622921D02*
X3702421Y-2551079D01*
X3630579Y-2551079D01*
X3630579Y-2622921D01*
X3702421Y-2622921D01*
X3854821Y-7448921D02*
X3854821Y-7377079D01*
X3782979Y-7377079D01*
X3782979Y-7448921D01*
X3854821Y-7448921D01*
X3956421Y-2622921D02*
X3956421Y-2551079D01*
X3884579Y-2551079D01*
X3884579Y-2622921D01*
X3956421Y-2622921D01*
X4108821Y-7448921D02*
X4108821Y-7377079D01*
X4036979Y-7377079D01*
X4036979Y-7448921D01*
X4108821Y-7448921D01*
X4210421Y-2622921D02*
X4210421Y-2551079D01*
X4138579Y-2551079D01*
X4138579Y-2622921D01*
X4210421Y-2622921D01*
X4362821Y-7448921D02*
X4362821Y-7377079D01*
X4290979Y-7377079D01*
X4290979Y-7448921D01*
X4362821Y-7448921D01*
X4464421Y-2622921D02*
X4464421Y-2551079D01*
X4392579Y-2551079D01*
X4392579Y-2622921D01*
X4464421Y-2622921D01*
X4616821Y-7448921D02*
X4616821Y-7377079D01*
X4544979Y-7377079D01*
X4544979Y-7448921D01*
X4616821Y-7448921D01*
X4718421Y-2622921D02*
X4718421Y-2551079D01*
X4646579Y-2551079D01*
X4646579Y-2622921D01*
X4718421Y-2622921D01*
X4870821Y-7448921D02*
X4870821Y-7377079D01*
X4798979Y-7377079D01*
X4798979Y-7448921D01*
X4870821Y-7448921D01*
X4972421Y-2622921D02*
X4972421Y-2551079D01*
X4900579Y-2551079D01*
X4900579Y-2622921D01*
X4972421Y-2622921D01*
X5124821Y-7448921D02*
X5124821Y-7377079D01*
X5052979Y-7377079D01*
X5052979Y-7448921D01*
X5124821Y-7448921D01*
X5378821Y-2622921D02*
X5378821Y-2551079D01*
X5306979Y-2551079D01*
X5306979Y-2622921D01*
X5378821Y-2622921D01*
X5378821Y-7448921D02*
X5378821Y-7377079D01*
X5306979Y-7377079D01*
X5306979Y-7448921D01*
X5378821Y-7448921D01*
X5632821Y-2622921D02*
X5632821Y-2551079D01*
X5560979Y-2551079D01*
X5560979Y-2622921D01*
X5632821Y-2622921D01*
X5886821Y-2622921D02*
X5886821Y-2551079D01*
X5814979Y-2551079D01*
X5814979Y-2622921D01*
X5886821Y-2622921D01*
X5886821Y-7448921D02*
X5886821Y-7377079D01*
X5814979Y-7377079D01*
X5814979Y-7448921D01*
X5886821Y-7448921D01*
X6140821Y-2622921D02*
X6140821Y-2551079D01*
X6068979Y-2551079D01*
X6068979Y-2622921D01*
X6140821Y-2622921D01*
X6140821Y-7448921D02*
X6140821Y-7377079D01*
X6068979Y-7377079D01*
X6068979Y-7448921D01*
X6140821Y-7448921D01*
X6394821Y-2622921D02*
X6394821Y-2551079D01*
X6322979Y-2551079D01*
X6322979Y-2622921D01*
X6394821Y-2622921D01*
X6394821Y-7448921D02*
X6394821Y-7377079D01*
X6322979Y-7377079D01*
X6322979Y-7448921D01*
X6394821Y-7448921D01*
X6648821Y-2622921D02*
X6648821Y-2551079D01*
X6576979Y-2551079D01*
X6576979Y-2622921D01*
X6648821Y-2622921D01*
X6648821Y-7448921D02*
X6648821Y-7377079D01*
X6576979Y-7377079D01*
X6576979Y-7448921D01*
X6648821Y-7448921D01*
X6902821Y-2622921D02*
X6902821Y-2551079D01*
X6830979Y-2551079D01*
X6830979Y-2622921D01*
X6902821Y-2622921D01*
X6902821Y-7448921D02*
X6902821Y-7377079D01*
X6830979Y-7377079D01*
X6830979Y-7448921D01*
X6902821Y-7448921D01*
X7156821Y-2622921D02*
X7156821Y-2551079D01*
X7084979Y-2551079D01*
X7084979Y-2622921D01*
X7156821Y-2622921D01*
X7156821Y-7448921D02*
X7156821Y-7377079D01*
X7084979Y-7377079D01*
X7084979Y-7448921D01*
X7156821Y-7448921D01*
D10*
X2247619Y-8320476D02*
X2247619Y-8120476D01*
X2295238Y-8120476D01*
X2323810Y-8130000D01*
X2342857Y-8149048D01*
X2352381Y-8168095D01*
X2361905Y-8206190D01*
X2361905Y-8234762D01*
X2352381Y-8272857D01*
X2342857Y-8291905D01*
X2323810Y-8310952D01*
X2295238Y-8320476D01*
X2247619Y-8320476D01*
X2447619Y-8320476D02*
X2447619Y-8187143D01*
X2447619Y-8225238D02*
X2457143Y-8206190D01*
X2466667Y-8196667D01*
X2485714Y-8187143D01*
X2504762Y-8187143D01*
X2571429Y-8320476D02*
X2571429Y-8187143D01*
X2571429Y-8120476D02*
X2561905Y-8130000D01*
X2571429Y-8139524D01*
X2580952Y-8130000D01*
X2571429Y-8120476D01*
X2571429Y-8139524D01*
X2695238Y-8320476D02*
X2676190Y-8310952D01*
X2666667Y-8291905D01*
X2666667Y-8120476D01*
X2800000Y-8320476D02*
X2780952Y-8310952D01*
X2771429Y-8291905D01*
X2771429Y-8120476D01*
X3028571Y-8320476D02*
X3028571Y-8120476D01*
X3095238Y-8263333D01*
X3161905Y-8120476D01*
X3161905Y-8320476D01*
X3342857Y-8320476D02*
X3342857Y-8215714D01*
X3333333Y-8196667D01*
X3314286Y-8187143D01*
X3276190Y-8187143D01*
X3257143Y-8196667D01*
X3342857Y-8310952D02*
X3323809Y-8320476D01*
X3276190Y-8320476D01*
X3257143Y-8310952D01*
X3247619Y-8291905D01*
X3247619Y-8272857D01*
X3257143Y-8253809D01*
X3276190Y-8244286D01*
X3323809Y-8244286D01*
X3342857Y-8234762D01*
X3438095Y-8187143D02*
X3438095Y-8387143D01*
X3438095Y-8196667D02*
X3457143Y-8187143D01*
X3495238Y-8187143D01*
X3514286Y-8196667D01*
X3523809Y-8206190D01*
X3533333Y-8225238D01*
X3533333Y-8282381D01*
X3523809Y-8301428D01*
X3514286Y-8310952D01*
X3495238Y-8320476D01*
X3457143Y-8320476D01*
X3438095Y-8310952D01*
X3619048Y-8301428D02*
X3628571Y-8310952D01*
X3619048Y-8320476D01*
X3609524Y-8310952D01*
X3619048Y-8301428D01*
X3619048Y-8320476D01*
X3619048Y-8196667D02*
X3628571Y-8206190D01*
X3619048Y-8215714D01*
X3609524Y-8206190D01*
X3619048Y-8196667D01*
X3619048Y-8215714D01*
D11*
X1950000Y-8630000D02*
X1990000Y-8670000D01*
X1990000Y-8630000D02*
X1950000Y-8670000D01*
D10*
X2285714Y-8540476D02*
X2304762Y-8540476D01*
X2323810Y-8550000D01*
X2333333Y-8559524D01*
X2342857Y-8578571D01*
X2352381Y-8616667D01*
X2352381Y-8664286D01*
X2342857Y-8702381D01*
X2333333Y-8721429D01*
X2323810Y-8730952D01*
X2304762Y-8740476D01*
X2285714Y-8740476D01*
X2266667Y-8730952D01*
X2257143Y-8721429D01*
X2247619Y-8702381D01*
X2238095Y-8664286D01*
X2238095Y-8616667D01*
X2247619Y-8578571D01*
X2257143Y-8559524D01*
X2266667Y-8550000D01*
X2285714Y-8540476D01*
X2438095Y-8721429D02*
X2447619Y-8730952D01*
X2438095Y-8740476D01*
X2428571Y-8730952D01*
X2438095Y-8721429D01*
X2438095Y-8740476D01*
X2619048Y-8607143D02*
X2619048Y-8740476D01*
X2571429Y-8530952D02*
X2523810Y-8673810D01*
X2647619Y-8673810D01*
X2761905Y-8540476D02*
X2780952Y-8540476D01*
X2800000Y-8550000D01*
X2809524Y-8559524D01*
X2819048Y-8578571D01*
X2828571Y-8616667D01*
X2828571Y-8664286D01*
X2819048Y-8702381D01*
X2809524Y-8721429D01*
X2800000Y-8730952D01*
X2780952Y-8740476D01*
X2761905Y-8740476D01*
X2742857Y-8730952D01*
X2733333Y-8721429D01*
X2723810Y-8702381D01*
X2714286Y-8664286D01*
X2714286Y-8616667D01*
X2723810Y-8578571D01*
X2733333Y-8559524D01*
X2742857Y-8550000D01*
X2761905Y-8540476D01*
X2952381Y-8540476D02*
X2971428Y-8540476D01*
X2990476Y-8550000D01*
X3000000Y-8559524D01*
X3009524Y-8578571D01*
X3019048Y-8616667D01*
X3019048Y-8664286D01*
X3009524Y-8702381D01*
X3000000Y-8721429D01*
X2990476Y-8730952D01*
X2971428Y-8740476D01*
X2952381Y-8740476D01*
X2933333Y-8730952D01*
X2923809Y-8721429D01*
X2914286Y-8702381D01*
X2904762Y-8664286D01*
X2904762Y-8616667D01*
X2914286Y-8578571D01*
X2923809Y-8559524D01*
X2933333Y-8550000D01*
X2952381Y-8540476D01*
X3104762Y-8740476D02*
X3104762Y-8607143D01*
X3104762Y-8626190D02*
X3114286Y-8616667D01*
X3133333Y-8607143D01*
X3161905Y-8607143D01*
X3180952Y-8616667D01*
X3190476Y-8635714D01*
X3190476Y-8740476D01*
X3190476Y-8635714D02*
X3200000Y-8616667D01*
X3219048Y-8607143D01*
X3247619Y-8607143D01*
X3266667Y-8616667D01*
X3276190Y-8635714D01*
X3276190Y-8740476D01*
X3371428Y-8740476D02*
X3371428Y-8607143D01*
X3371428Y-8626190D02*
X3380952Y-8616667D01*
X3400000Y-8607143D01*
X3428571Y-8607143D01*
X3447619Y-8616667D01*
X3457143Y-8635714D01*
X3457143Y-8740476D01*
X3457143Y-8635714D02*
X3466667Y-8616667D01*
X3485714Y-8607143D01*
X3514286Y-8607143D01*
X3533333Y-8616667D01*
X3542857Y-8635714D01*
X3542857Y-8740476D01*
X3933333Y-8530952D02*
X3761905Y-8788095D01*
X4190476Y-8540476D02*
X4209524Y-8540476D01*
X4228571Y-8550000D01*
X4238095Y-8559524D01*
X4247619Y-8578571D01*
X4257143Y-8616667D01*
X4257143Y-8664286D01*
X4247619Y-8702381D01*
X4238095Y-8721429D01*
X4228571Y-8730952D01*
X4209524Y-8740476D01*
X4190476Y-8740476D01*
X4171428Y-8730952D01*
X4161905Y-8721429D01*
X4152381Y-8702381D01*
X4142857Y-8664286D01*
X4142857Y-8616667D01*
X4152381Y-8578571D01*
X4161905Y-8559524D01*
X4171428Y-8550000D01*
X4190476Y-8540476D01*
X4342857Y-8721429D02*
X4352381Y-8730952D01*
X4342857Y-8740476D01*
X4333333Y-8730952D01*
X4342857Y-8721429D01*
X4342857Y-8740476D01*
X4476190Y-8540476D02*
X4495238Y-8540476D01*
X4514286Y-8550000D01*
X4523810Y-8559524D01*
X4533333Y-8578571D01*
X4542857Y-8616667D01*
X4542857Y-8664286D01*
X4533333Y-8702381D01*
X4523810Y-8721429D01*
X4514286Y-8730952D01*
X4495238Y-8740476D01*
X4476190Y-8740476D01*
X4457143Y-8730952D01*
X4447619Y-8721429D01*
X4438095Y-8702381D01*
X4428571Y-8664286D01*
X4428571Y-8616667D01*
X4438095Y-8578571D01*
X4447619Y-8559524D01*
X4457143Y-8550000D01*
X4476190Y-8540476D01*
X4733333Y-8740476D02*
X4619048Y-8740476D01*
X4676190Y-8740476D02*
X4676190Y-8540476D01*
X4657143Y-8569048D01*
X4638095Y-8588095D01*
X4619048Y-8597619D01*
X4914286Y-8540476D02*
X4819048Y-8540476D01*
X4809524Y-8635714D01*
X4819048Y-8626190D01*
X4838095Y-8616667D01*
X4885714Y-8616667D01*
X4904762Y-8626190D01*
X4914286Y-8635714D01*
X4923810Y-8654762D01*
X4923810Y-8702381D01*
X4914286Y-8721429D01*
X4904762Y-8730952D01*
X4885714Y-8740476D01*
X4838095Y-8740476D01*
X4819048Y-8730952D01*
X4809524Y-8721429D01*
X4990476Y-8540476D02*
X5123810Y-8540476D01*
X5038095Y-8740476D01*
X5190476Y-8540476D02*
X5190476Y-8578571D01*
X5266667Y-8540476D02*
X5266667Y-8578571D01*
X5561905Y-8816667D02*
X5552381Y-8807143D01*
X5533333Y-8778571D01*
X5523810Y-8759524D01*
X5514286Y-8730952D01*
X5504762Y-8683333D01*
X5504762Y-8645238D01*
X5514286Y-8597619D01*
X5523810Y-8569048D01*
X5533333Y-8550000D01*
X5552381Y-8521429D01*
X5561905Y-8511905D01*
X5619048Y-8540476D02*
X5742857Y-8540476D01*
X5676190Y-8616667D01*
X5704762Y-8616667D01*
X5723809Y-8626190D01*
X5733333Y-8635714D01*
X5742857Y-8654762D01*
X5742857Y-8702381D01*
X5733333Y-8721429D01*
X5723809Y-8730952D01*
X5704762Y-8740476D01*
X5647619Y-8740476D01*
X5628571Y-8730952D01*
X5619048Y-8721429D01*
X5866667Y-8540476D02*
X5885714Y-8540476D01*
X5904762Y-8550000D01*
X5914286Y-8559524D01*
X5923809Y-8578571D01*
X5933333Y-8616667D01*
X5933333Y-8664286D01*
X5923809Y-8702381D01*
X5914286Y-8721429D01*
X5904762Y-8730952D01*
X5885714Y-8740476D01*
X5866667Y-8740476D01*
X5847619Y-8730952D01*
X5838095Y-8721429D01*
X5828571Y-8702381D01*
X5819048Y-8664286D01*
X5819048Y-8616667D01*
X5828571Y-8578571D01*
X5838095Y-8559524D01*
X5847619Y-8550000D01*
X5866667Y-8540476D01*
X6000000Y-8540476D02*
X6133333Y-8540476D01*
X6047619Y-8740476D01*
X6361905Y-8740476D02*
X6361905Y-8540476D01*
X6447619Y-8740476D02*
X6447619Y-8635714D01*
X6438095Y-8616667D01*
X6419048Y-8607143D01*
X6390476Y-8607143D01*
X6371428Y-8616667D01*
X6361905Y-8626190D01*
X6571428Y-8740476D02*
X6552381Y-8730952D01*
X6542857Y-8721429D01*
X6533333Y-8702381D01*
X6533333Y-8645238D01*
X6542857Y-8626190D01*
X6552381Y-8616667D01*
X6571428Y-8607143D01*
X6600000Y-8607143D01*
X6619048Y-8616667D01*
X6628571Y-8626190D01*
X6638095Y-8645238D01*
X6638095Y-8702381D01*
X6628571Y-8721429D01*
X6619048Y-8730952D01*
X6600000Y-8740476D01*
X6571428Y-8740476D01*
X6752381Y-8740476D02*
X6733333Y-8730952D01*
X6723809Y-8711905D01*
X6723809Y-8540476D01*
X6904762Y-8730952D02*
X6885714Y-8740476D01*
X6847619Y-8740476D01*
X6828571Y-8730952D01*
X6819048Y-8711905D01*
X6819048Y-8635714D01*
X6828571Y-8616667D01*
X6847619Y-8607143D01*
X6885714Y-8607143D01*
X6904762Y-8616667D01*
X6914286Y-8635714D01*
X6914286Y-8654762D01*
X6819048Y-8673810D01*
X6990476Y-8730952D02*
X7009524Y-8740476D01*
X7047619Y-8740476D01*
X7066667Y-8730952D01*
X7076190Y-8711905D01*
X7076190Y-8702381D01*
X7066667Y-8683333D01*
X7047619Y-8673810D01*
X7019048Y-8673810D01*
X7000000Y-8664286D01*
X6990476Y-8645238D01*
X6990476Y-8635714D01*
X7000000Y-8616667D01*
X7019048Y-8607143D01*
X7047619Y-8607143D01*
X7066667Y-8616667D01*
X7142857Y-8816667D02*
X7152381Y-8807143D01*
X7171428Y-8778571D01*
X7180952Y-8759524D01*
X7190476Y-8730952D01*
X7200000Y-8683333D01*
X7200000Y-8645238D01*
X7190476Y-8597619D01*
X7180952Y-8569048D01*
X7171428Y-8550000D01*
X7152381Y-8521429D01*
X7142857Y-8511905D01*
D12*
X1990000Y-8914000D02*
G75*
G03*
X1990000Y-8914000I-30000J0D01*
G01*
D10*
X2285714Y-8804476D02*
X2304762Y-8804476D01*
X2323810Y-8814000D01*
X2333333Y-8823524D01*
X2342857Y-8842571D01*
X2352381Y-8880667D01*
X2352381Y-8928286D01*
X2342857Y-8966381D01*
X2333333Y-8985429D01*
X2323810Y-8994952D01*
X2304762Y-9004476D01*
X2285714Y-9004476D01*
X2266667Y-8994952D01*
X2257143Y-8985429D01*
X2247619Y-8966381D01*
X2238095Y-8928286D01*
X2238095Y-8880667D01*
X2247619Y-8842571D01*
X2257143Y-8823524D01*
X2266667Y-8814000D01*
X2285714Y-8804476D01*
X2438095Y-8985429D02*
X2447619Y-8994952D01*
X2438095Y-9004476D01*
X2428571Y-8994952D01*
X2438095Y-8985429D01*
X2438095Y-9004476D01*
X2619048Y-8804476D02*
X2580952Y-8804476D01*
X2561905Y-8814000D01*
X2552381Y-8823524D01*
X2533333Y-8852095D01*
X2523810Y-8890190D01*
X2523810Y-8966381D01*
X2533333Y-8985429D01*
X2542857Y-8994952D01*
X2561905Y-9004476D01*
X2600000Y-9004476D01*
X2619048Y-8994952D01*
X2628571Y-8985429D01*
X2638095Y-8966381D01*
X2638095Y-8918762D01*
X2628571Y-8899714D01*
X2619048Y-8890190D01*
X2600000Y-8880667D01*
X2561905Y-8880667D01*
X2542857Y-8890190D01*
X2533333Y-8899714D01*
X2523810Y-8918762D01*
X2761905Y-8804476D02*
X2780952Y-8804476D01*
X2800000Y-8814000D01*
X2809524Y-8823524D01*
X2819048Y-8842571D01*
X2828571Y-8880667D01*
X2828571Y-8928286D01*
X2819048Y-8966381D01*
X2809524Y-8985429D01*
X2800000Y-8994952D01*
X2780952Y-9004476D01*
X2761905Y-9004476D01*
X2742857Y-8994952D01*
X2733333Y-8985429D01*
X2723810Y-8966381D01*
X2714286Y-8928286D01*
X2714286Y-8880667D01*
X2723810Y-8842571D01*
X2733333Y-8823524D01*
X2742857Y-8814000D01*
X2761905Y-8804476D01*
X2952381Y-8804476D02*
X2971428Y-8804476D01*
X2990476Y-8814000D01*
X3000000Y-8823524D01*
X3009524Y-8842571D01*
X3019048Y-8880667D01*
X3019048Y-8928286D01*
X3009524Y-8966381D01*
X3000000Y-8985429D01*
X2990476Y-8994952D01*
X2971428Y-9004476D01*
X2952381Y-9004476D01*
X2933333Y-8994952D01*
X2923809Y-8985429D01*
X2914286Y-8966381D01*
X2904762Y-8928286D01*
X2904762Y-8880667D01*
X2914286Y-8842571D01*
X2923809Y-8823524D01*
X2933333Y-8814000D01*
X2952381Y-8804476D01*
X3104762Y-9004476D02*
X3104762Y-8871143D01*
X3104762Y-8890190D02*
X3114286Y-8880667D01*
X3133333Y-8871143D01*
X3161905Y-8871143D01*
X3180952Y-8880667D01*
X3190476Y-8899714D01*
X3190476Y-9004476D01*
X3190476Y-8899714D02*
X3200000Y-8880667D01*
X3219048Y-8871143D01*
X3247619Y-8871143D01*
X3266667Y-8880667D01*
X3276190Y-8899714D01*
X3276190Y-9004476D01*
X3371428Y-9004476D02*
X3371428Y-8871143D01*
X3371428Y-8890190D02*
X3380952Y-8880667D01*
X3400000Y-8871143D01*
X3428571Y-8871143D01*
X3447619Y-8880667D01*
X3457143Y-8899714D01*
X3457143Y-9004476D01*
X3457143Y-8899714D02*
X3466667Y-8880667D01*
X3485714Y-8871143D01*
X3514286Y-8871143D01*
X3533333Y-8880667D01*
X3542857Y-8899714D01*
X3542857Y-9004476D01*
X3933333Y-8794952D02*
X3761905Y-9052095D01*
X4190476Y-8804476D02*
X4209524Y-8804476D01*
X4228571Y-8814000D01*
X4238095Y-8823524D01*
X4247619Y-8842571D01*
X4257143Y-8880667D01*
X4257143Y-8928286D01*
X4247619Y-8966381D01*
X4238095Y-8985429D01*
X4228571Y-8994952D01*
X4209524Y-9004476D01*
X4190476Y-9004476D01*
X4171428Y-8994952D01*
X4161905Y-8985429D01*
X4152381Y-8966381D01*
X4142857Y-8928286D01*
X4142857Y-8880667D01*
X4152381Y-8842571D01*
X4161905Y-8823524D01*
X4171428Y-8814000D01*
X4190476Y-8804476D01*
X4342857Y-8985429D02*
X4352381Y-8994952D01*
X4342857Y-9004476D01*
X4333333Y-8994952D01*
X4342857Y-8985429D01*
X4342857Y-9004476D01*
X4476190Y-8804476D02*
X4495238Y-8804476D01*
X4514286Y-8814000D01*
X4523810Y-8823524D01*
X4533333Y-8842571D01*
X4542857Y-8880667D01*
X4542857Y-8928286D01*
X4533333Y-8966381D01*
X4523810Y-8985429D01*
X4514286Y-8994952D01*
X4495238Y-9004476D01*
X4476190Y-9004476D01*
X4457143Y-8994952D01*
X4447619Y-8985429D01*
X4438095Y-8966381D01*
X4428571Y-8928286D01*
X4428571Y-8880667D01*
X4438095Y-8842571D01*
X4447619Y-8823524D01*
X4457143Y-8814000D01*
X4476190Y-8804476D01*
X4619048Y-8823524D02*
X4628571Y-8814000D01*
X4647619Y-8804476D01*
X4695238Y-8804476D01*
X4714286Y-8814000D01*
X4723810Y-8823524D01*
X4733333Y-8842571D01*
X4733333Y-8861619D01*
X4723810Y-8890190D01*
X4609524Y-9004476D01*
X4733333Y-9004476D01*
X4800000Y-8804476D02*
X4923810Y-8804476D01*
X4857143Y-8880667D01*
X4885714Y-8880667D01*
X4904762Y-8890190D01*
X4914286Y-8899714D01*
X4923810Y-8918762D01*
X4923810Y-8966381D01*
X4914286Y-8985429D01*
X4904762Y-8994952D01*
X4885714Y-9004476D01*
X4828571Y-9004476D01*
X4809524Y-8994952D01*
X4800000Y-8985429D01*
X5095238Y-8804476D02*
X5057143Y-8804476D01*
X5038095Y-8814000D01*
X5028571Y-8823524D01*
X5009524Y-8852095D01*
X5000000Y-8890190D01*
X5000000Y-8966381D01*
X5009524Y-8985429D01*
X5019048Y-8994952D01*
X5038095Y-9004476D01*
X5076190Y-9004476D01*
X5095238Y-8994952D01*
X5104762Y-8985429D01*
X5114286Y-8966381D01*
X5114286Y-8918762D01*
X5104762Y-8899714D01*
X5095238Y-8890190D01*
X5076190Y-8880667D01*
X5038095Y-8880667D01*
X5019048Y-8890190D01*
X5009524Y-8899714D01*
X5000000Y-8918762D01*
X5190476Y-8804476D02*
X5190476Y-8842571D01*
X5266667Y-8804476D02*
X5266667Y-8842571D01*
X5561905Y-9080667D02*
X5552381Y-9071143D01*
X5533333Y-9042571D01*
X5523810Y-9023524D01*
X5514286Y-8994952D01*
X5504762Y-8947333D01*
X5504762Y-8909238D01*
X5514286Y-8861619D01*
X5523810Y-8833048D01*
X5533333Y-8814000D01*
X5552381Y-8785429D01*
X5561905Y-8775905D01*
X5676190Y-8804476D02*
X5695238Y-8804476D01*
X5714286Y-8814000D01*
X5723809Y-8823524D01*
X5733333Y-8842571D01*
X5742857Y-8880667D01*
X5742857Y-8928286D01*
X5733333Y-8966381D01*
X5723809Y-8985429D01*
X5714286Y-8994952D01*
X5695238Y-9004476D01*
X5676190Y-9004476D01*
X5657143Y-8994952D01*
X5647619Y-8985429D01*
X5638095Y-8966381D01*
X5628571Y-8928286D01*
X5628571Y-8880667D01*
X5638095Y-8842571D01*
X5647619Y-8823524D01*
X5657143Y-8814000D01*
X5676190Y-8804476D01*
X5980952Y-9004476D02*
X5980952Y-8804476D01*
X6066667Y-9004476D02*
X6066667Y-8899714D01*
X6057143Y-8880667D01*
X6038095Y-8871143D01*
X6009524Y-8871143D01*
X5990476Y-8880667D01*
X5980952Y-8890190D01*
X6190476Y-9004476D02*
X6171428Y-8994952D01*
X6161905Y-8985429D01*
X6152381Y-8966381D01*
X6152381Y-8909238D01*
X6161905Y-8890190D01*
X6171428Y-8880667D01*
X6190476Y-8871143D01*
X6219048Y-8871143D01*
X6238095Y-8880667D01*
X6247619Y-8890190D01*
X6257143Y-8909238D01*
X6257143Y-8966381D01*
X6247619Y-8985429D01*
X6238095Y-8994952D01*
X6219048Y-9004476D01*
X6190476Y-9004476D01*
X6371428Y-9004476D02*
X6352381Y-8994952D01*
X6342857Y-8975905D01*
X6342857Y-8804476D01*
X6523809Y-8994952D02*
X6504762Y-9004476D01*
X6466667Y-9004476D01*
X6447619Y-8994952D01*
X6438095Y-8975905D01*
X6438095Y-8899714D01*
X6447619Y-8880667D01*
X6466667Y-8871143D01*
X6504762Y-8871143D01*
X6523809Y-8880667D01*
X6533333Y-8899714D01*
X6533333Y-8918762D01*
X6438095Y-8937810D01*
X6609524Y-8994952D02*
X6628571Y-9004476D01*
X6666667Y-9004476D01*
X6685714Y-8994952D01*
X6695238Y-8975905D01*
X6695238Y-8966381D01*
X6685714Y-8947333D01*
X6666667Y-8937810D01*
X6638095Y-8937810D01*
X6619048Y-8928286D01*
X6609524Y-8909238D01*
X6609524Y-8899714D01*
X6619048Y-8880667D01*
X6638095Y-8871143D01*
X6666667Y-8871143D01*
X6685714Y-8880667D01*
X6933333Y-8928286D02*
X7085714Y-8928286D01*
X7009524Y-9004476D02*
X7009524Y-8852095D01*
X7419048Y-8871143D02*
X7419048Y-9004476D01*
X7371428Y-8794952D02*
X7323809Y-8937810D01*
X7447619Y-8937810D01*
X7666667Y-8994952D02*
X7685714Y-9004476D01*
X7723809Y-9004476D01*
X7742857Y-8994952D01*
X7752381Y-8975905D01*
X7752381Y-8966381D01*
X7742857Y-8947333D01*
X7723809Y-8937810D01*
X7695238Y-8937810D01*
X7676190Y-8928286D01*
X7666667Y-8909238D01*
X7666667Y-8899714D01*
X7676190Y-8880667D01*
X7695238Y-8871143D01*
X7723809Y-8871143D01*
X7742857Y-8880667D01*
X7866667Y-9004476D02*
X7847619Y-8994952D01*
X7838095Y-8975905D01*
X7838095Y-8804476D01*
X7971428Y-9004476D02*
X7952381Y-8994952D01*
X7942857Y-8985429D01*
X7933333Y-8966381D01*
X7933333Y-8909238D01*
X7942857Y-8890190D01*
X7952381Y-8880667D01*
X7971428Y-8871143D01*
X8000000Y-8871143D01*
X8019048Y-8880667D01*
X8028571Y-8890190D01*
X8038095Y-8909238D01*
X8038095Y-8966381D01*
X8028571Y-8985429D01*
X8019048Y-8994952D01*
X8000000Y-9004476D01*
X7971428Y-9004476D01*
X8095238Y-8871143D02*
X8171428Y-8871143D01*
X8123809Y-8804476D02*
X8123809Y-8975905D01*
X8133333Y-8994952D01*
X8152381Y-9004476D01*
X8171428Y-9004476D01*
X8228571Y-8994952D02*
X8247619Y-9004476D01*
X8285714Y-9004476D01*
X8304762Y-8994952D01*
X8314286Y-8975905D01*
X8314286Y-8966381D01*
X8304762Y-8947333D01*
X8285714Y-8937810D01*
X8257143Y-8937810D01*
X8238095Y-8928286D01*
X8228571Y-8909238D01*
X8228571Y-8899714D01*
X8238095Y-8880667D01*
X8257143Y-8871143D01*
X8285714Y-8871143D01*
X8304762Y-8880667D01*
X8380952Y-9080667D02*
X8390476Y-9071143D01*
X8409524Y-9042571D01*
X8419048Y-9023524D01*
X8428571Y-8994952D01*
X8438095Y-8947333D01*
X8438095Y-8909238D01*
X8428571Y-8861619D01*
X8419048Y-8833048D01*
X8409524Y-8814000D01*
X8390476Y-8785429D01*
X8380952Y-8775905D01*
D13*
X1955000Y-9143000D02*
X1955000Y-9213000D01*
X1920000Y-9178000D02*
X1990000Y-9178000D01*
D10*
X2285714Y-9068476D02*
X2304762Y-9068476D01*
X2323810Y-9078000D01*
X2333333Y-9087524D01*
X2342857Y-9106571D01*
X2352381Y-9144667D01*
X2352381Y-9192286D01*
X2342857Y-9230381D01*
X2333333Y-9249429D01*
X2323810Y-9258952D01*
X2304762Y-9268476D01*
X2285714Y-9268476D01*
X2266667Y-9258952D01*
X2257143Y-9249429D01*
X2247619Y-9230381D01*
X2238095Y-9192286D01*
X2238095Y-9144667D01*
X2247619Y-9106571D01*
X2257143Y-9087524D01*
X2266667Y-9078000D01*
X2285714Y-9068476D01*
X2438095Y-9249429D02*
X2447619Y-9258952D01*
X2438095Y-9268476D01*
X2428571Y-9258952D01*
X2438095Y-9249429D01*
X2438095Y-9268476D01*
X2514286Y-9068476D02*
X2647619Y-9068476D01*
X2561905Y-9268476D01*
X2761905Y-9068476D02*
X2780952Y-9068476D01*
X2800000Y-9078000D01*
X2809524Y-9087524D01*
X2819048Y-9106571D01*
X2828571Y-9144667D01*
X2828571Y-9192286D01*
X2819048Y-9230381D01*
X2809524Y-9249429D01*
X2800000Y-9258952D01*
X2780952Y-9268476D01*
X2761905Y-9268476D01*
X2742857Y-9258952D01*
X2733333Y-9249429D01*
X2723810Y-9230381D01*
X2714286Y-9192286D01*
X2714286Y-9144667D01*
X2723810Y-9106571D01*
X2733333Y-9087524D01*
X2742857Y-9078000D01*
X2761905Y-9068476D01*
X2952381Y-9068476D02*
X2971428Y-9068476D01*
X2990476Y-9078000D01*
X3000000Y-9087524D01*
X3009524Y-9106571D01*
X3019048Y-9144667D01*
X3019048Y-9192286D01*
X3009524Y-9230381D01*
X3000000Y-9249429D01*
X2990476Y-9258952D01*
X2971428Y-9268476D01*
X2952381Y-9268476D01*
X2933333Y-9258952D01*
X2923809Y-9249429D01*
X2914286Y-9230381D01*
X2904762Y-9192286D01*
X2904762Y-9144667D01*
X2914286Y-9106571D01*
X2923809Y-9087524D01*
X2933333Y-9078000D01*
X2952381Y-9068476D01*
X3104762Y-9268476D02*
X3104762Y-9135143D01*
X3104762Y-9154190D02*
X3114286Y-9144667D01*
X3133333Y-9135143D01*
X3161905Y-9135143D01*
X3180952Y-9144667D01*
X3190476Y-9163714D01*
X3190476Y-9268476D01*
X3190476Y-9163714D02*
X3200000Y-9144667D01*
X3219048Y-9135143D01*
X3247619Y-9135143D01*
X3266667Y-9144667D01*
X3276190Y-9163714D01*
X3276190Y-9268476D01*
X3371428Y-9268476D02*
X3371428Y-9135143D01*
X3371428Y-9154190D02*
X3380952Y-9144667D01*
X3400000Y-9135143D01*
X3428571Y-9135143D01*
X3447619Y-9144667D01*
X3457143Y-9163714D01*
X3457143Y-9268476D01*
X3457143Y-9163714D02*
X3466667Y-9144667D01*
X3485714Y-9135143D01*
X3514286Y-9135143D01*
X3533333Y-9144667D01*
X3542857Y-9163714D01*
X3542857Y-9268476D01*
X3933333Y-9058952D02*
X3761905Y-9316095D01*
X4190476Y-9068476D02*
X4209524Y-9068476D01*
X4228571Y-9078000D01*
X4238095Y-9087524D01*
X4247619Y-9106571D01*
X4257143Y-9144667D01*
X4257143Y-9192286D01*
X4247619Y-9230381D01*
X4238095Y-9249429D01*
X4228571Y-9258952D01*
X4209524Y-9268476D01*
X4190476Y-9268476D01*
X4171428Y-9258952D01*
X4161905Y-9249429D01*
X4152381Y-9230381D01*
X4142857Y-9192286D01*
X4142857Y-9144667D01*
X4152381Y-9106571D01*
X4161905Y-9087524D01*
X4171428Y-9078000D01*
X4190476Y-9068476D01*
X4342857Y-9249429D02*
X4352381Y-9258952D01*
X4342857Y-9268476D01*
X4333333Y-9258952D01*
X4342857Y-9249429D01*
X4342857Y-9268476D01*
X4476190Y-9068476D02*
X4495238Y-9068476D01*
X4514286Y-9078000D01*
X4523810Y-9087524D01*
X4533333Y-9106571D01*
X4542857Y-9144667D01*
X4542857Y-9192286D01*
X4533333Y-9230381D01*
X4523810Y-9249429D01*
X4514286Y-9258952D01*
X4495238Y-9268476D01*
X4476190Y-9268476D01*
X4457143Y-9258952D01*
X4447619Y-9249429D01*
X4438095Y-9230381D01*
X4428571Y-9192286D01*
X4428571Y-9144667D01*
X4438095Y-9106571D01*
X4447619Y-9087524D01*
X4457143Y-9078000D01*
X4476190Y-9068476D01*
X4619048Y-9087524D02*
X4628571Y-9078000D01*
X4647619Y-9068476D01*
X4695238Y-9068476D01*
X4714286Y-9078000D01*
X4723810Y-9087524D01*
X4733333Y-9106571D01*
X4733333Y-9125619D01*
X4723810Y-9154190D01*
X4609524Y-9268476D01*
X4733333Y-9268476D01*
X4800000Y-9068476D02*
X4933333Y-9068476D01*
X4847619Y-9268476D01*
X5095238Y-9068476D02*
X5057143Y-9068476D01*
X5038095Y-9078000D01*
X5028571Y-9087524D01*
X5009524Y-9116095D01*
X5000000Y-9154190D01*
X5000000Y-9230381D01*
X5009524Y-9249429D01*
X5019048Y-9258952D01*
X5038095Y-9268476D01*
X5076190Y-9268476D01*
X5095238Y-9258952D01*
X5104762Y-9249429D01*
X5114286Y-9230381D01*
X5114286Y-9182762D01*
X5104762Y-9163714D01*
X5095238Y-9154190D01*
X5076190Y-9144667D01*
X5038095Y-9144667D01*
X5019048Y-9154190D01*
X5009524Y-9163714D01*
X5000000Y-9182762D01*
X5190476Y-9068476D02*
X5190476Y-9106571D01*
X5266667Y-9068476D02*
X5266667Y-9106571D01*
X5561905Y-9344667D02*
X5552381Y-9335143D01*
X5533333Y-9306571D01*
X5523810Y-9287524D01*
X5514286Y-9258952D01*
X5504762Y-9211333D01*
X5504762Y-9173238D01*
X5514286Y-9125619D01*
X5523810Y-9097048D01*
X5533333Y-9078000D01*
X5552381Y-9049429D01*
X5561905Y-9039905D01*
X5742857Y-9268476D02*
X5628571Y-9268476D01*
X5685714Y-9268476D02*
X5685714Y-9068476D01*
X5666667Y-9097048D01*
X5647619Y-9116095D01*
X5628571Y-9125619D01*
X5914286Y-9135143D02*
X5914286Y-9268476D01*
X5866667Y-9058952D02*
X5819048Y-9201810D01*
X5942857Y-9201810D01*
X6171428Y-9268476D02*
X6171428Y-9068476D01*
X6257143Y-9268476D02*
X6257143Y-9163714D01*
X6247619Y-9144667D01*
X6228571Y-9135143D01*
X6200000Y-9135143D01*
X6180952Y-9144667D01*
X6171428Y-9154190D01*
X6380952Y-9268476D02*
X6361905Y-9258952D01*
X6352381Y-9249429D01*
X6342857Y-9230381D01*
X6342857Y-9173238D01*
X6352381Y-9154190D01*
X6361905Y-9144667D01*
X6380952Y-9135143D01*
X6409524Y-9135143D01*
X6428571Y-9144667D01*
X6438095Y-9154190D01*
X6447619Y-9173238D01*
X6447619Y-9230381D01*
X6438095Y-9249429D01*
X6428571Y-9258952D01*
X6409524Y-9268476D01*
X6380952Y-9268476D01*
X6561905Y-9268476D02*
X6542857Y-9258952D01*
X6533333Y-9239905D01*
X6533333Y-9068476D01*
X6714286Y-9258952D02*
X6695238Y-9268476D01*
X6657143Y-9268476D01*
X6638095Y-9258952D01*
X6628571Y-9239905D01*
X6628571Y-9163714D01*
X6638095Y-9144667D01*
X6657143Y-9135143D01*
X6695238Y-9135143D01*
X6714286Y-9144667D01*
X6723809Y-9163714D01*
X6723809Y-9182762D01*
X6628571Y-9201810D01*
X6800000Y-9258952D02*
X6819048Y-9268476D01*
X6857143Y-9268476D01*
X6876190Y-9258952D01*
X6885714Y-9239905D01*
X6885714Y-9230381D01*
X6876190Y-9211333D01*
X6857143Y-9201810D01*
X6828571Y-9201810D01*
X6809524Y-9192286D01*
X6800000Y-9173238D01*
X6800000Y-9163714D01*
X6809524Y-9144667D01*
X6828571Y-9135143D01*
X6857143Y-9135143D01*
X6876190Y-9144667D01*
X6952381Y-9344667D02*
X6961905Y-9335143D01*
X6980952Y-9306571D01*
X6990476Y-9287524D01*
X7000000Y-9258952D01*
X7009524Y-9211333D01*
X7009524Y-9173238D01*
X7000000Y-9125619D01*
X6990476Y-9097048D01*
X6980952Y-9078000D01*
X6961905Y-9049429D01*
X6952381Y-9039905D01*
D14*
X1975121Y-9477921D02*
X1975121Y-9406079D01*
X1903279Y-9406079D01*
X1903279Y-9477921D01*
X1975121Y-9477921D01*
D10*
X2352381Y-9532476D02*
X2238095Y-9532476D01*
X2295238Y-9532476D02*
X2295238Y-9332476D01*
X2276190Y-9361048D01*
X2257143Y-9380095D01*
X2238095Y-9389619D01*
X2438095Y-9513429D02*
X2447619Y-9522952D01*
X2438095Y-9532476D01*
X2428571Y-9522952D01*
X2438095Y-9513429D01*
X2438095Y-9532476D01*
X2571429Y-9332476D02*
X2590476Y-9332476D01*
X2609524Y-9342000D01*
X2619048Y-9351524D01*
X2628571Y-9370571D01*
X2638095Y-9408667D01*
X2638095Y-9456286D01*
X2628571Y-9494381D01*
X2619048Y-9513429D01*
X2609524Y-9522952D01*
X2590476Y-9532476D01*
X2571429Y-9532476D01*
X2552381Y-9522952D01*
X2542857Y-9513429D01*
X2533333Y-9494381D01*
X2523810Y-9456286D01*
X2523810Y-9408667D01*
X2533333Y-9370571D01*
X2542857Y-9351524D01*
X2552381Y-9342000D01*
X2571429Y-9332476D01*
X2828571Y-9532476D02*
X2714286Y-9532476D01*
X2771429Y-9532476D02*
X2771429Y-9332476D01*
X2752381Y-9361048D01*
X2733333Y-9380095D01*
X2714286Y-9389619D01*
X3000000Y-9332476D02*
X2961905Y-9332476D01*
X2942857Y-9342000D01*
X2933333Y-9351524D01*
X2914286Y-9380095D01*
X2904762Y-9418190D01*
X2904762Y-9494381D01*
X2914286Y-9513429D01*
X2923809Y-9522952D01*
X2942857Y-9532476D01*
X2980952Y-9532476D01*
X3000000Y-9522952D01*
X3009524Y-9513429D01*
X3019048Y-9494381D01*
X3019048Y-9446762D01*
X3009524Y-9427714D01*
X3000000Y-9418190D01*
X2980952Y-9408667D01*
X2942857Y-9408667D01*
X2923809Y-9418190D01*
X2914286Y-9427714D01*
X2904762Y-9446762D01*
X3104762Y-9532476D02*
X3104762Y-9399143D01*
X3104762Y-9418190D02*
X3114286Y-9408667D01*
X3133333Y-9399143D01*
X3161905Y-9399143D01*
X3180952Y-9408667D01*
X3190476Y-9427714D01*
X3190476Y-9532476D01*
X3190476Y-9427714D02*
X3200000Y-9408667D01*
X3219048Y-9399143D01*
X3247619Y-9399143D01*
X3266667Y-9408667D01*
X3276190Y-9427714D01*
X3276190Y-9532476D01*
X3371428Y-9532476D02*
X3371428Y-9399143D01*
X3371428Y-9418190D02*
X3380952Y-9408667D01*
X3400000Y-9399143D01*
X3428571Y-9399143D01*
X3447619Y-9408667D01*
X3457143Y-9427714D01*
X3457143Y-9532476D01*
X3457143Y-9427714D02*
X3466667Y-9408667D01*
X3485714Y-9399143D01*
X3514286Y-9399143D01*
X3533333Y-9408667D01*
X3542857Y-9427714D01*
X3542857Y-9532476D01*
X3933333Y-9322952D02*
X3761905Y-9580095D01*
X4190476Y-9332476D02*
X4209524Y-9332476D01*
X4228571Y-9342000D01*
X4238095Y-9351524D01*
X4247619Y-9370571D01*
X4257143Y-9408667D01*
X4257143Y-9456286D01*
X4247619Y-9494381D01*
X4238095Y-9513429D01*
X4228571Y-9522952D01*
X4209524Y-9532476D01*
X4190476Y-9532476D01*
X4171428Y-9522952D01*
X4161905Y-9513429D01*
X4152381Y-9494381D01*
X4142857Y-9456286D01*
X4142857Y-9408667D01*
X4152381Y-9370571D01*
X4161905Y-9351524D01*
X4171428Y-9342000D01*
X4190476Y-9332476D01*
X4342857Y-9513429D02*
X4352381Y-9522952D01*
X4342857Y-9532476D01*
X4333333Y-9522952D01*
X4342857Y-9513429D01*
X4342857Y-9532476D01*
X4476190Y-9332476D02*
X4495238Y-9332476D01*
X4514286Y-9342000D01*
X4523810Y-9351524D01*
X4533333Y-9370571D01*
X4542857Y-9408667D01*
X4542857Y-9456286D01*
X4533333Y-9494381D01*
X4523810Y-9513429D01*
X4514286Y-9522952D01*
X4495238Y-9532476D01*
X4476190Y-9532476D01*
X4457143Y-9522952D01*
X4447619Y-9513429D01*
X4438095Y-9494381D01*
X4428571Y-9456286D01*
X4428571Y-9408667D01*
X4438095Y-9370571D01*
X4447619Y-9351524D01*
X4457143Y-9342000D01*
X4476190Y-9332476D01*
X4714286Y-9399143D02*
X4714286Y-9532476D01*
X4666667Y-9322952D02*
X4619048Y-9465810D01*
X4742857Y-9465810D01*
X4857143Y-9332476D02*
X4876190Y-9332476D01*
X4895238Y-9342000D01*
X4904762Y-9351524D01*
X4914286Y-9370571D01*
X4923810Y-9408667D01*
X4923810Y-9456286D01*
X4914286Y-9494381D01*
X4904762Y-9513429D01*
X4895238Y-9522952D01*
X4876190Y-9532476D01*
X4857143Y-9532476D01*
X4838095Y-9522952D01*
X4828571Y-9513429D01*
X4819048Y-9494381D01*
X4809524Y-9456286D01*
X4809524Y-9408667D01*
X4819048Y-9370571D01*
X4828571Y-9351524D01*
X4838095Y-9342000D01*
X4857143Y-9332476D01*
X5047619Y-9332476D02*
X5066667Y-9332476D01*
X5085714Y-9342000D01*
X5095238Y-9351524D01*
X5104762Y-9370571D01*
X5114286Y-9408667D01*
X5114286Y-9456286D01*
X5104762Y-9494381D01*
X5095238Y-9513429D01*
X5085714Y-9522952D01*
X5066667Y-9532476D01*
X5047619Y-9532476D01*
X5028571Y-9522952D01*
X5019048Y-9513429D01*
X5009524Y-9494381D01*
X5000000Y-9456286D01*
X5000000Y-9408667D01*
X5009524Y-9370571D01*
X5019048Y-9351524D01*
X5028571Y-9342000D01*
X5047619Y-9332476D01*
X5190476Y-9332476D02*
X5190476Y-9370571D01*
X5266667Y-9332476D02*
X5266667Y-9370571D01*
X5561905Y-9608667D02*
X5552381Y-9599143D01*
X5533333Y-9570571D01*
X5523810Y-9551524D01*
X5514286Y-9522952D01*
X5504762Y-9475333D01*
X5504762Y-9437238D01*
X5514286Y-9389619D01*
X5523810Y-9361048D01*
X5533333Y-9342000D01*
X5552381Y-9313429D01*
X5561905Y-9303905D01*
X5619048Y-9332476D02*
X5742857Y-9332476D01*
X5676190Y-9408667D01*
X5704762Y-9408667D01*
X5723809Y-9418190D01*
X5733333Y-9427714D01*
X5742857Y-9446762D01*
X5742857Y-9494381D01*
X5733333Y-9513429D01*
X5723809Y-9522952D01*
X5704762Y-9532476D01*
X5647619Y-9532476D01*
X5628571Y-9522952D01*
X5619048Y-9513429D01*
X5819048Y-9351524D02*
X5828571Y-9342000D01*
X5847619Y-9332476D01*
X5895238Y-9332476D01*
X5914286Y-9342000D01*
X5923809Y-9351524D01*
X5933333Y-9370571D01*
X5933333Y-9389619D01*
X5923809Y-9418190D01*
X5809524Y-9532476D01*
X5933333Y-9532476D01*
X6171428Y-9532476D02*
X6171428Y-9332476D01*
X6257143Y-9532476D02*
X6257143Y-9427714D01*
X6247619Y-9408667D01*
X6228571Y-9399143D01*
X6200000Y-9399143D01*
X6180952Y-9408667D01*
X6171428Y-9418190D01*
X6380952Y-9532476D02*
X6361905Y-9522952D01*
X6352381Y-9513429D01*
X6342857Y-9494381D01*
X6342857Y-9437238D01*
X6352381Y-9418190D01*
X6361905Y-9408667D01*
X6380952Y-9399143D01*
X6409524Y-9399143D01*
X6428571Y-9408667D01*
X6438095Y-9418190D01*
X6447619Y-9437238D01*
X6447619Y-9494381D01*
X6438095Y-9513429D01*
X6428571Y-9522952D01*
X6409524Y-9532476D01*
X6380952Y-9532476D01*
X6561905Y-9532476D02*
X6542857Y-9522952D01*
X6533333Y-9503905D01*
X6533333Y-9332476D01*
X6714286Y-9522952D02*
X6695238Y-9532476D01*
X6657143Y-9532476D01*
X6638095Y-9522952D01*
X6628571Y-9503905D01*
X6628571Y-9427714D01*
X6638095Y-9408667D01*
X6657143Y-9399143D01*
X6695238Y-9399143D01*
X6714286Y-9408667D01*
X6723809Y-9427714D01*
X6723809Y-9446762D01*
X6628571Y-9465810D01*
X6800000Y-9522952D02*
X6819048Y-9532476D01*
X6857143Y-9532476D01*
X6876190Y-9522952D01*
X6885714Y-9503905D01*
X6885714Y-9494381D01*
X6876190Y-9475333D01*
X6857143Y-9465810D01*
X6828571Y-9465810D01*
X6809524Y-9456286D01*
X6800000Y-9437238D01*
X6800000Y-9427714D01*
X6809524Y-9408667D01*
X6828571Y-9399143D01*
X6857143Y-9399143D01*
X6876190Y-9408667D01*
X6952381Y-9608667D02*
X6961905Y-9599143D01*
X6980952Y-9570571D01*
X6990476Y-9551524D01*
X7000000Y-9522952D01*
X7009524Y-9475333D01*
X7009524Y-9437238D01*
X7000000Y-9389619D01*
X6990476Y-9361048D01*
X6980952Y-9342000D01*
X6961905Y-9313429D01*
X6952381Y-9303905D01*
M02*
