G04 #@! TF.GenerationSoftware,KiCad,Pcbnew,6.0.10-86aedd382b~118~ubuntu22.10.1*
G04 #@! TF.CreationDate,2023-02-02T20:30:57+01:00*
G04 #@! TF.ProjectId,FPGHat,46504748-6174-42e6-9b69-6361645f7063,rev?*
G04 #@! TF.SameCoordinates,Original*
G04 #@! TF.FileFunction,Legend,Top*
G04 #@! TF.FilePolarity,Positive*
%FSLAX46Y46*%
G04 Gerber Fmt 4.6, Leading zero omitted, Abs format (unit mm)*
G04 Created by KiCad (PCBNEW 6.0.10-86aedd382b~118~ubuntu22.10.1) date 2023-02-02 20:30:57*
%MOMM*%
%LPD*%
G01*
G04 APERTURE LIST*
G04 Aperture macros list*
%AMRoundRect*
0 Rectangle with rounded corners*
0 $1 Rounding radius*
0 $2 $3 $4 $5 $6 $7 $8 $9 X,Y pos of 4 corners*
0 Add a 4 corners polygon primitive as box body*
4,1,4,$2,$3,$4,$5,$6,$7,$8,$9,$2,$3,0*
0 Add four circle primitives for the rounded corners*
1,1,$1+$1,$2,$3*
1,1,$1+$1,$4,$5*
1,1,$1+$1,$6,$7*
1,1,$1+$1,$8,$9*
0 Add four rect primitives between the rounded corners*
20,1,$1+$1,$2,$3,$4,$5,0*
20,1,$1+$1,$4,$5,$6,$7,0*
20,1,$1+$1,$6,$7,$8,$9,0*
20,1,$1+$1,$8,$9,$2,$3,0*%
G04 Aperture macros list end*
%ADD10C,0.300000*%
%ADD11C,0.150000*%
%ADD12C,0.120000*%
%ADD13RoundRect,0.225000X-0.225000X-0.250000X0.225000X-0.250000X0.225000X0.250000X-0.225000X0.250000X0*%
%ADD14RoundRect,0.140000X0.140000X0.170000X-0.140000X0.170000X-0.140000X-0.170000X0.140000X-0.170000X0*%
%ADD15RoundRect,0.140000X-0.170000X0.140000X-0.170000X-0.140000X0.170000X-0.140000X0.170000X0.140000X0*%
%ADD16R,1.000000X3.150000*%
%ADD17RoundRect,0.135000X-0.135000X-0.185000X0.135000X-0.185000X0.135000X0.185000X-0.135000X0.185000X0*%
%ADD18RoundRect,0.225000X0.225000X0.250000X-0.225000X0.250000X-0.225000X-0.250000X0.225000X-0.250000X0*%
%ADD19RoundRect,0.135000X0.135000X0.185000X-0.135000X0.185000X-0.135000X-0.185000X0.135000X-0.185000X0*%
%ADD20RoundRect,0.140000X0.170000X-0.140000X0.170000X0.140000X-0.170000X0.140000X-0.170000X-0.140000X0*%
%ADD21RoundRect,0.218750X0.256250X-0.218750X0.256250X0.218750X-0.256250X0.218750X-0.256250X-0.218750X0*%
%ADD22RoundRect,0.135000X-0.185000X0.135000X-0.185000X-0.135000X0.185000X-0.135000X0.185000X0.135000X0*%
%ADD23RoundRect,0.225000X-0.250000X0.225000X-0.250000X-0.225000X0.250000X-0.225000X0.250000X0.225000X0*%
%ADD24R,0.900000X1.500000*%
%ADD25RoundRect,0.375000X-0.375000X-0.375000X0.375000X-0.375000X0.375000X0.375000X-0.375000X0.375000X0*%
%ADD26C,1.500000*%
%ADD27RoundRect,0.135000X0.185000X-0.135000X0.185000X0.135000X-0.185000X0.135000X-0.185000X-0.135000X0*%
%ADD28RoundRect,0.150000X0.825000X0.150000X-0.825000X0.150000X-0.825000X-0.150000X0.825000X-0.150000X0*%
%ADD29R,0.750000X0.400000*%
%ADD30R,0.750000X0.800000*%
%ADD31RoundRect,0.140000X-0.140000X-0.170000X0.140000X-0.170000X0.140000X0.170000X-0.140000X0.170000X0*%
%ADD32RoundRect,0.200000X-0.800000X0.200000X-0.800000X-0.200000X0.800000X-0.200000X0.800000X0.200000X0*%
%ADD33RoundRect,0.218750X0.218750X0.256250X-0.218750X0.256250X-0.218750X-0.256250X0.218750X-0.256250X0*%
%ADD34RoundRect,0.075000X0.700000X0.075000X-0.700000X0.075000X-0.700000X-0.075000X0.700000X-0.075000X0*%
%ADD35RoundRect,0.075000X0.075000X0.700000X-0.075000X0.700000X-0.075000X-0.700000X0.075000X-0.700000X0*%
%ADD36C,0.900000*%
%ADD37R,1.250000X2.500000*%
%ADD38RoundRect,0.150000X0.150000X-0.512500X0.150000X0.512500X-0.150000X0.512500X-0.150000X-0.512500X0*%
%ADD39R,1.000000X1.500000*%
%ADD40RoundRect,0.150000X0.512500X0.150000X-0.512500X0.150000X-0.512500X-0.150000X0.512500X-0.150000X0*%
%ADD41R,0.950000X0.600000*%
%ADD42R,0.950000X0.300000*%
%ADD43RoundRect,0.500000X0.400000X0.000000X0.400000X0.000000X-0.400000X0.000000X-0.400000X0.000000X0*%
%ADD44O,1.727200X1.727200*%
%ADD45R,1.727200X1.727200*%
%ADD46RoundRect,0.150000X-0.512500X-0.150000X0.512500X-0.150000X0.512500X0.150000X-0.512500X0.150000X0*%
%ADD47RoundRect,0.225000X0.250000X-0.225000X0.250000X0.225000X-0.250000X0.225000X-0.250000X-0.225000X0*%
G04 APERTURE END LIST*
D10*
X65610714Y-33435714D02*
X65682142Y-33507142D01*
X65753571Y-33721428D01*
X65753571Y-33864285D01*
X65682142Y-34078571D01*
X65539285Y-34221428D01*
X65396428Y-34292857D01*
X65110714Y-34364285D01*
X64896428Y-34364285D01*
X64610714Y-34292857D01*
X64467857Y-34221428D01*
X64325000Y-34078571D01*
X64253571Y-33864285D01*
X64253571Y-33721428D01*
X64325000Y-33507142D01*
X64396428Y-33435714D01*
X65753571Y-32792857D02*
X64253571Y-32792857D01*
X65753571Y-31935714D01*
X64253571Y-31935714D01*
X64396428Y-31292857D02*
X64325000Y-31221428D01*
X64253571Y-31078571D01*
X64253571Y-30721428D01*
X64325000Y-30578571D01*
X64396428Y-30507142D01*
X64539285Y-30435714D01*
X64682142Y-30435714D01*
X64896428Y-30507142D01*
X65753571Y-31364285D01*
X65753571Y-30435714D01*
X65610714Y-68685714D02*
X65682142Y-68757142D01*
X65753571Y-68971428D01*
X65753571Y-69114285D01*
X65682142Y-69328571D01*
X65539285Y-69471428D01*
X65396428Y-69542857D01*
X65110714Y-69614285D01*
X64896428Y-69614285D01*
X64610714Y-69542857D01*
X64467857Y-69471428D01*
X64325000Y-69328571D01*
X64253571Y-69114285D01*
X64253571Y-68971428D01*
X64325000Y-68757142D01*
X64396428Y-68685714D01*
X65753571Y-68042857D02*
X64253571Y-68042857D01*
X65753571Y-67185714D01*
X64253571Y-67185714D01*
X65753571Y-65685714D02*
X65753571Y-66542857D01*
X65753571Y-66114285D02*
X64253571Y-66114285D01*
X64467857Y-66257142D01*
X64610714Y-66400000D01*
X64682142Y-66542857D01*
D11*
X40502380Y-63289285D02*
X40502380Y-63860714D01*
X40502380Y-63575000D02*
X39502380Y-63575000D01*
X39645238Y-63670238D01*
X39740476Y-63765476D01*
X39788095Y-63860714D01*
X33625000Y-23798285D02*
X33577380Y-23893523D01*
X33577380Y-24036381D01*
X33625000Y-24179238D01*
X33720238Y-24274476D01*
X33815476Y-24322095D01*
X34005952Y-24369714D01*
X34148809Y-24369714D01*
X34339285Y-24322095D01*
X34434523Y-24274476D01*
X34529761Y-24179238D01*
X34577380Y-24036381D01*
X34577380Y-23941142D01*
X34529761Y-23798285D01*
X34482142Y-23750666D01*
X34148809Y-23750666D01*
X34148809Y-23941142D01*
X34577380Y-23322095D02*
X33577380Y-23322095D01*
X34577380Y-22750666D01*
X33577380Y-22750666D01*
X34577380Y-22274476D02*
X33577380Y-22274476D01*
X33577380Y-22036381D01*
X33625000Y-21893523D01*
X33720238Y-21798285D01*
X33815476Y-21750666D01*
X34005952Y-21703047D01*
X34148809Y-21703047D01*
X34339285Y-21750666D01*
X34434523Y-21798285D01*
X34529761Y-21893523D01*
X34577380Y-22036381D01*
X34577380Y-22274476D01*
X49817380Y-24322095D02*
X48817380Y-24322095D01*
X48817380Y-24084000D01*
X48865000Y-23941142D01*
X48960238Y-23845904D01*
X49055476Y-23798285D01*
X49245952Y-23750666D01*
X49388809Y-23750666D01*
X49579285Y-23798285D01*
X49674523Y-23845904D01*
X49769761Y-23941142D01*
X49817380Y-24084000D01*
X49817380Y-24322095D01*
X49245952Y-23179238D02*
X49198333Y-23274476D01*
X49150714Y-23322095D01*
X49055476Y-23369714D01*
X49007857Y-23369714D01*
X48912619Y-23322095D01*
X48865000Y-23274476D01*
X48817380Y-23179238D01*
X48817380Y-22988761D01*
X48865000Y-22893523D01*
X48912619Y-22845904D01*
X49007857Y-22798285D01*
X49055476Y-22798285D01*
X49150714Y-22845904D01*
X49198333Y-22893523D01*
X49245952Y-22988761D01*
X49245952Y-23179238D01*
X49293571Y-23274476D01*
X49341190Y-23322095D01*
X49436428Y-23369714D01*
X49626904Y-23369714D01*
X49722142Y-23322095D01*
X49769761Y-23274476D01*
X49817380Y-23179238D01*
X49817380Y-22988761D01*
X49769761Y-22893523D01*
X49722142Y-22845904D01*
X49626904Y-22798285D01*
X49436428Y-22798285D01*
X49341190Y-22845904D01*
X49293571Y-22893523D01*
X49245952Y-22988761D01*
X29449761Y-24369713D02*
X29497380Y-24226856D01*
X29497380Y-23988761D01*
X29449761Y-23893523D01*
X29402142Y-23845904D01*
X29306904Y-23798285D01*
X29211666Y-23798285D01*
X29116428Y-23845904D01*
X29068809Y-23893523D01*
X29021190Y-23988761D01*
X28973571Y-24179237D01*
X28925952Y-24274475D01*
X28878333Y-24322094D01*
X28783095Y-24369713D01*
X28687857Y-24369713D01*
X28592619Y-24322094D01*
X28545000Y-24274475D01*
X28497380Y-24179237D01*
X28497380Y-23941142D01*
X28545000Y-23798285D01*
X29497380Y-23369713D02*
X28497380Y-23369713D01*
X28497380Y-23131618D01*
X28545000Y-22988761D01*
X28640238Y-22893523D01*
X28735476Y-22845904D01*
X28925952Y-22798285D01*
X29068809Y-22798285D01*
X29259285Y-22845904D01*
X29354523Y-22893523D01*
X29449761Y-22988761D01*
X29497380Y-23131618D01*
X29497380Y-23369713D01*
X29211666Y-22417332D02*
X29211666Y-21941142D01*
X29497380Y-22512570D02*
X28497380Y-22179237D01*
X29497380Y-21845904D01*
X71375666Y-77289190D02*
X71375666Y-76813000D01*
X71661380Y-77384428D02*
X70661380Y-77051095D01*
X71661380Y-76717762D01*
X70661380Y-75908238D02*
X70661380Y-76384428D01*
X71137571Y-76432047D01*
X71089952Y-76384428D01*
X71042333Y-76289190D01*
X71042333Y-76051095D01*
X71089952Y-75955857D01*
X71137571Y-75908238D01*
X71232809Y-75860619D01*
X71470904Y-75860619D01*
X71566142Y-75908238D01*
X71613761Y-75955857D01*
X71661380Y-76051095D01*
X71661380Y-76289190D01*
X71613761Y-76384428D01*
X71566142Y-76432047D01*
X56421380Y-24322095D02*
X55421380Y-24322095D01*
X55421380Y-24084000D01*
X55469000Y-23941142D01*
X55564238Y-23845904D01*
X55659476Y-23798285D01*
X55849952Y-23750666D01*
X55992809Y-23750666D01*
X56183285Y-23798285D01*
X56278523Y-23845904D01*
X56373761Y-23941142D01*
X56421380Y-24084000D01*
X56421380Y-24322095D01*
X55421380Y-22893523D02*
X55421380Y-23084000D01*
X55469000Y-23179238D01*
X55516619Y-23226857D01*
X55659476Y-23322095D01*
X55849952Y-23369714D01*
X56230904Y-23369714D01*
X56326142Y-23322095D01*
X56373761Y-23274476D01*
X56421380Y-23179238D01*
X56421380Y-22988761D01*
X56373761Y-22893523D01*
X56326142Y-22845904D01*
X56230904Y-22798285D01*
X55992809Y-22798285D01*
X55897571Y-22845904D01*
X55849952Y-22893523D01*
X55802333Y-22988761D01*
X55802333Y-23179238D01*
X55849952Y-23274476D01*
X55897571Y-23322095D01*
X55992809Y-23369714D01*
X61342666Y-77289190D02*
X61342666Y-76813000D01*
X61628380Y-77384428D02*
X60628380Y-77051095D01*
X61628380Y-76717762D01*
X61628380Y-75860619D02*
X61628380Y-76432047D01*
X61628380Y-76146333D02*
X60628380Y-76146333D01*
X60771238Y-76241571D01*
X60866476Y-76336809D01*
X60914095Y-76432047D01*
X26909761Y-24369714D02*
X26957380Y-24226857D01*
X26957380Y-23988761D01*
X26909761Y-23893523D01*
X26862142Y-23845904D01*
X26766904Y-23798285D01*
X26671666Y-23798285D01*
X26576428Y-23845904D01*
X26528809Y-23893523D01*
X26481190Y-23988761D01*
X26433571Y-24179238D01*
X26385952Y-24274476D01*
X26338333Y-24322095D01*
X26243095Y-24369714D01*
X26147857Y-24369714D01*
X26052619Y-24322095D01*
X26005000Y-24274476D01*
X25957380Y-24179238D01*
X25957380Y-23941142D01*
X26005000Y-23798285D01*
X26862142Y-22798285D02*
X26909761Y-22845904D01*
X26957380Y-22988761D01*
X26957380Y-23083999D01*
X26909761Y-23226857D01*
X26814523Y-23322095D01*
X26719285Y-23369714D01*
X26528809Y-23417333D01*
X26385952Y-23417333D01*
X26195476Y-23369714D01*
X26100238Y-23322095D01*
X26005000Y-23226857D01*
X25957380Y-23083999D01*
X25957380Y-22988761D01*
X26005000Y-22845904D01*
X26052619Y-22798285D01*
X26957380Y-21893523D02*
X26957380Y-22369714D01*
X25957380Y-22369714D01*
X68962666Y-77289190D02*
X68962666Y-76813000D01*
X69248380Y-77384428D02*
X68248380Y-77051095D01*
X69248380Y-76717762D01*
X68581714Y-75955857D02*
X69248380Y-75955857D01*
X68200761Y-76193952D02*
X68915047Y-76432047D01*
X68915047Y-75813000D01*
X71661380Y-24322095D02*
X70661380Y-24322095D01*
X70661380Y-24084000D01*
X70709000Y-23941142D01*
X70804238Y-23845904D01*
X70899476Y-23798285D01*
X71089952Y-23750666D01*
X71232809Y-23750666D01*
X71423285Y-23798285D01*
X71518523Y-23845904D01*
X71613761Y-23941142D01*
X71661380Y-24084000D01*
X71661380Y-24322095D01*
X70661380Y-23131619D02*
X70661380Y-23036380D01*
X70709000Y-22941142D01*
X70756619Y-22893523D01*
X70851857Y-22845904D01*
X71042333Y-22798285D01*
X71280428Y-22798285D01*
X71470904Y-22845904D01*
X71566142Y-22893523D01*
X71613761Y-22941142D01*
X71661380Y-23036380D01*
X71661380Y-23131619D01*
X71613761Y-23226857D01*
X71566142Y-23274476D01*
X71470904Y-23322095D01*
X71280428Y-23369714D01*
X71042333Y-23369714D01*
X70851857Y-23322095D01*
X70756619Y-23274476D01*
X70709000Y-23226857D01*
X70661380Y-23131619D01*
X58802666Y-77289190D02*
X58802666Y-76813000D01*
X59088380Y-77384428D02*
X58088380Y-77051095D01*
X59088380Y-76717762D01*
X58088380Y-76193952D02*
X58088380Y-76098714D01*
X58136000Y-76003476D01*
X58183619Y-75955857D01*
X58278857Y-75908238D01*
X58469333Y-75860619D01*
X58707428Y-75860619D01*
X58897904Y-75908238D01*
X58993142Y-75955857D01*
X59040761Y-76003476D01*
X59088380Y-76098714D01*
X59088380Y-76193952D01*
X59040761Y-76289190D01*
X58993142Y-76336809D01*
X58897904Y-76384428D01*
X58707428Y-76432047D01*
X58469333Y-76432047D01*
X58278857Y-76384428D01*
X58183619Y-76336809D01*
X58136000Y-76289190D01*
X58088380Y-76193952D01*
X69121380Y-24322095D02*
X68121380Y-24322095D01*
X68121380Y-24084000D01*
X68169000Y-23941142D01*
X68264238Y-23845904D01*
X68359476Y-23798285D01*
X68549952Y-23750666D01*
X68692809Y-23750666D01*
X68883285Y-23798285D01*
X68978523Y-23845904D01*
X69073761Y-23941142D01*
X69121380Y-24084000D01*
X69121380Y-24322095D01*
X69121380Y-22798285D02*
X69121380Y-23369714D01*
X69121380Y-23084000D02*
X68121380Y-23084000D01*
X68264238Y-23179238D01*
X68359476Y-23274476D01*
X68407095Y-23369714D01*
X66422666Y-77289190D02*
X66422666Y-76813000D01*
X66708380Y-77384428D02*
X65708380Y-77051095D01*
X66708380Y-76717762D01*
X65708380Y-76479666D02*
X65708380Y-75860619D01*
X66089333Y-76193952D01*
X66089333Y-76051095D01*
X66136952Y-75955857D01*
X66184571Y-75908238D01*
X66279809Y-75860619D01*
X66517904Y-75860619D01*
X66613142Y-75908238D01*
X66660761Y-75955857D01*
X66708380Y-76051095D01*
X66708380Y-76336809D01*
X66660761Y-76432047D01*
X66613142Y-76479666D01*
X37117380Y-24322094D02*
X36117380Y-24322094D01*
X36117380Y-24083999D01*
X36165000Y-23941142D01*
X36260238Y-23845904D01*
X36355476Y-23798285D01*
X36545952Y-23750666D01*
X36688809Y-23750666D01*
X36879285Y-23798285D01*
X36974523Y-23845904D01*
X37069761Y-23941142D01*
X37117380Y-24083999D01*
X37117380Y-24322094D01*
X37117380Y-22798285D02*
X37117380Y-23369713D01*
X37117380Y-23083999D02*
X36117380Y-23083999D01*
X36260238Y-23179237D01*
X36355476Y-23274475D01*
X36403095Y-23369713D01*
X36117380Y-22464951D02*
X36117380Y-21845904D01*
X36498333Y-22179237D01*
X36498333Y-22036380D01*
X36545952Y-21941142D01*
X36593571Y-21893523D01*
X36688809Y-21845904D01*
X36926904Y-21845904D01*
X37022142Y-21893523D01*
X37069761Y-21941142D01*
X37117380Y-22036380D01*
X37117380Y-22322094D01*
X37069761Y-22417332D01*
X37022142Y-22464951D01*
X38768380Y-79717761D02*
X37768380Y-79717761D01*
X37768380Y-79051095D02*
X37768380Y-78860619D01*
X37816000Y-78765380D01*
X37911238Y-78670142D01*
X38101714Y-78622523D01*
X38435047Y-78622523D01*
X38625523Y-78670142D01*
X38720761Y-78765380D01*
X38768380Y-78860619D01*
X38768380Y-79051095D01*
X38720761Y-79146333D01*
X38625523Y-79241571D01*
X38435047Y-79289190D01*
X38101714Y-79289190D01*
X37911238Y-79241571D01*
X37816000Y-79146333D01*
X37768380Y-79051095D01*
X38768380Y-77622523D02*
X38292190Y-77955857D01*
X38768380Y-78193952D02*
X37768380Y-78193952D01*
X37768380Y-77813000D01*
X37816000Y-77717761D01*
X37863619Y-77670142D01*
X37958857Y-77622523D01*
X38101714Y-77622523D01*
X38196952Y-77670142D01*
X38244571Y-77717761D01*
X38292190Y-77813000D01*
X38292190Y-78193952D01*
X38244571Y-77193952D02*
X38244571Y-76860619D01*
X38768380Y-76717761D02*
X38768380Y-77193952D01*
X37768380Y-77193952D01*
X37768380Y-76717761D01*
X38244571Y-75955857D02*
X38244571Y-76289190D01*
X38768380Y-76289190D02*
X37768380Y-76289190D01*
X37768380Y-75813000D01*
X63882666Y-77289190D02*
X63882666Y-76813000D01*
X64168380Y-77384428D02*
X63168380Y-77051095D01*
X64168380Y-76717762D01*
X63263619Y-76432047D02*
X63216000Y-76384428D01*
X63168380Y-76289190D01*
X63168380Y-76051095D01*
X63216000Y-75955857D01*
X63263619Y-75908238D01*
X63358857Y-75860619D01*
X63454095Y-75860619D01*
X63596952Y-75908238D01*
X64168380Y-76479666D01*
X64168380Y-75860619D01*
X61501380Y-24322095D02*
X60501380Y-24322095D01*
X60501380Y-24084000D01*
X60549000Y-23941142D01*
X60644238Y-23845904D01*
X60739476Y-23798285D01*
X60929952Y-23750666D01*
X61072809Y-23750666D01*
X61263285Y-23798285D01*
X61358523Y-23845904D01*
X61453761Y-23941142D01*
X61501380Y-24084000D01*
X61501380Y-24322095D01*
X60834714Y-22893523D02*
X61501380Y-22893523D01*
X60453761Y-23131619D02*
X61168047Y-23369714D01*
X61168047Y-22750666D01*
X39657380Y-24322094D02*
X38657380Y-24322094D01*
X38657380Y-24083999D01*
X38705000Y-23941142D01*
X38800238Y-23845904D01*
X38895476Y-23798285D01*
X39085952Y-23750666D01*
X39228809Y-23750666D01*
X39419285Y-23798285D01*
X39514523Y-23845904D01*
X39609761Y-23941142D01*
X39657380Y-24083999D01*
X39657380Y-24322094D01*
X39657380Y-22798285D02*
X39657380Y-23369713D01*
X39657380Y-23083999D02*
X38657380Y-23083999D01*
X38800238Y-23179237D01*
X38895476Y-23274475D01*
X38943095Y-23369713D01*
X38752619Y-22417332D02*
X38705000Y-22369713D01*
X38657380Y-22274475D01*
X38657380Y-22036380D01*
X38705000Y-21941142D01*
X38752619Y-21893523D01*
X38847857Y-21845904D01*
X38943095Y-21845904D01*
X39085952Y-21893523D01*
X39657380Y-22464951D01*
X39657380Y-21845904D01*
X66581380Y-24322095D02*
X65581380Y-24322095D01*
X65581380Y-24084000D01*
X65629000Y-23941142D01*
X65724238Y-23845904D01*
X65819476Y-23798285D01*
X66009952Y-23750666D01*
X66152809Y-23750666D01*
X66343285Y-23798285D01*
X66438523Y-23845904D01*
X66533761Y-23941142D01*
X66581380Y-24084000D01*
X66581380Y-24322095D01*
X65676619Y-23369714D02*
X65629000Y-23322095D01*
X65581380Y-23226857D01*
X65581380Y-22988761D01*
X65629000Y-22893523D01*
X65676619Y-22845904D01*
X65771857Y-22798285D01*
X65867095Y-22798285D01*
X66009952Y-22845904D01*
X66581380Y-23417333D01*
X66581380Y-22798285D01*
X50516000Y-77955857D02*
X50468380Y-78051095D01*
X50468380Y-78193953D01*
X50516000Y-78336810D01*
X50611238Y-78432048D01*
X50706476Y-78479667D01*
X50896952Y-78527286D01*
X51039809Y-78527286D01*
X51230285Y-78479667D01*
X51325523Y-78432048D01*
X51420761Y-78336810D01*
X51468380Y-78193953D01*
X51468380Y-78098714D01*
X51420761Y-77955857D01*
X51373142Y-77908238D01*
X51039809Y-77908238D01*
X51039809Y-78098714D01*
X51468380Y-77479667D02*
X50468380Y-77479667D01*
X51468380Y-76908238D01*
X50468380Y-76908238D01*
X51468380Y-76432048D02*
X50468380Y-76432048D01*
X50468380Y-76193953D01*
X50516000Y-76051095D01*
X50611238Y-75955857D01*
X50706476Y-75908238D01*
X50896952Y-75860619D01*
X51039809Y-75860619D01*
X51230285Y-75908238D01*
X51325523Y-75955857D01*
X51420761Y-76051095D01*
X51468380Y-76193953D01*
X51468380Y-76432048D01*
X45388380Y-76765381D02*
X45388380Y-77241571D01*
X45864571Y-77289190D01*
X45816952Y-77241571D01*
X45769333Y-77146333D01*
X45769333Y-76908238D01*
X45816952Y-76813000D01*
X45864571Y-76765381D01*
X45959809Y-76717762D01*
X46197904Y-76717762D01*
X46293142Y-76765381D01*
X46340761Y-76813000D01*
X46388380Y-76908238D01*
X46388380Y-77146333D01*
X46340761Y-77241571D01*
X46293142Y-77289190D01*
X45388380Y-76432047D02*
X46388380Y-76098714D01*
X45388380Y-75765381D01*
X44737380Y-24322094D02*
X43737380Y-24322094D01*
X43737380Y-24083999D01*
X43785000Y-23941142D01*
X43880238Y-23845904D01*
X43975476Y-23798285D01*
X44165952Y-23750666D01*
X44308809Y-23750666D01*
X44499285Y-23798285D01*
X44594523Y-23845904D01*
X44689761Y-23941142D01*
X44737380Y-24083999D01*
X44737380Y-24322094D01*
X44737380Y-22798285D02*
X44737380Y-23369713D01*
X44737380Y-23083999D02*
X43737380Y-23083999D01*
X43880238Y-23179237D01*
X43975476Y-23274475D01*
X44023095Y-23369713D01*
X43737380Y-22179237D02*
X43737380Y-22083999D01*
X43785000Y-21988761D01*
X43832619Y-21941142D01*
X43927857Y-21893523D01*
X44118333Y-21845904D01*
X44356428Y-21845904D01*
X44546904Y-21893523D01*
X44642142Y-21941142D01*
X44689761Y-21988761D01*
X44737380Y-22083999D01*
X44737380Y-22179237D01*
X44689761Y-22274475D01*
X44642142Y-22322094D01*
X44546904Y-22369713D01*
X44356428Y-22417332D01*
X44118333Y-22417332D01*
X43927857Y-22369713D01*
X43832619Y-22322094D01*
X43785000Y-22274475D01*
X43737380Y-22179237D01*
X58961380Y-24322095D02*
X57961380Y-24322095D01*
X57961380Y-24084000D01*
X58009000Y-23941142D01*
X58104238Y-23845904D01*
X58199476Y-23798285D01*
X58389952Y-23750666D01*
X58532809Y-23750666D01*
X58723285Y-23798285D01*
X58818523Y-23845904D01*
X58913761Y-23941142D01*
X58961380Y-24084000D01*
X58961380Y-24322095D01*
X57961380Y-22845904D02*
X57961380Y-23322095D01*
X58437571Y-23369714D01*
X58389952Y-23322095D01*
X58342333Y-23226857D01*
X58342333Y-22988761D01*
X58389952Y-22893523D01*
X58437571Y-22845904D01*
X58532809Y-22798285D01*
X58770904Y-22798285D01*
X58866142Y-22845904D01*
X58913761Y-22893523D01*
X58961380Y-22988761D01*
X58961380Y-23226857D01*
X58913761Y-23322095D01*
X58866142Y-23369714D01*
X47976000Y-77955857D02*
X47928380Y-78051095D01*
X47928380Y-78193953D01*
X47976000Y-78336810D01*
X48071238Y-78432048D01*
X48166476Y-78479667D01*
X48356952Y-78527286D01*
X48499809Y-78527286D01*
X48690285Y-78479667D01*
X48785523Y-78432048D01*
X48880761Y-78336810D01*
X48928380Y-78193953D01*
X48928380Y-78098714D01*
X48880761Y-77955857D01*
X48833142Y-77908238D01*
X48499809Y-77908238D01*
X48499809Y-78098714D01*
X48928380Y-77479667D02*
X47928380Y-77479667D01*
X48928380Y-76908238D01*
X47928380Y-76908238D01*
X48928380Y-76432048D02*
X47928380Y-76432048D01*
X47928380Y-76193953D01*
X47976000Y-76051095D01*
X48071238Y-75955857D01*
X48166476Y-75908238D01*
X48356952Y-75860619D01*
X48499809Y-75860619D01*
X48690285Y-75908238D01*
X48785523Y-75955857D01*
X48880761Y-76051095D01*
X48928380Y-76193953D01*
X48928380Y-76432048D01*
X31751666Y-24369713D02*
X31751666Y-23893523D01*
X32037380Y-24464951D02*
X31037380Y-24131618D01*
X32037380Y-23798285D01*
X32037380Y-22893523D02*
X31561190Y-23226856D01*
X32037380Y-23464951D02*
X31037380Y-23464951D01*
X31037380Y-23083999D01*
X31085000Y-22988761D01*
X31132619Y-22941142D01*
X31227857Y-22893523D01*
X31370714Y-22893523D01*
X31465952Y-22941142D01*
X31513571Y-22988761D01*
X31561190Y-23083999D01*
X31561190Y-23464951D01*
X31513571Y-22464951D02*
X31513571Y-22131618D01*
X32037380Y-21988761D02*
X32037380Y-22464951D01*
X31037380Y-22464951D01*
X31037380Y-21988761D01*
X31513571Y-21226856D02*
X31513571Y-21560189D01*
X32037380Y-21560189D02*
X31037380Y-21560189D01*
X31037380Y-21083999D01*
X42197380Y-24322094D02*
X41197380Y-24322094D01*
X41197380Y-24083999D01*
X41245000Y-23941142D01*
X41340238Y-23845904D01*
X41435476Y-23798285D01*
X41625952Y-23750666D01*
X41768809Y-23750666D01*
X41959285Y-23798285D01*
X42054523Y-23845904D01*
X42149761Y-23941142D01*
X42197380Y-24083999D01*
X42197380Y-24322094D01*
X42197380Y-22798285D02*
X42197380Y-23369713D01*
X42197380Y-23083999D02*
X41197380Y-23083999D01*
X41340238Y-23179237D01*
X41435476Y-23274475D01*
X41483095Y-23369713D01*
X42197380Y-21845904D02*
X42197380Y-22417332D01*
X42197380Y-22131618D02*
X41197380Y-22131618D01*
X41340238Y-22226856D01*
X41435476Y-22322094D01*
X41483095Y-22417332D01*
X53881380Y-24322095D02*
X52881380Y-24322095D01*
X52881380Y-24084000D01*
X52929000Y-23941142D01*
X53024238Y-23845904D01*
X53119476Y-23798285D01*
X53309952Y-23750666D01*
X53452809Y-23750666D01*
X53643285Y-23798285D01*
X53738523Y-23845904D01*
X53833761Y-23941142D01*
X53881380Y-24084000D01*
X53881380Y-24322095D01*
X52881380Y-23417333D02*
X52881380Y-22750666D01*
X53881380Y-23179238D01*
X53008380Y-77955857D02*
X54008380Y-77622523D01*
X53008380Y-77289190D01*
X54008380Y-76955857D02*
X53008380Y-76955857D01*
X54008380Y-76479666D02*
X53008380Y-76479666D01*
X54008380Y-75908238D01*
X53008380Y-75908238D01*
X41308380Y-77574905D02*
X40832190Y-77908238D01*
X41308380Y-78146333D02*
X40308380Y-78146333D01*
X40308380Y-77765381D01*
X40356000Y-77670143D01*
X40403619Y-77622524D01*
X40498857Y-77574905D01*
X40641714Y-77574905D01*
X40736952Y-77622524D01*
X40784571Y-77670143D01*
X40832190Y-77765381D01*
X40832190Y-78146333D01*
X41260761Y-77193952D02*
X41308380Y-77051095D01*
X41308380Y-76813000D01*
X41260761Y-76717762D01*
X41213142Y-76670143D01*
X41117904Y-76622524D01*
X41022666Y-76622524D01*
X40927428Y-76670143D01*
X40879809Y-76717762D01*
X40832190Y-76813000D01*
X40784571Y-77003476D01*
X40736952Y-77098714D01*
X40689333Y-77146333D01*
X40594095Y-77193952D01*
X40498857Y-77193952D01*
X40403619Y-77146333D01*
X40356000Y-77098714D01*
X40308380Y-77003476D01*
X40308380Y-76765381D01*
X40356000Y-76622524D01*
X40308380Y-76336809D02*
X40308380Y-75765381D01*
X41308380Y-76051095D02*
X40308380Y-76051095D01*
X47404380Y-24322095D02*
X46404380Y-24322095D01*
X46404380Y-24084000D01*
X46452000Y-23941142D01*
X46547238Y-23845904D01*
X46642476Y-23798285D01*
X46832952Y-23750666D01*
X46975809Y-23750666D01*
X47166285Y-23798285D01*
X47261523Y-23845904D01*
X47356761Y-23941142D01*
X47404380Y-24084000D01*
X47404380Y-24322095D01*
X47404380Y-23274476D02*
X47404380Y-23084000D01*
X47356761Y-22988761D01*
X47309142Y-22941142D01*
X47166285Y-22845904D01*
X46975809Y-22798285D01*
X46594857Y-22798285D01*
X46499619Y-22845904D01*
X46452000Y-22893523D01*
X46404380Y-22988761D01*
X46404380Y-23179238D01*
X46452000Y-23274476D01*
X46499619Y-23322095D01*
X46594857Y-23369714D01*
X46832952Y-23369714D01*
X46928190Y-23322095D01*
X46975809Y-23274476D01*
X47023428Y-23179238D01*
X47023428Y-22988761D01*
X46975809Y-22893523D01*
X46928190Y-22845904D01*
X46832952Y-22798285D01*
X64041380Y-24322095D02*
X63041380Y-24322095D01*
X63041380Y-24084000D01*
X63089000Y-23941142D01*
X63184238Y-23845904D01*
X63279476Y-23798285D01*
X63469952Y-23750666D01*
X63612809Y-23750666D01*
X63803285Y-23798285D01*
X63898523Y-23845904D01*
X63993761Y-23941142D01*
X64041380Y-24084000D01*
X64041380Y-24322095D01*
X63041380Y-23417333D02*
X63041380Y-22798285D01*
X63422333Y-23131619D01*
X63422333Y-22988761D01*
X63469952Y-22893523D01*
X63517571Y-22845904D01*
X63612809Y-22798285D01*
X63850904Y-22798285D01*
X63946142Y-22845904D01*
X63993761Y-22893523D01*
X64041380Y-22988761D01*
X64041380Y-23274476D01*
X63993761Y-23369714D01*
X63946142Y-23417333D01*
X42848380Y-78289191D02*
X42848380Y-77670143D01*
X43229333Y-78003476D01*
X43229333Y-77860619D01*
X43276952Y-77765381D01*
X43324571Y-77717762D01*
X43419809Y-77670143D01*
X43657904Y-77670143D01*
X43753142Y-77717762D01*
X43800761Y-77765381D01*
X43848380Y-77860619D01*
X43848380Y-78146334D01*
X43800761Y-78241572D01*
X43753142Y-78289191D01*
X42848380Y-77384429D02*
X43848380Y-77051096D01*
X42848380Y-76717762D01*
X42848380Y-76479667D02*
X42848380Y-75860619D01*
X43229333Y-76193953D01*
X43229333Y-76051096D01*
X43276952Y-75955857D01*
X43324571Y-75908238D01*
X43419809Y-75860619D01*
X43657904Y-75860619D01*
X43753142Y-75908238D01*
X43800761Y-75955857D01*
X43848380Y-76051096D01*
X43848380Y-76336810D01*
X43800761Y-76432048D01*
X43753142Y-76479667D01*
D12*
X48884420Y-55510000D02*
X49165580Y-55510000D01*
X48884420Y-54490000D02*
X49165580Y-54490000D01*
X54057836Y-58460000D02*
X53842164Y-58460000D01*
X54057836Y-57740000D02*
X53842164Y-57740000D01*
X64966500Y-55492164D02*
X64966500Y-55707836D01*
X65686500Y-55492164D02*
X65686500Y-55707836D01*
X45130000Y-35000000D02*
X46150000Y-35000000D01*
X42590000Y-35000000D02*
X43610000Y-35000000D01*
X55290000Y-35000000D02*
X56310000Y-35000000D01*
X47670000Y-29800000D02*
X48690000Y-29800000D01*
X35990000Y-36440000D02*
X35990000Y-35000000D01*
X55290000Y-29800000D02*
X56310000Y-29800000D01*
X37510000Y-35000000D02*
X38530000Y-35000000D01*
X60370000Y-29800000D02*
X61390000Y-29800000D01*
X40050000Y-35000000D02*
X41070000Y-35000000D01*
X50210000Y-35000000D02*
X51230000Y-35000000D01*
X52750000Y-35000000D02*
X53770000Y-35000000D01*
X42590000Y-29800000D02*
X43610000Y-29800000D01*
X45130000Y-29800000D02*
X46150000Y-29800000D01*
X63480000Y-35000000D02*
X63480000Y-29800000D01*
X62910000Y-35000000D02*
X63480000Y-35000000D01*
X47670000Y-35000000D02*
X48690000Y-35000000D01*
X35420000Y-35000000D02*
X35420000Y-29800000D01*
X40050000Y-29800000D02*
X41070000Y-29800000D01*
X60370000Y-35000000D02*
X61390000Y-35000000D01*
X35420000Y-29800000D02*
X35990000Y-29800000D01*
X37510000Y-29800000D02*
X38530000Y-29800000D01*
X35420000Y-35000000D02*
X35990000Y-35000000D01*
X52750000Y-29800000D02*
X53770000Y-29800000D01*
X50210000Y-29800000D02*
X51230000Y-29800000D01*
X62910000Y-29800000D02*
X63480000Y-29800000D01*
X57830000Y-35000000D02*
X58850000Y-35000000D01*
X57830000Y-29800000D02*
X58850000Y-29800000D01*
X47496359Y-59030000D02*
X47803641Y-59030000D01*
X47496359Y-58270000D02*
X47803641Y-58270000D01*
X50290580Y-57310000D02*
X50009420Y-57310000D01*
X50290580Y-56290000D02*
X50009420Y-56290000D01*
X37893641Y-39380000D02*
X37586359Y-39380000D01*
X37893641Y-38620000D02*
X37586359Y-38620000D01*
X65213641Y-33020000D02*
X64906359Y-33020000D01*
X65213641Y-33780000D02*
X64906359Y-33780000D01*
X60440000Y-40207836D02*
X60440000Y-39992164D01*
X61160000Y-40207836D02*
X61160000Y-39992164D01*
X27485000Y-73185000D02*
X27485000Y-70900000D01*
X26015000Y-70900000D02*
X26015000Y-73185000D01*
X26015000Y-73185000D02*
X27485000Y-73185000D01*
X57020000Y-57796359D02*
X57020000Y-58103641D01*
X57780000Y-57796359D02*
X57780000Y-58103641D01*
X60553641Y-62430000D02*
X60246359Y-62430000D01*
X60553641Y-61670000D02*
X60246359Y-61670000D01*
X72396359Y-31480000D02*
X72703641Y-31480000D01*
X72396359Y-30720000D02*
X72703641Y-30720000D01*
X34535000Y-73185000D02*
X34535000Y-70900000D01*
X33065000Y-73185000D02*
X34535000Y-73185000D01*
X33065000Y-70900000D02*
X33065000Y-73185000D01*
X64906000Y-47000420D02*
X64906000Y-47281580D01*
X63886000Y-47000420D02*
X63886000Y-47281580D01*
X44400000Y-63075000D02*
X44400000Y-55775000D01*
X38900000Y-63075000D02*
X38900000Y-55775000D01*
X44400000Y-55775000D02*
X43250000Y-55775000D01*
X27753641Y-27770000D02*
X27446359Y-27770000D01*
X27753641Y-28530000D02*
X27446359Y-28530000D01*
X30503641Y-27770000D02*
X30196359Y-27770000D01*
X30503641Y-28530000D02*
X30196359Y-28530000D01*
X35656359Y-41230000D02*
X35963641Y-41230000D01*
X35656359Y-40470000D02*
X35963641Y-40470000D01*
X21570000Y-29584000D02*
X34590000Y-29584000D01*
X21570000Y-69984000D02*
X34590000Y-69984000D01*
X34590000Y-29584000D02*
X34590000Y-69984000D01*
X21400000Y-39894000D02*
X21400000Y-41894000D01*
X21570000Y-29584000D02*
X21570000Y-69984000D01*
X66580000Y-38053641D02*
X66580000Y-37746359D01*
X65820000Y-38053641D02*
X65820000Y-37746359D01*
X40525000Y-39705000D02*
X38575000Y-39705000D01*
X40525000Y-39705000D02*
X42475000Y-39705000D01*
X40525000Y-44825000D02*
X38575000Y-44825000D01*
X40525000Y-44825000D02*
X43975000Y-44825000D01*
X69250000Y-32910000D02*
X70650000Y-32910000D01*
X70650000Y-30590000D02*
X68750000Y-30590000D01*
X53292164Y-43110000D02*
X53507836Y-43110000D01*
X53292164Y-42390000D02*
X53507836Y-42390000D01*
X36878641Y-54145000D02*
X36571359Y-54145000D01*
X36878641Y-54905000D02*
X36571359Y-54905000D01*
X53880000Y-39603641D02*
X53880000Y-39296359D01*
X53120000Y-39603641D02*
X53120000Y-39296359D01*
X75570000Y-72780000D02*
X75870000Y-72780000D01*
X73030000Y-76920000D02*
X72730000Y-76920000D01*
X72730000Y-72780000D02*
X73030000Y-72780000D01*
X75870000Y-72780000D02*
X75870000Y-76920000D01*
X72730000Y-76920000D02*
X72730000Y-72780000D01*
X75870000Y-76920000D02*
X75570000Y-76920000D01*
X60610000Y-58857836D02*
X60610000Y-58642164D01*
X59890000Y-58857836D02*
X59890000Y-58642164D01*
D11*
X70012779Y-56960000D02*
X69687221Y-56960000D01*
X70012779Y-55940000D02*
X69687221Y-55940000D01*
D12*
X63696359Y-51880000D02*
X64003641Y-51880000D01*
X63696359Y-51120000D02*
X64003641Y-51120000D01*
X47486359Y-60130000D02*
X47793641Y-60130000D01*
X47486359Y-59370000D02*
X47793641Y-59370000D01*
D11*
X69103641Y-52520000D02*
X68796359Y-52520000D01*
X69103641Y-53280000D02*
X68796359Y-53280000D01*
D12*
X50744500Y-55110000D02*
X50744500Y-54160000D01*
X60964500Y-54160000D02*
X62304500Y-54160000D01*
X60964500Y-55110000D02*
X60964500Y-54160000D01*
X60014500Y-55110000D02*
X60964500Y-55110000D01*
X51694500Y-55110000D02*
X50744500Y-55110000D01*
X60964500Y-44890000D02*
X60964500Y-45840000D01*
X51694500Y-44890000D02*
X50744500Y-44890000D01*
X50744500Y-44890000D02*
X50744500Y-45840000D01*
X60014500Y-44890000D02*
X60964500Y-44890000D01*
X29700000Y-80000000D02*
X29700000Y-80000000D01*
X27300000Y-79400000D02*
X25600000Y-79400000D01*
X24800000Y-79700000D02*
X24800000Y-79400000D01*
X32300000Y-75600000D02*
X32300000Y-79400000D01*
X29800000Y-79700000D02*
X29800000Y-79400000D01*
X25700000Y-81300000D02*
X25700000Y-80800000D01*
X26200000Y-81300000D02*
X26200000Y-81300000D01*
X28400000Y-75600000D02*
X28400000Y-75600000D01*
X27000000Y-75600000D02*
X25900000Y-75600000D01*
X30600000Y-79700000D02*
X29800000Y-79700000D01*
X25700000Y-80800000D02*
X25700000Y-80800000D01*
X29200000Y-81300000D02*
X29200000Y-81300000D01*
X23100000Y-75600000D02*
X24500000Y-75600000D01*
X25700000Y-80000000D02*
X25700000Y-80000000D01*
X30600000Y-79400000D02*
X30600000Y-79700000D01*
X32300000Y-79400000D02*
X30600000Y-79400000D01*
X23100000Y-79400000D02*
X23100000Y-75600000D01*
X29700000Y-80500000D02*
X29700000Y-80000000D01*
X27300000Y-79700000D02*
X27300000Y-79400000D01*
X25600000Y-79400000D02*
X25600000Y-79700000D01*
X29700000Y-81300000D02*
X29200000Y-81300000D01*
X25900000Y-75600000D02*
X25900000Y-75600000D01*
X30900000Y-75600000D02*
X32300000Y-75600000D01*
X28100000Y-79700000D02*
X27300000Y-79700000D01*
X27000000Y-81300000D02*
X27000000Y-81300000D01*
X27300000Y-81300000D02*
X27300000Y-81300000D01*
X29500000Y-75600000D02*
X28400000Y-75600000D01*
X25700000Y-81300000D02*
X26200000Y-81300000D01*
X28400000Y-81300000D02*
X28400000Y-81300000D01*
X28100000Y-81300000D02*
X27300000Y-81300000D01*
X23100000Y-79400000D02*
X23100000Y-79400000D01*
X24800000Y-79400000D02*
X23100000Y-79400000D01*
X28100000Y-79400000D02*
X28100000Y-79700000D01*
X29700000Y-80800000D02*
X29700000Y-80800000D01*
X29800000Y-79400000D02*
X28100000Y-79400000D01*
X25600000Y-79700000D02*
X24800000Y-79700000D01*
X25700000Y-80500000D02*
X25700000Y-80000000D01*
X29700000Y-81300000D02*
X29700000Y-80800000D01*
X26500000Y-81300000D02*
X27000000Y-81300000D01*
X28900000Y-81300000D02*
X28400000Y-81300000D01*
X64636500Y-56750000D02*
X64636500Y-57550000D01*
X64636500Y-56750000D02*
X64636500Y-55950000D01*
X61516500Y-56750000D02*
X61516500Y-55950000D01*
X61516500Y-56750000D02*
X61516500Y-58550000D01*
X58007836Y-42140000D02*
X57792164Y-42140000D01*
X58007836Y-42860000D02*
X57792164Y-42860000D01*
X61453641Y-60620000D02*
X61146359Y-60620000D01*
X61453641Y-61380000D02*
X61146359Y-61380000D01*
X63480000Y-45796359D02*
X63480000Y-46103641D01*
X62720000Y-45796359D02*
X62720000Y-46103641D01*
X44400000Y-48050000D02*
X43250000Y-48050000D01*
X38900000Y-55350000D02*
X38900000Y-48050000D01*
X44400000Y-55350000D02*
X44400000Y-48050000D01*
D11*
X66950000Y-51960000D02*
X68750000Y-51960000D01*
X66950000Y-51960000D02*
X66150000Y-51960000D01*
X66950000Y-48840000D02*
X66150000Y-48840000D01*
X66950000Y-48840000D02*
X67750000Y-48840000D01*
D12*
X48116500Y-51592164D02*
X48116500Y-51807836D01*
X48836500Y-51592164D02*
X48836500Y-51807836D01*
X56680000Y-57646359D02*
X56680000Y-57953641D01*
X55920000Y-57646359D02*
X55920000Y-57953641D01*
X37920000Y-60188641D02*
X37920000Y-59881359D01*
X38680000Y-60188641D02*
X38680000Y-59881359D01*
X37982836Y-61490000D02*
X37767164Y-61490000D01*
X37982836Y-62210000D02*
X37767164Y-62210000D01*
D11*
X69420000Y-47353641D02*
X69420000Y-47046359D01*
X70180000Y-47353641D02*
X70180000Y-47046359D01*
D12*
X24370000Y-24230000D02*
X24670000Y-24230000D01*
X24670000Y-24230000D02*
X24670000Y-28370000D01*
X24670000Y-28370000D02*
X24370000Y-28370000D01*
X21830000Y-28370000D02*
X21530000Y-28370000D01*
X21530000Y-24230000D02*
X21830000Y-24230000D01*
X21530000Y-28370000D02*
X21530000Y-24230000D01*
X65990580Y-52890000D02*
X65709420Y-52890000D01*
X65990580Y-53910000D02*
X65709420Y-53910000D01*
X40257836Y-45140000D02*
X40042164Y-45140000D01*
X40257836Y-45860000D02*
X40042164Y-45860000D01*
X64093641Y-40730000D02*
X63786359Y-40730000D01*
X64093641Y-39970000D02*
X63786359Y-39970000D01*
G36*
X77593754Y-32049124D02*
G01*
X77334428Y-32051004D01*
X77045446Y-32052062D01*
X76736534Y-32052324D01*
X76417418Y-32051820D01*
X76097822Y-32050577D01*
X75787471Y-32048623D01*
X75496092Y-32045987D01*
X75233410Y-32042697D01*
X75009149Y-32038781D01*
X74833036Y-32034266D01*
X74714795Y-32029182D01*
X74664152Y-32023555D01*
X74663024Y-32022756D01*
X74664317Y-31981639D01*
X74671080Y-31869538D01*
X74682759Y-31693877D01*
X74698802Y-31462079D01*
X74717804Y-31193563D01*
X75104078Y-31193563D01*
X75112899Y-31299901D01*
X75144547Y-31386191D01*
X75174923Y-31415796D01*
X75241360Y-31434769D01*
X75366117Y-31458431D01*
X75529299Y-31483315D01*
X75656579Y-31499707D01*
X75849160Y-31524159D01*
X76031359Y-31549932D01*
X76177130Y-31573221D01*
X76236464Y-31584459D01*
X76366776Y-31609226D01*
X76540793Y-31638083D01*
X76744144Y-31669111D01*
X76962459Y-31700391D01*
X77181366Y-31730006D01*
X77386497Y-31756037D01*
X77563480Y-31776566D01*
X77697944Y-31789673D01*
X77775520Y-31793441D01*
X77788020Y-31791591D01*
X77806526Y-31742772D01*
X77813228Y-31643920D01*
X77811297Y-31586686D01*
X77799458Y-31403483D01*
X77425929Y-31355859D01*
X77112660Y-31312851D01*
X76867714Y-31270735D01*
X76680919Y-31225687D01*
X76542101Y-31173881D01*
X76441088Y-31111492D01*
X76367707Y-31034695D01*
X76311784Y-30939664D01*
X76310188Y-30936319D01*
X76261628Y-30780985D01*
X76247929Y-30612873D01*
X76268836Y-30461092D01*
X76315170Y-30364744D01*
X76363632Y-30319050D01*
X76428606Y-30290104D01*
X76522756Y-30277144D01*
X76658743Y-30279403D01*
X76849229Y-30296118D01*
X77054997Y-30320078D01*
X77298445Y-30345840D01*
X77476384Y-30353031D01*
X77600104Y-30339995D01*
X77680895Y-30305073D01*
X77730045Y-30246609D01*
X77742277Y-30219190D01*
X77756258Y-30108511D01*
X77723869Y-30007626D01*
X77660099Y-29930579D01*
X77579939Y-29891413D01*
X77498378Y-29904171D01*
X77451705Y-29946969D01*
X77424431Y-29974723D01*
X77382739Y-29988995D01*
X77311073Y-29989895D01*
X77193877Y-29977531D01*
X77015594Y-29952012D01*
X77002987Y-29950121D01*
X76912199Y-29937467D01*
X76753260Y-29915313D01*
X76565008Y-29896757D01*
X76422744Y-29894554D01*
X76310982Y-29908806D01*
X76214234Y-29939615D01*
X76178509Y-29955532D01*
X76048260Y-30057929D01*
X75956983Y-30211510D01*
X75906398Y-30398206D01*
X75898225Y-30599945D01*
X75934184Y-30798656D01*
X76015997Y-30976270D01*
X76074205Y-31051053D01*
X76114837Y-31094953D01*
X76134286Y-31123902D01*
X76122507Y-31138750D01*
X76069457Y-31140345D01*
X75965090Y-31129536D01*
X75799362Y-31107175D01*
X75652824Y-31086685D01*
X75471762Y-31063824D01*
X75316764Y-31048692D01*
X75205947Y-31042781D01*
X75159986Y-31046132D01*
X75119351Y-31098525D01*
X75104078Y-31193563D01*
X74717804Y-31193563D01*
X74718653Y-31181567D01*
X74741761Y-30859765D01*
X74767570Y-30504095D01*
X74795529Y-30121981D01*
X74825082Y-29720846D01*
X74855677Y-29308114D01*
X74886760Y-28891207D01*
X74904782Y-28650858D01*
X75931811Y-28650858D01*
X75968691Y-28880806D01*
X76072573Y-29086728D01*
X76233323Y-29259886D01*
X76440806Y-29391542D01*
X76684888Y-29472959D01*
X76912199Y-29496133D01*
X77177196Y-29468976D01*
X77388637Y-29385698D01*
X77549419Y-29244926D01*
X77602299Y-29168722D01*
X77670957Y-29030218D01*
X77696310Y-28899016D01*
X77682212Y-28743160D01*
X77664055Y-28656601D01*
X77610954Y-28522695D01*
X77529086Y-28400955D01*
X77521301Y-28392536D01*
X77413778Y-28280305D01*
X77518151Y-28240623D01*
X77601995Y-28176518D01*
X77627408Y-28086477D01*
X77597212Y-27993881D01*
X77514225Y-27922113D01*
X77477996Y-27907679D01*
X77393608Y-27907517D01*
X77355558Y-27946912D01*
X77336838Y-27970706D01*
X77304582Y-27985181D01*
X77247090Y-27989959D01*
X77152659Y-27984663D01*
X77009589Y-27968916D01*
X76806177Y-27942342D01*
X76680181Y-27925151D01*
X76399276Y-27889401D01*
X76191925Y-27869349D01*
X76148673Y-27867956D01*
X76059282Y-27865077D01*
X76002723Y-27876441D01*
X75974021Y-27952241D01*
X76004558Y-28037958D01*
X76083083Y-28105069D01*
X76139992Y-28147980D01*
X76131322Y-28177532D01*
X76069958Y-28246670D01*
X76008176Y-28364002D01*
X75958366Y-28500133D01*
X75932917Y-28625670D01*
X75931811Y-28650858D01*
X74904782Y-28650858D01*
X74917777Y-28477549D01*
X74948176Y-28074563D01*
X74977401Y-27689672D01*
X75004900Y-27330300D01*
X75030120Y-27003870D01*
X75037201Y-26913386D01*
X75577941Y-26913386D01*
X75586868Y-27007803D01*
X75628386Y-27053093D01*
X75700813Y-27073491D01*
X75823742Y-27091619D01*
X75922543Y-27098065D01*
X75979627Y-27102548D01*
X76005798Y-27129104D01*
X76008274Y-27197393D01*
X75997286Y-27301690D01*
X75991213Y-27461731D01*
X76022072Y-27559387D01*
X76094432Y-27603943D01*
X76148673Y-27609211D01*
X76220845Y-27591820D01*
X76263603Y-27530970D01*
X76282895Y-27413642D01*
X76285681Y-27309322D01*
X76285681Y-27133821D01*
X76413468Y-27156686D01*
X76756301Y-27206989D01*
X77032068Y-27222054D01*
X77244524Y-27200823D01*
X77397424Y-27142239D01*
X77494524Y-27045243D01*
X77539578Y-26908777D01*
X77543886Y-26838198D01*
X77535032Y-26708983D01*
X77513083Y-26598717D01*
X77506343Y-26579650D01*
X77453109Y-26480250D01*
X77392033Y-26392182D01*
X77329710Y-26327933D01*
X77270276Y-26320540D01*
X77210413Y-26343516D01*
X77105560Y-26391290D01*
X77187107Y-26523235D01*
X77241156Y-26635631D01*
X77268003Y-26740350D01*
X77268653Y-26753852D01*
X77257470Y-26839540D01*
X77216206Y-26895582D01*
X77133289Y-26925946D01*
X76997148Y-26934598D01*
X76796210Y-26925506D01*
X76772865Y-26923829D01*
X76603814Y-26909706D01*
X76461318Y-26894647D01*
X76365822Y-26880965D01*
X76340991Y-26874963D01*
X76310908Y-26839913D01*
X76293294Y-26755022D01*
X76286111Y-26608088D01*
X76285681Y-26544143D01*
X76284230Y-26388867D01*
X76276525Y-26294744D01*
X76257533Y-26244298D01*
X76222225Y-26220054D01*
X76189619Y-26210438D01*
X76105828Y-26199313D01*
X76052596Y-26224622D01*
X76023408Y-26298156D01*
X76011749Y-26431708D01*
X76010449Y-26534792D01*
X76010449Y-26831894D01*
X75577941Y-26777856D01*
X75577941Y-26913386D01*
X75037201Y-26913386D01*
X75052506Y-26717804D01*
X75071505Y-26479527D01*
X75086564Y-26296461D01*
X75097128Y-26176030D01*
X75102645Y-26125656D01*
X75102835Y-26124923D01*
X75141432Y-26122569D01*
X75249466Y-26120416D01*
X75417736Y-26118536D01*
X75637041Y-26116997D01*
X75898180Y-26115870D01*
X76191954Y-26115223D01*
X76401856Y-26115093D01*
X77697598Y-26115093D01*
X77717945Y-26242880D01*
X77724180Y-26302910D01*
X77735559Y-26434660D01*
X77751564Y-26631413D01*
X77771678Y-26886456D01*
X77795385Y-27193072D01*
X77822167Y-27544546D01*
X77851510Y-27934165D01*
X77882894Y-28355212D01*
X77915805Y-28800973D01*
X77936520Y-29083669D01*
X77969971Y-29540619D01*
X78002000Y-29976492D01*
X78032111Y-30384635D01*
X78059808Y-30758395D01*
X78084594Y-31091120D01*
X78105972Y-31376157D01*
X78123446Y-31606854D01*
X78136520Y-31776557D01*
X78144697Y-31878615D01*
X78147092Y-31905023D01*
X78149883Y-31990787D01*
X78139998Y-32032809D01*
X78096547Y-32038263D01*
X77984539Y-32042781D01*
X77813700Y-32046392D01*
X77775520Y-32046866D01*
X77593754Y-32049124D01*
G37*
D11*
X77593754Y-32049124D02*
X77334428Y-32051004D01*
X77045446Y-32052062D01*
X76736534Y-32052324D01*
X76417418Y-32051820D01*
X76097822Y-32050577D01*
X75787471Y-32048623D01*
X75496092Y-32045987D01*
X75233410Y-32042697D01*
X75009149Y-32038781D01*
X74833036Y-32034266D01*
X74714795Y-32029182D01*
X74664152Y-32023555D01*
X74663024Y-32022756D01*
X74664317Y-31981639D01*
X74671080Y-31869538D01*
X74682759Y-31693877D01*
X74698802Y-31462079D01*
X74717804Y-31193563D01*
X75104078Y-31193563D01*
X75112899Y-31299901D01*
X75144547Y-31386191D01*
X75174923Y-31415796D01*
X75241360Y-31434769D01*
X75366117Y-31458431D01*
X75529299Y-31483315D01*
X75656579Y-31499707D01*
X75849160Y-31524159D01*
X76031359Y-31549932D01*
X76177130Y-31573221D01*
X76236464Y-31584459D01*
X76366776Y-31609226D01*
X76540793Y-31638083D01*
X76744144Y-31669111D01*
X76962459Y-31700391D01*
X77181366Y-31730006D01*
X77386497Y-31756037D01*
X77563480Y-31776566D01*
X77697944Y-31789673D01*
X77775520Y-31793441D01*
X77788020Y-31791591D01*
X77806526Y-31742772D01*
X77813228Y-31643920D01*
X77811297Y-31586686D01*
X77799458Y-31403483D01*
X77425929Y-31355859D01*
X77112660Y-31312851D01*
X76867714Y-31270735D01*
X76680919Y-31225687D01*
X76542101Y-31173881D01*
X76441088Y-31111492D01*
X76367707Y-31034695D01*
X76311784Y-30939664D01*
X76310188Y-30936319D01*
X76261628Y-30780985D01*
X76247929Y-30612873D01*
X76268836Y-30461092D01*
X76315170Y-30364744D01*
X76363632Y-30319050D01*
X76428606Y-30290104D01*
X76522756Y-30277144D01*
X76658743Y-30279403D01*
X76849229Y-30296118D01*
X77054997Y-30320078D01*
X77298445Y-30345840D01*
X77476384Y-30353031D01*
X77600104Y-30339995D01*
X77680895Y-30305073D01*
X77730045Y-30246609D01*
X77742277Y-30219190D01*
X77756258Y-30108511D01*
X77723869Y-30007626D01*
X77660099Y-29930579D01*
X77579939Y-29891413D01*
X77498378Y-29904171D01*
X77451705Y-29946969D01*
X77424431Y-29974723D01*
X77382739Y-29988995D01*
X77311073Y-29989895D01*
X77193877Y-29977531D01*
X77015594Y-29952012D01*
X77002987Y-29950121D01*
X76912199Y-29937467D01*
X76753260Y-29915313D01*
X76565008Y-29896757D01*
X76422744Y-29894554D01*
X76310982Y-29908806D01*
X76214234Y-29939615D01*
X76178509Y-29955532D01*
X76048260Y-30057929D01*
X75956983Y-30211510D01*
X75906398Y-30398206D01*
X75898225Y-30599945D01*
X75934184Y-30798656D01*
X76015997Y-30976270D01*
X76074205Y-31051053D01*
X76114837Y-31094953D01*
X76134286Y-31123902D01*
X76122507Y-31138750D01*
X76069457Y-31140345D01*
X75965090Y-31129536D01*
X75799362Y-31107175D01*
X75652824Y-31086685D01*
X75471762Y-31063824D01*
X75316764Y-31048692D01*
X75205947Y-31042781D01*
X75159986Y-31046132D01*
X75119351Y-31098525D01*
X75104078Y-31193563D01*
X74717804Y-31193563D01*
X74718653Y-31181567D01*
X74741761Y-30859765D01*
X74767570Y-30504095D01*
X74795529Y-30121981D01*
X74825082Y-29720846D01*
X74855677Y-29308114D01*
X74886760Y-28891207D01*
X74904782Y-28650858D01*
X75931811Y-28650858D01*
X75968691Y-28880806D01*
X76072573Y-29086728D01*
X76233323Y-29259886D01*
X76440806Y-29391542D01*
X76684888Y-29472959D01*
X76912199Y-29496133D01*
X77177196Y-29468976D01*
X77388637Y-29385698D01*
X77549419Y-29244926D01*
X77602299Y-29168722D01*
X77670957Y-29030218D01*
X77696310Y-28899016D01*
X77682212Y-28743160D01*
X77664055Y-28656601D01*
X77610954Y-28522695D01*
X77529086Y-28400955D01*
X77521301Y-28392536D01*
X77413778Y-28280305D01*
X77518151Y-28240623D01*
X77601995Y-28176518D01*
X77627408Y-28086477D01*
X77597212Y-27993881D01*
X77514225Y-27922113D01*
X77477996Y-27907679D01*
X77393608Y-27907517D01*
X77355558Y-27946912D01*
X77336838Y-27970706D01*
X77304582Y-27985181D01*
X77247090Y-27989959D01*
X77152659Y-27984663D01*
X77009589Y-27968916D01*
X76806177Y-27942342D01*
X76680181Y-27925151D01*
X76399276Y-27889401D01*
X76191925Y-27869349D01*
X76148673Y-27867956D01*
X76059282Y-27865077D01*
X76002723Y-27876441D01*
X75974021Y-27952241D01*
X76004558Y-28037958D01*
X76083083Y-28105069D01*
X76139992Y-28147980D01*
X76131322Y-28177532D01*
X76069958Y-28246670D01*
X76008176Y-28364002D01*
X75958366Y-28500133D01*
X75932917Y-28625670D01*
X75931811Y-28650858D01*
X74904782Y-28650858D01*
X74917777Y-28477549D01*
X74948176Y-28074563D01*
X74977401Y-27689672D01*
X75004900Y-27330300D01*
X75030120Y-27003870D01*
X75037201Y-26913386D01*
X75577941Y-26913386D01*
X75586868Y-27007803D01*
X75628386Y-27053093D01*
X75700813Y-27073491D01*
X75823742Y-27091619D01*
X75922543Y-27098065D01*
X75979627Y-27102548D01*
X76005798Y-27129104D01*
X76008274Y-27197393D01*
X75997286Y-27301690D01*
X75991213Y-27461731D01*
X76022072Y-27559387D01*
X76094432Y-27603943D01*
X76148673Y-27609211D01*
X76220845Y-27591820D01*
X76263603Y-27530970D01*
X76282895Y-27413642D01*
X76285681Y-27309322D01*
X76285681Y-27133821D01*
X76413468Y-27156686D01*
X76756301Y-27206989D01*
X77032068Y-27222054D01*
X77244524Y-27200823D01*
X77397424Y-27142239D01*
X77494524Y-27045243D01*
X77539578Y-26908777D01*
X77543886Y-26838198D01*
X77535032Y-26708983D01*
X77513083Y-26598717D01*
X77506343Y-26579650D01*
X77453109Y-26480250D01*
X77392033Y-26392182D01*
X77329710Y-26327933D01*
X77270276Y-26320540D01*
X77210413Y-26343516D01*
X77105560Y-26391290D01*
X77187107Y-26523235D01*
X77241156Y-26635631D01*
X77268003Y-26740350D01*
X77268653Y-26753852D01*
X77257470Y-26839540D01*
X77216206Y-26895582D01*
X77133289Y-26925946D01*
X76997148Y-26934598D01*
X76796210Y-26925506D01*
X76772865Y-26923829D01*
X76603814Y-26909706D01*
X76461318Y-26894647D01*
X76365822Y-26880965D01*
X76340991Y-26874963D01*
X76310908Y-26839913D01*
X76293294Y-26755022D01*
X76286111Y-26608088D01*
X76285681Y-26544143D01*
X76284230Y-26388867D01*
X76276525Y-26294744D01*
X76257533Y-26244298D01*
X76222225Y-26220054D01*
X76189619Y-26210438D01*
X76105828Y-26199313D01*
X76052596Y-26224622D01*
X76023408Y-26298156D01*
X76011749Y-26431708D01*
X76010449Y-26534792D01*
X76010449Y-26831894D01*
X75577941Y-26777856D01*
X75577941Y-26913386D01*
X75037201Y-26913386D01*
X75052506Y-26717804D01*
X75071505Y-26479527D01*
X75086564Y-26296461D01*
X75097128Y-26176030D01*
X75102645Y-26125656D01*
X75102835Y-26124923D01*
X75141432Y-26122569D01*
X75249466Y-26120416D01*
X75417736Y-26118536D01*
X75637041Y-26116997D01*
X75898180Y-26115870D01*
X76191954Y-26115223D01*
X76401856Y-26115093D01*
X77697598Y-26115093D01*
X77717945Y-26242880D01*
X77724180Y-26302910D01*
X77735559Y-26434660D01*
X77751564Y-26631413D01*
X77771678Y-26886456D01*
X77795385Y-27193072D01*
X77822167Y-27544546D01*
X77851510Y-27934165D01*
X77882894Y-28355212D01*
X77915805Y-28800973D01*
X77936520Y-29083669D01*
X77969971Y-29540619D01*
X78002000Y-29976492D01*
X78032111Y-30384635D01*
X78059808Y-30758395D01*
X78084594Y-31091120D01*
X78105972Y-31376157D01*
X78123446Y-31606854D01*
X78136520Y-31776557D01*
X78144697Y-31878615D01*
X78147092Y-31905023D01*
X78149883Y-31990787D01*
X78139998Y-32032809D01*
X78096547Y-32038263D01*
X77984539Y-32042781D01*
X77813700Y-32046392D01*
X77775520Y-32046866D01*
X77593754Y-32049124D01*
G36*
X74741823Y-38322909D02*
G01*
X74857938Y-38348243D01*
X74939429Y-38380592D01*
X74958067Y-38396270D01*
X74966417Y-38447215D01*
X74973875Y-38564967D01*
X74980066Y-38737697D01*
X74984618Y-38953575D01*
X74987158Y-39200773D01*
X74987556Y-39331289D01*
X74988158Y-40221014D01*
X75279697Y-40264375D01*
X75462816Y-40290612D01*
X75651673Y-40316096D01*
X75790843Y-40333546D01*
X76010449Y-40359357D01*
X76010449Y-39510908D01*
X76011947Y-39260588D01*
X76016138Y-39037599D01*
X76022567Y-38853648D01*
X76030779Y-38720439D01*
X76040320Y-38649680D01*
X76044226Y-38641583D01*
X76100710Y-38635001D01*
X76203089Y-38643025D01*
X76250651Y-38650158D01*
X76423297Y-38679608D01*
X76433875Y-39551747D01*
X76444452Y-40423885D01*
X76571491Y-40444647D01*
X76655044Y-40457314D01*
X76798976Y-40478119D01*
X76985751Y-40504566D01*
X77197833Y-40534160D01*
X77288313Y-40546662D01*
X77499639Y-40576464D01*
X77686939Y-40604159D01*
X77834634Y-40627349D01*
X77927145Y-40643631D01*
X77946904Y-40648148D01*
X77988489Y-40677438D01*
X78009577Y-40746271D01*
X78015700Y-40873440D01*
X78015712Y-40881984D01*
X78015712Y-41095589D01*
X77887926Y-41093766D01*
X77821889Y-41087954D01*
X77687057Y-41072131D01*
X77492469Y-41047492D01*
X77247165Y-41015233D01*
X76960185Y-40976547D01*
X76640568Y-40932631D01*
X76297353Y-40884679D01*
X76167725Y-40866369D01*
X74575310Y-40640796D01*
X74564888Y-39467819D01*
X74554466Y-38294841D01*
X74741823Y-38322909D01*
G37*
X74741823Y-38322909D02*
X74857938Y-38348243D01*
X74939429Y-38380592D01*
X74958067Y-38396270D01*
X74966417Y-38447215D01*
X74973875Y-38564967D01*
X74980066Y-38737697D01*
X74984618Y-38953575D01*
X74987158Y-39200773D01*
X74987556Y-39331289D01*
X74988158Y-40221014D01*
X75279697Y-40264375D01*
X75462816Y-40290612D01*
X75651673Y-40316096D01*
X75790843Y-40333546D01*
X76010449Y-40359357D01*
X76010449Y-39510908D01*
X76011947Y-39260588D01*
X76016138Y-39037599D01*
X76022567Y-38853648D01*
X76030779Y-38720439D01*
X76040320Y-38649680D01*
X76044226Y-38641583D01*
X76100710Y-38635001D01*
X76203089Y-38643025D01*
X76250651Y-38650158D01*
X76423297Y-38679608D01*
X76433875Y-39551747D01*
X76444452Y-40423885D01*
X76571491Y-40444647D01*
X76655044Y-40457314D01*
X76798976Y-40478119D01*
X76985751Y-40504566D01*
X77197833Y-40534160D01*
X77288313Y-40546662D01*
X77499639Y-40576464D01*
X77686939Y-40604159D01*
X77834634Y-40627349D01*
X77927145Y-40643631D01*
X77946904Y-40648148D01*
X77988489Y-40677438D01*
X78009577Y-40746271D01*
X78015700Y-40873440D01*
X78015712Y-40881984D01*
X78015712Y-41095589D01*
X77887926Y-41093766D01*
X77821889Y-41087954D01*
X77687057Y-41072131D01*
X77492469Y-41047492D01*
X77247165Y-41015233D01*
X76960185Y-40976547D01*
X76640568Y-40932631D01*
X76297353Y-40884679D01*
X76167725Y-40866369D01*
X74575310Y-40640796D01*
X74564888Y-39467819D01*
X74554466Y-38294841D01*
X74741823Y-38322909D01*
G36*
X76820246Y-28228526D02*
G01*
X76989149Y-28270026D01*
X77143580Y-28353120D01*
X77269606Y-28478495D01*
X77322784Y-28567862D01*
X77371677Y-28688600D01*
X77379173Y-28783616D01*
X77345997Y-28893593D01*
X77329292Y-28933127D01*
X77263702Y-29041177D01*
X77170243Y-29106302D01*
X77031164Y-29137031D01*
X76893233Y-29142647D01*
X76664622Y-29113897D01*
X76476934Y-29032586D01*
X76339360Y-28906127D01*
X76261089Y-28741935D01*
X76246362Y-28620908D01*
X76278607Y-28464737D01*
X76366052Y-28346726D01*
X76494763Y-28267563D01*
X76650806Y-28227934D01*
X76820246Y-28228526D01*
G37*
X76820246Y-28228526D02*
X76989149Y-28270026D01*
X77143580Y-28353120D01*
X77269606Y-28478495D01*
X77322784Y-28567862D01*
X77371677Y-28688600D01*
X77379173Y-28783616D01*
X77345997Y-28893593D01*
X77329292Y-28933127D01*
X77263702Y-29041177D01*
X77170243Y-29106302D01*
X77031164Y-29137031D01*
X76893233Y-29142647D01*
X76664622Y-29113897D01*
X76476934Y-29032586D01*
X76339360Y-28906127D01*
X76261089Y-28741935D01*
X76246362Y-28620908D01*
X76278607Y-28464737D01*
X76366052Y-28346726D01*
X76494763Y-28267563D01*
X76650806Y-28227934D01*
X76820246Y-28228526D01*
G36*
X75886383Y-37792913D02*
G01*
X75588491Y-37751395D01*
X75313976Y-37712802D01*
X75072961Y-37678525D01*
X74875571Y-37649958D01*
X74731930Y-37628492D01*
X74652161Y-37615520D01*
X74644118Y-37613929D01*
X74613957Y-37605520D01*
X74591573Y-37588284D01*
X74575805Y-37551765D01*
X74565495Y-37485508D01*
X74559484Y-37379058D01*
X74556611Y-37221958D01*
X74556480Y-37190070D01*
X74988158Y-37190070D01*
X75587771Y-37275226D01*
X75798677Y-37304741D01*
X75983703Y-37329811D01*
X76128089Y-37348501D01*
X76217072Y-37358874D01*
X76236533Y-37360338D01*
X76260589Y-37323922D01*
X76277339Y-37225711D01*
X76286984Y-37082193D01*
X76289722Y-36909850D01*
X76285754Y-36725170D01*
X76275279Y-36544636D01*
X76258497Y-36384734D01*
X76235608Y-36261949D01*
X76222736Y-36221597D01*
X76132735Y-36074494D01*
X75991821Y-35966906D01*
X75791261Y-35893644D01*
X75615084Y-35860609D01*
X75375585Y-35843604D01*
X75198967Y-35868761D01*
X75081082Y-35937122D01*
X75033270Y-36006780D01*
X75014403Y-36089404D01*
X74999971Y-36237144D01*
X74990920Y-36436555D01*
X74988158Y-36647930D01*
X74988158Y-37190070D01*
X74556480Y-37190070D01*
X74555718Y-37003753D01*
X74555650Y-36816085D01*
X74558040Y-36491623D01*
X74566693Y-36234800D01*
X74583830Y-36034722D01*
X74611675Y-35880493D01*
X74652451Y-35761221D01*
X74708380Y-35666009D01*
X74781685Y-35583964D01*
X74812857Y-35555465D01*
X74977845Y-35458551D01*
X75190062Y-35404308D01*
X75432521Y-35390019D01*
X75688236Y-35412967D01*
X75940217Y-35470435D01*
X76171478Y-35559706D01*
X76365032Y-35678064D01*
X76503890Y-35822792D01*
X76506226Y-35826289D01*
X76588466Y-35969074D01*
X76647562Y-36121342D01*
X76686690Y-36299047D01*
X76709028Y-36518142D01*
X76717752Y-36794581D01*
X76718189Y-36890656D01*
X76718189Y-37430810D01*
X77062229Y-37479092D01*
X77268030Y-37508341D01*
X77490190Y-37540486D01*
X77683974Y-37569048D01*
X77701161Y-37571621D01*
X77996053Y-37615867D01*
X78007845Y-37841951D01*
X78011379Y-37970693D01*
X78001669Y-38039221D01*
X77974040Y-38065488D01*
X77948866Y-38068431D01*
X77896172Y-38063250D01*
X77775737Y-38048462D01*
X77597686Y-38025460D01*
X77372143Y-37995635D01*
X77109231Y-37960381D01*
X76819075Y-37921089D01*
X76511799Y-37879152D01*
X76236533Y-37841324D01*
X76197526Y-37835963D01*
X75886383Y-37792913D01*
G37*
X75886383Y-37792913D02*
X75588491Y-37751395D01*
X75313976Y-37712802D01*
X75072961Y-37678525D01*
X74875571Y-37649958D01*
X74731930Y-37628492D01*
X74652161Y-37615520D01*
X74644118Y-37613929D01*
X74613957Y-37605520D01*
X74591573Y-37588284D01*
X74575805Y-37551765D01*
X74565495Y-37485508D01*
X74559484Y-37379058D01*
X74556611Y-37221958D01*
X74556480Y-37190070D01*
X74988158Y-37190070D01*
X75587771Y-37275226D01*
X75798677Y-37304741D01*
X75983703Y-37329811D01*
X76128089Y-37348501D01*
X76217072Y-37358874D01*
X76236533Y-37360338D01*
X76260589Y-37323922D01*
X76277339Y-37225711D01*
X76286984Y-37082193D01*
X76289722Y-36909850D01*
X76285754Y-36725170D01*
X76275279Y-36544636D01*
X76258497Y-36384734D01*
X76235608Y-36261949D01*
X76222736Y-36221597D01*
X76132735Y-36074494D01*
X75991821Y-35966906D01*
X75791261Y-35893644D01*
X75615084Y-35860609D01*
X75375585Y-35843604D01*
X75198967Y-35868761D01*
X75081082Y-35937122D01*
X75033270Y-36006780D01*
X75014403Y-36089404D01*
X74999971Y-36237144D01*
X74990920Y-36436555D01*
X74988158Y-36647930D01*
X74988158Y-37190070D01*
X74556480Y-37190070D01*
X74555718Y-37003753D01*
X74555650Y-36816085D01*
X74558040Y-36491623D01*
X74566693Y-36234800D01*
X74583830Y-36034722D01*
X74611675Y-35880493D01*
X74652451Y-35761221D01*
X74708380Y-35666009D01*
X74781685Y-35583964D01*
X74812857Y-35555465D01*
X74977845Y-35458551D01*
X75190062Y-35404308D01*
X75432521Y-35390019D01*
X75688236Y-35412967D01*
X75940217Y-35470435D01*
X76171478Y-35559706D01*
X76365032Y-35678064D01*
X76503890Y-35822792D01*
X76506226Y-35826289D01*
X76588466Y-35969074D01*
X76647562Y-36121342D01*
X76686690Y-36299047D01*
X76709028Y-36518142D01*
X76717752Y-36794581D01*
X76718189Y-36890656D01*
X76718189Y-37430810D01*
X77062229Y-37479092D01*
X77268030Y-37508341D01*
X77490190Y-37540486D01*
X77683974Y-37569048D01*
X77701161Y-37571621D01*
X77996053Y-37615867D01*
X78007845Y-37841951D01*
X78011379Y-37970693D01*
X78001669Y-38039221D01*
X77974040Y-38065488D01*
X77948866Y-38068431D01*
X77896172Y-38063250D01*
X77775737Y-38048462D01*
X77597686Y-38025460D01*
X77372143Y-37995635D01*
X77109231Y-37960381D01*
X76819075Y-37921089D01*
X76511799Y-37879152D01*
X76236533Y-37841324D01*
X76197526Y-37835963D01*
X75886383Y-37792913D01*
G36*
X75354695Y-32374346D02*
G01*
X75429280Y-32386072D01*
X75466073Y-32416827D01*
X75478413Y-32488449D01*
X75479644Y-32578930D01*
X75479644Y-32771405D01*
X75293036Y-32825817D01*
X75148506Y-32885332D01*
X75051817Y-32973880D01*
X74992788Y-33106789D01*
X74961241Y-33299389D01*
X74958648Y-33329360D01*
X74956423Y-33587030D01*
X74998521Y-33801365D01*
X75090420Y-33977532D01*
X75237598Y-34120698D01*
X75445532Y-34236031D01*
X75719702Y-34328699D01*
X76065583Y-34403869D01*
X76104934Y-34410726D01*
X76447441Y-34459921D01*
X76757334Y-34485961D01*
X77024583Y-34488842D01*
X77239159Y-34468561D01*
X77391030Y-34425115D01*
X77417079Y-34411213D01*
X77513219Y-34336018D01*
X77575149Y-34239632D01*
X77609100Y-34104929D01*
X77621297Y-33914778D01*
X77621660Y-33848524D01*
X77599602Y-33578798D01*
X77530845Y-33365624D01*
X77408761Y-33201084D01*
X77226719Y-33077260D01*
X76978090Y-32986234D01*
X76879222Y-32961801D01*
X76718189Y-32925619D01*
X76718189Y-33860914D01*
X76549118Y-33860914D01*
X76433257Y-33850536D01*
X76348266Y-33824587D01*
X76332864Y-33813731D01*
X76312744Y-33760640D01*
X76298416Y-33644465D01*
X76289557Y-33460481D01*
X76285844Y-33203962D01*
X76285681Y-33124417D01*
X76286569Y-32882484D01*
X76289954Y-32707901D01*
X76296924Y-32589390D01*
X76308562Y-32515676D01*
X76325955Y-32475482D01*
X76349862Y-32457656D01*
X76414736Y-32453606D01*
X76536250Y-32462967D01*
X76693921Y-32483780D01*
X76790788Y-32499782D01*
X77160200Y-32585564D01*
X77460194Y-32702369D01*
X77695500Y-32855041D01*
X77870851Y-33048423D01*
X77990980Y-33287360D01*
X78060619Y-33576694D01*
X78082258Y-33821595D01*
X78085784Y-34030267D01*
X78075580Y-34187665D01*
X78048904Y-34320378D01*
X78022269Y-34403670D01*
X77924736Y-34609059D01*
X77792790Y-34762626D01*
X77617658Y-34869168D01*
X77390565Y-34933480D01*
X77102734Y-34960360D01*
X77001161Y-34961842D01*
X76710308Y-34949623D01*
X76375728Y-34915772D01*
X76027961Y-34864502D01*
X75697548Y-34800025D01*
X75526991Y-34758528D01*
X75197753Y-34640184D01*
X74928007Y-34477242D01*
X74720943Y-34272326D01*
X74579754Y-34028058D01*
X74554486Y-33959211D01*
X74522097Y-33800744D01*
X74506386Y-33593058D01*
X74506891Y-33363681D01*
X74523152Y-33140143D01*
X74554708Y-32949970D01*
X74572453Y-32886541D01*
X74680108Y-32678886D01*
X74842133Y-32517328D01*
X75043798Y-32411513D01*
X75270372Y-32371085D01*
X75354695Y-32374346D01*
G37*
X75354695Y-32374346D02*
X75429280Y-32386072D01*
X75466073Y-32416827D01*
X75478413Y-32488449D01*
X75479644Y-32578930D01*
X75479644Y-32771405D01*
X75293036Y-32825817D01*
X75148506Y-32885332D01*
X75051817Y-32973880D01*
X74992788Y-33106789D01*
X74961241Y-33299389D01*
X74958648Y-33329360D01*
X74956423Y-33587030D01*
X74998521Y-33801365D01*
X75090420Y-33977532D01*
X75237598Y-34120698D01*
X75445532Y-34236031D01*
X75719702Y-34328699D01*
X76065583Y-34403869D01*
X76104934Y-34410726D01*
X76447441Y-34459921D01*
X76757334Y-34485961D01*
X77024583Y-34488842D01*
X77239159Y-34468561D01*
X77391030Y-34425115D01*
X77417079Y-34411213D01*
X77513219Y-34336018D01*
X77575149Y-34239632D01*
X77609100Y-34104929D01*
X77621297Y-33914778D01*
X77621660Y-33848524D01*
X77599602Y-33578798D01*
X77530845Y-33365624D01*
X77408761Y-33201084D01*
X77226719Y-33077260D01*
X76978090Y-32986234D01*
X76879222Y-32961801D01*
X76718189Y-32925619D01*
X76718189Y-33860914D01*
X76549118Y-33860914D01*
X76433257Y-33850536D01*
X76348266Y-33824587D01*
X76332864Y-33813731D01*
X76312744Y-33760640D01*
X76298416Y-33644465D01*
X76289557Y-33460481D01*
X76285844Y-33203962D01*
X76285681Y-33124417D01*
X76286569Y-32882484D01*
X76289954Y-32707901D01*
X76296924Y-32589390D01*
X76308562Y-32515676D01*
X76325955Y-32475482D01*
X76349862Y-32457656D01*
X76414736Y-32453606D01*
X76536250Y-32462967D01*
X76693921Y-32483780D01*
X76790788Y-32499782D01*
X77160200Y-32585564D01*
X77460194Y-32702369D01*
X77695500Y-32855041D01*
X77870851Y-33048423D01*
X77990980Y-33287360D01*
X78060619Y-33576694D01*
X78082258Y-33821595D01*
X78085784Y-34030267D01*
X78075580Y-34187665D01*
X78048904Y-34320378D01*
X78022269Y-34403670D01*
X77924736Y-34609059D01*
X77792790Y-34762626D01*
X77617658Y-34869168D01*
X77390565Y-34933480D01*
X77102734Y-34960360D01*
X77001161Y-34961842D01*
X76710308Y-34949623D01*
X76375728Y-34915772D01*
X76027961Y-34864502D01*
X75697548Y-34800025D01*
X75526991Y-34758528D01*
X75197753Y-34640184D01*
X74928007Y-34477242D01*
X74720943Y-34272326D01*
X74579754Y-34028058D01*
X74554486Y-33959211D01*
X74522097Y-33800744D01*
X74506386Y-33593058D01*
X74506891Y-33363681D01*
X74523152Y-33140143D01*
X74554708Y-32949970D01*
X74572453Y-32886541D01*
X74680108Y-32678886D01*
X74842133Y-32517328D01*
X75043798Y-32411513D01*
X75270372Y-32371085D01*
X75354695Y-32374346D01*
D12*
X69843641Y-33520000D02*
X69536359Y-33520000D01*
X69843641Y-34280000D02*
X69536359Y-34280000D01*
X76230000Y-76920000D02*
X76230000Y-72780000D01*
X79070000Y-72780000D02*
X79370000Y-72780000D01*
X79370000Y-76920000D02*
X79070000Y-76920000D01*
X76530000Y-76920000D02*
X76230000Y-76920000D01*
X76230000Y-72780000D02*
X76530000Y-72780000D01*
X79370000Y-72780000D02*
X79370000Y-76920000D01*
X38710000Y-54232836D02*
X38710000Y-54017164D01*
X37990000Y-54232836D02*
X37990000Y-54017164D01*
X57300000Y-59490000D02*
X58100000Y-59490000D01*
X57300000Y-59490000D02*
X55500000Y-59490000D01*
X57300000Y-62610000D02*
X58100000Y-62610000D01*
X57300000Y-62610000D02*
X56500000Y-62610000D01*
X31307855Y-73185000D02*
X32777855Y-73185000D01*
X31307855Y-70900000D02*
X31307855Y-73185000D01*
X32777855Y-73185000D02*
X32777855Y-70900000D01*
X63440000Y-53092164D02*
X63440000Y-53307836D01*
X64160000Y-53092164D02*
X64160000Y-53307836D01*
X22486430Y-73185000D02*
X23956430Y-73185000D01*
X23956430Y-73185000D02*
X23956430Y-70900000D01*
X22486430Y-70900000D02*
X22486430Y-73185000D01*
X51635000Y-60735000D02*
X51635000Y-59265000D01*
X51635000Y-59265000D02*
X49350000Y-59265000D01*
X49350000Y-60735000D02*
X51635000Y-60735000D01*
X37510000Y-70250000D02*
X38530000Y-70250000D01*
X35420000Y-70250000D02*
X35420000Y-65050000D01*
X60370000Y-70250000D02*
X61390000Y-70250000D01*
X50210000Y-65050000D02*
X51230000Y-65050000D01*
X47670000Y-65050000D02*
X48690000Y-65050000D01*
X63480000Y-70250000D02*
X63480000Y-65050000D01*
X35420000Y-70250000D02*
X35990000Y-70250000D01*
X57830000Y-70250000D02*
X58850000Y-70250000D01*
X52750000Y-65050000D02*
X53770000Y-65050000D01*
X37510000Y-65050000D02*
X38530000Y-65050000D01*
X55290000Y-65050000D02*
X56310000Y-65050000D01*
X50210000Y-70250000D02*
X51230000Y-70250000D01*
X45130000Y-65050000D02*
X46150000Y-65050000D01*
X55290000Y-70250000D02*
X56310000Y-70250000D01*
X42590000Y-70250000D02*
X43610000Y-70250000D01*
X57830000Y-65050000D02*
X58850000Y-65050000D01*
X40050000Y-65050000D02*
X41070000Y-65050000D01*
X52750000Y-70250000D02*
X53770000Y-70250000D01*
X60370000Y-65050000D02*
X61390000Y-65050000D01*
X40050000Y-70250000D02*
X41070000Y-70250000D01*
X42590000Y-65050000D02*
X43610000Y-65050000D01*
X35990000Y-71690000D02*
X35990000Y-70250000D01*
X62910000Y-65050000D02*
X63480000Y-65050000D01*
X45130000Y-70250000D02*
X46150000Y-70250000D01*
X47670000Y-70250000D02*
X48690000Y-70250000D01*
X35420000Y-65050000D02*
X35990000Y-65050000D01*
X62910000Y-70250000D02*
X63480000Y-70250000D01*
X29540000Y-70900000D02*
X29540000Y-73185000D01*
X29540000Y-73185000D02*
X31010000Y-73185000D01*
X31010000Y-73185000D02*
X31010000Y-70900000D01*
X61540000Y-40040580D02*
X61540000Y-39759420D01*
X62560000Y-40040580D02*
X62560000Y-39759420D01*
X64456359Y-59120000D02*
X64763641Y-59120000D01*
X64456359Y-59880000D02*
X64763641Y-59880000D01*
X20715000Y-70900000D02*
X20715000Y-73185000D01*
X20715000Y-73185000D02*
X22185000Y-73185000D01*
X22185000Y-73185000D02*
X22185000Y-70900000D01*
X51635000Y-57665000D02*
X49350000Y-57665000D01*
X51635000Y-59135000D02*
X51635000Y-57665000D01*
X49350000Y-59135000D02*
X51635000Y-59135000D01*
X24240000Y-73185000D02*
X25710000Y-73185000D01*
X25710000Y-73185000D02*
X25710000Y-70900000D01*
X24240000Y-70900000D02*
X24240000Y-73185000D01*
X62740000Y-48792164D02*
X62740000Y-49007836D01*
X63460000Y-48792164D02*
X63460000Y-49007836D01*
X27765000Y-73185000D02*
X29235000Y-73185000D01*
X29235000Y-73185000D02*
X29235000Y-70900000D01*
X27765000Y-70900000D02*
X27765000Y-73185000D01*
%LPC*%
D13*
X48250000Y-55000000D03*
X49800000Y-55000000D03*
D14*
X54430000Y-58100000D03*
X53470000Y-58100000D03*
D15*
X65326500Y-55120000D03*
X65326500Y-56080000D03*
D16*
X36750000Y-34925000D03*
X36750000Y-29875000D03*
X39290000Y-34925000D03*
X39290000Y-29875000D03*
X41830000Y-34925000D03*
X41830000Y-29875000D03*
X44370000Y-34925000D03*
X44370000Y-29875000D03*
X46910000Y-34925000D03*
X46910000Y-29875000D03*
X49450000Y-34925000D03*
X49450000Y-29875000D03*
X51990000Y-34925000D03*
X51990000Y-29875000D03*
X54530000Y-34925000D03*
X54530000Y-29875000D03*
X57070000Y-34925000D03*
X57070000Y-29875000D03*
X59610000Y-34925000D03*
X59610000Y-29875000D03*
X62150000Y-34925000D03*
X62150000Y-29875000D03*
D17*
X47140000Y-58650000D03*
X48160000Y-58650000D03*
D18*
X50925000Y-56800000D03*
X49375000Y-56800000D03*
D19*
X38250000Y-39000000D03*
X37230000Y-39000000D03*
X65570000Y-33400000D03*
X64550000Y-33400000D03*
D20*
X60800000Y-40580000D03*
X60800000Y-39620000D03*
D21*
X26750000Y-72487500D03*
X26750000Y-70912500D03*
D22*
X57400000Y-57440000D03*
X57400000Y-58460000D03*
D19*
X60910000Y-62050000D03*
X59890000Y-62050000D03*
D17*
X72040000Y-31100000D03*
X73060000Y-31100000D03*
D21*
X33800000Y-72487500D03*
X33800000Y-70912500D03*
D23*
X64396000Y-46366000D03*
X64396000Y-47916000D03*
D24*
X40000000Y-61875000D03*
X43300000Y-61875000D03*
X43300000Y-56975000D03*
X40000000Y-56975000D03*
D19*
X28110000Y-28150000D03*
X27090000Y-28150000D03*
X30860000Y-28150000D03*
X29840000Y-28150000D03*
D17*
X35300000Y-40850000D03*
X36320000Y-40850000D03*
D25*
X23000000Y-40894000D03*
D26*
X23000000Y-43434000D03*
X23000000Y-45974000D03*
X23000000Y-48514000D03*
X23000000Y-51054000D03*
X23000000Y-53594000D03*
X23000000Y-56134000D03*
X23000000Y-58674000D03*
X33160000Y-58674000D03*
X33160000Y-53594000D03*
X33160000Y-48514000D03*
X33160000Y-45974000D03*
X33160000Y-43434000D03*
X33160000Y-40894000D03*
D27*
X66200000Y-38410000D03*
X66200000Y-37390000D03*
D28*
X43000000Y-44170000D03*
X43000000Y-42900000D03*
X43000000Y-41630000D03*
X43000000Y-40360000D03*
X38050000Y-40360000D03*
X38050000Y-41630000D03*
X38050000Y-42900000D03*
X38050000Y-44170000D03*
D29*
X69125000Y-31100000D03*
D30*
X69125000Y-32250000D03*
D29*
X70775000Y-32400000D03*
X70775000Y-31100000D03*
D31*
X52920000Y-42750000D03*
X53880000Y-42750000D03*
D19*
X37235000Y-54525000D03*
X36215000Y-54525000D03*
D27*
X53500000Y-39960000D03*
X53500000Y-38940000D03*
D32*
X74300000Y-72750000D03*
X74300000Y-76950000D03*
D20*
X60250000Y-59230000D03*
X60250000Y-58270000D03*
D33*
X70637500Y-56450000D03*
X69062500Y-56450000D03*
D17*
X63340000Y-51500000D03*
X64360000Y-51500000D03*
X47130000Y-59750000D03*
X48150000Y-59750000D03*
D19*
X69460000Y-52900000D03*
X68440000Y-52900000D03*
D34*
X61529500Y-53750000D03*
X61529500Y-53250000D03*
X61529500Y-52750000D03*
X61529500Y-52250000D03*
X61529500Y-51750000D03*
X61529500Y-51250000D03*
X61529500Y-50750000D03*
X61529500Y-50250000D03*
X61529500Y-49750000D03*
X61529500Y-49250000D03*
X61529500Y-48750000D03*
X61529500Y-48250000D03*
X61529500Y-47750000D03*
X61529500Y-47250000D03*
X61529500Y-46750000D03*
X61529500Y-46250000D03*
D35*
X59604500Y-44325000D03*
X59104500Y-44325000D03*
X58604500Y-44325000D03*
X58104500Y-44325000D03*
X57604500Y-44325000D03*
X57104500Y-44325000D03*
X56604500Y-44325000D03*
X56104500Y-44325000D03*
X55604500Y-44325000D03*
X55104500Y-44325000D03*
X54604500Y-44325000D03*
X54104500Y-44325000D03*
X53604500Y-44325000D03*
X53104500Y-44325000D03*
X52604500Y-44325000D03*
X52104500Y-44325000D03*
D34*
X50179500Y-46250000D03*
X50179500Y-46750000D03*
X50179500Y-47250000D03*
X50179500Y-47750000D03*
X50179500Y-48250000D03*
X50179500Y-48750000D03*
X50179500Y-49250000D03*
X50179500Y-49750000D03*
X50179500Y-50250000D03*
X50179500Y-50750000D03*
X50179500Y-51250000D03*
X50179500Y-51750000D03*
X50179500Y-52250000D03*
X50179500Y-52750000D03*
X50179500Y-53250000D03*
X50179500Y-53750000D03*
D35*
X52104500Y-55675000D03*
X52604500Y-55675000D03*
X53104500Y-55675000D03*
X53604500Y-55675000D03*
X54104500Y-55675000D03*
X54604500Y-55675000D03*
X55104500Y-55675000D03*
X55604500Y-55675000D03*
X56104500Y-55675000D03*
X56604500Y-55675000D03*
X57104500Y-55675000D03*
X57604500Y-55675000D03*
X58104500Y-55675000D03*
X58604500Y-55675000D03*
X59104500Y-55675000D03*
X59604500Y-55675000D03*
D36*
X24300000Y-77500000D03*
X31100000Y-77500000D03*
D37*
X25200000Y-74750000D03*
X27700000Y-74750000D03*
X30200000Y-74750000D03*
D38*
X62126500Y-57887500D03*
X63076500Y-57887500D03*
X64026500Y-57887500D03*
X64026500Y-55612500D03*
X62126500Y-55612500D03*
D14*
X58380000Y-42500000D03*
X57420000Y-42500000D03*
D19*
X61810000Y-61000000D03*
X60790000Y-61000000D03*
D22*
X63100000Y-45440000D03*
X63100000Y-46460000D03*
D39*
X40050000Y-54150000D03*
X43250000Y-54150000D03*
X43250000Y-49250000D03*
X40050000Y-49250000D03*
D40*
X68087500Y-51350000D03*
X68087500Y-50400000D03*
X68087500Y-49450000D03*
X65812500Y-49450000D03*
X65812500Y-51350000D03*
D15*
X48476500Y-51220000D03*
X48476500Y-52180000D03*
D22*
X56300000Y-57290000D03*
X56300000Y-58310000D03*
D27*
X38300000Y-60545000D03*
X38300000Y-59525000D03*
D14*
X38355000Y-61850000D03*
X37395000Y-61850000D03*
D41*
X72577500Y-46800000D03*
X72577500Y-53200000D03*
X72577500Y-52400000D03*
X72577500Y-47600000D03*
D42*
X72577500Y-51250000D03*
X72577500Y-50250000D03*
X72577500Y-49750000D03*
X72577500Y-48750000D03*
X72577500Y-48250000D03*
X72577500Y-49250000D03*
X72577500Y-50750000D03*
X72577500Y-51750000D03*
D43*
X73800000Y-44380000D03*
X77800000Y-44380000D03*
X77800000Y-55620000D03*
X73800000Y-55620000D03*
D27*
X69800000Y-47710000D03*
X69800000Y-46690000D03*
D32*
X23100000Y-24200000D03*
X23100000Y-28400000D03*
D44*
X35649000Y-74130000D03*
X43269000Y-74130000D03*
X45809000Y-74130000D03*
X58509000Y-74130000D03*
X61049000Y-74130000D03*
X63589000Y-74130000D03*
X66129000Y-74130000D03*
X68669000Y-74130000D03*
X71209000Y-74130000D03*
X31585000Y-25870000D03*
X71209000Y-25870000D03*
X68669000Y-25870000D03*
X66129000Y-25870000D03*
X63589000Y-25870000D03*
X61049000Y-25870000D03*
X58509000Y-25870000D03*
X55969000Y-25870000D03*
X53429000Y-25870000D03*
X49365000Y-25870000D03*
X46825000Y-25870000D03*
X44285000Y-25870000D03*
X41745000Y-25870000D03*
X39205000Y-25870000D03*
X36665000Y-25870000D03*
D45*
X34125000Y-25870000D03*
X48349000Y-74130000D03*
X50889000Y-74130000D03*
D44*
X38189000Y-74130000D03*
X40729000Y-74130000D03*
X26505000Y-25870000D03*
X29045000Y-25870000D03*
X53429000Y-74130000D03*
D18*
X66625000Y-53400000D03*
X65075000Y-53400000D03*
D14*
X40630000Y-45500000D03*
X39670000Y-45500000D03*
D19*
X64450000Y-40350000D03*
X63430000Y-40350000D03*
X70200000Y-33900000D03*
X69180000Y-33900000D03*
D32*
X77800000Y-72750000D03*
X77800000Y-76950000D03*
D20*
X38350000Y-54605000D03*
X38350000Y-53645000D03*
D46*
X56162500Y-60100000D03*
X56162500Y-61050000D03*
X56162500Y-62000000D03*
X58437500Y-62000000D03*
X58437500Y-61050000D03*
X58437500Y-60100000D03*
D21*
X32042855Y-72487500D03*
X32042855Y-70912500D03*
D15*
X63800000Y-52720000D03*
X63800000Y-53680000D03*
D21*
X23221430Y-72487500D03*
X23221430Y-70912500D03*
D33*
X50937500Y-60000000D03*
X49362500Y-60000000D03*
D16*
X36750000Y-70175000D03*
X36750000Y-65125000D03*
X39290000Y-70175000D03*
X39290000Y-65125000D03*
X41830000Y-70175000D03*
X41830000Y-65125000D03*
X44370000Y-70175000D03*
X44370000Y-65125000D03*
X46910000Y-70175000D03*
X46910000Y-65125000D03*
X49450000Y-70175000D03*
X49450000Y-65125000D03*
X51990000Y-70175000D03*
X51990000Y-65125000D03*
X54530000Y-70175000D03*
X54530000Y-65125000D03*
X57070000Y-70175000D03*
X57070000Y-65125000D03*
X59610000Y-70175000D03*
X59610000Y-65125000D03*
X62150000Y-70175000D03*
X62150000Y-65125000D03*
D21*
X30275000Y-72487500D03*
X30275000Y-70912500D03*
D47*
X62050000Y-40675000D03*
X62050000Y-39125000D03*
D17*
X64100000Y-59500000D03*
X65120000Y-59500000D03*
D21*
X21450000Y-72487500D03*
X21450000Y-70912500D03*
D33*
X50937500Y-58400000D03*
X49362500Y-58400000D03*
D21*
X24975000Y-72487500D03*
X24975000Y-70912500D03*
D15*
X63100000Y-48420000D03*
X63100000Y-49380000D03*
D21*
X28500000Y-72487500D03*
X28500000Y-70912500D03*
M02*
